<?xml version="1.0" encoding="UTF-8"?>
<svg id="Layer_1" data-name="Layer 1" xmlns="http://www.w3.org/2000/svg" viewBox="0 0 875.5 791.4">
  <path d="m311.2.6c1.2-.6,2.9-1.1,3.8.2,3.9,4.8,3.1,11.4,2.4,17.2-1.9,12.4-10.5,24.3-22.7,28.1-6.4,3.2-13.8,3.5-20.9,3.2-2.3-.2-5.8-.2-5.9-3.3-.3-6.8,1.3-14,4.8-19.9,1.4-3.1,2.4-6.6,5.1-8.9,3.7-3.3,7.3-6.9,11.3-9.7,7-3.3,14.9-3.9,22-6.8Zm-9.1,4.8c-6.1,1.6-12.4,3.9-16.8,8.6-8,5.9-12.4,15.5-15,24.8-.4,2.7-2.1,6.3.3,8.5,8.9.8,17.9-1,26-4.5,5.1-2.1,9.3-6,12.7-10.3,5.2-6.7,6.4-15.4,6.5-23.6-.3-1.8,0-4.2-1.4-5.5-4.2-.3-8.3,1.1-12.3,2Z" fill="#f4b486"/>
  <path d="m302.2,5.4c4.1-.9,8.1-2.3,12.3-2,1.4,1.3,1,3.7,1.4,5.5,0,8.2-1.3,17-6.5,23.6-3.4,4.3-7.5,8.2-12.7,10.3-8.2,3.5-17.2,5.2-26,4.5-2.4-2.2-.7-5.8-.3-8.5.2,2,.4,4.1.7,6.1,4.9,2.2,10.2.4,15.1-.6,8-1.6,15.8-5.5,20.9-12,5.4-7.1,7.1-16.2,7.3-24.9-3.7-3.1-8.5-.9-12.5.5-3.4,1.4-7.5,1.3-10.4,3.8-1.6,1.6-4,1.7-6.1,2.2,4.4-4.7,10.7-7,16.8-8.6Z" fill="#cd7337"/>
  <path d="m301.9,8c4-1.4,8.7-3.6,12.5-.5-.2,8.7-1.9,17.8-7.3,24.9-5.1,6.5-12.9,10.4-20.9,12-5,.9-10.3,2.7-15.1.6-.2-2-.5-4.1-.7-6.1,2.6-9.3,7-18.9,15-24.8,2.1-.5,4.4-.6,6.1-2.2,2.9-2.5,7-2.4,10.4-3.8Zm-24.2,24c-1.6,3.8-3.8,7.5-3.5,11.8,11.4-1.4,23.9-4.6,31.5-13.9,5-6,5.6-14.2,6.7-21.6-14.7.8-28.8,10.2-34.7,23.8Z" fill="#cf6e12"/>
  <path d="m277.7,32c5.9-13.6,20-23,34.7-23.8-1.1,7.4-1.7,15.6-6.7,21.6-7.6,9.3-20.1,12.5-31.5,13.9-.2-4.2,1.9-8,3.5-11.8Zm13.5,1.5c3,.8,5.4-1.8,6.9-4.1,1.4-2.4,3.2-5.3,1.9-8.1-4.8,2.3-7,7.5-8.8,12.1Z" fill="#fbb406"/>
  <path d="m586.1,19.6c3.3.6,6.2,2.5,9.7,2.6,6.2.3,12.2,2.1,18.1,3.8,4.9,1,8.4,4.9,12,7.9,2.8,3.1,6.1,6,8.4,9.5.4,3,1.1,7.3-2.1,9-2.4,1.7-5.5,1.4-8.3,1.5-5.4,0-10.8.3-16.1-.5-5.9-1.3-11.4-4.4-16.1-8.2-2.4-3.5-4.6-7.2-7.2-10.6-1-3.8-2.5-7.6-2.4-11.5,0-2.3,2.1-3.5,4.1-3.6Zm-1.3,1.8c-.5.9-.9,1.7-1.4,2.6,1.2,5.5,4.6,10,7.5,14.7,2.4,4,6.4,6.5,10.2,9,7.4,4.5,16.4,4.3,24.7,3.6,2.2-.4,5.1-.4,6.3-2.6,1.3-3-1.4-5.8-3.1-8-6.4-7-14.2-13.7-24-14.9-6.7-2.2-14.3,0-20.3-4.3Z" fill="#f6ae82"/>
  <path d="m584.8,21.4c6,4.4,13.6,2.1,20.3,4.3,9.8,1.2,17.6,7.9,24,14.9,1.7,2.2,4.4,5,3.1,8-1.3,2.3-4.1,2.2-6.3,2.6-8.3.8-17.3.9-24.7-3.6-3.8-2.5-7.8-5-10.2-9-2.9-4.7-6.3-9.2-7.5-14.7.4-.9.9-1.7,1.4-2.6Zm4.7,7.2c3.2,5.7,6.5,12.1,12.7,15,7.9,3.8,16.9,4.5,25.6,3.3-2.1-5.2-7.3-7.9-11.4-11.4-6.1-4.8-14-5.5-21.3-6.9-1.9-.4-3.7-.2-5.6,0Z" fill="#e77c40"/>
  <path d="m291.2,33.5c1.8-4.7,3.9-9.9,8.8-12.1,1.4,2.8-.5,5.7-1.9,8.1-1.5,2.3-3.9,4.9-6.9,4.1Z" fill="#cb7b01"/>
  <path d="m589.5,28.6c1.8-.2,3.7-.3,5.6,0,7.3,1.4,15.2,2.1,21.3,6.9,4.1,3.4,9.3,6.2,11.4,11.4-8.6,1.2-17.6.4-25.6-3.3-6.2-2.8-9.5-9.3-12.7-15Z" fill="#f69653"/>
  <path d="m448.4,51.5c2.5-2.6,6.9-3.2,9.6-.7,3,2.9,2.7,7.4,3.2,11.3,4.3-1.5,9-3,13.6-1.7,3.8,1,7.4,4.5,6.8,8.7-.2,3.6-2.9,6.2-5.3,8.5-4.4,4.3-9.9,7.2-15.4,9.8-5.4,2.4-10.9,4.5-16.7,5.5-.2-7-2.6-13.8-2.6-20.8-.2-7.3,1.4-15.3,6.8-20.6Zm-.9,9.2c-2.6,9-1.1,18.4.9,27.3,8.9-4.2,18.2-8.2,25.4-15.1,1.8-1.6,2.9-3.8,3.7-6-1.4-1.2-2.6-2.8-4.6-2.8-5.2-.8-9.6,3.5-14.9,2.7-.9-3.6-1.2-7.2-1.8-10.8,0-1.4-1.3-2-2.4-2.3-3.4.7-5.3,4-6.3,7Z" fill="#a21915"/>
  <path d="m447.4,60.8c1-3,3-6.3,6.3-7,1.1.3,2.5.9,2.4,2.3.6,3.6,1,7.2,1.8,10.8,5.3.8,9.7-3.5,14.9-2.7,2,0,3.2,1.6,4.6,2.8-.9,2.2-2,4.4-3.7,6-7.2,6.9-16.5,11-25.4,15.1-2.1-8.9-3.6-18.3-.9-27.3Z" fill="#fb5d45"/>
  <path d="m192.1,69.4c2.9-1.1,6.8.2,7,3.6-1.1,9.7-4.8,19-10.5,26.8-7.1,7.2-15.1,14.9-25.6,16.4-6.2,1.5-12.6,1.3-18.9,2.2-2.1-.9-4.4-2.8-4-5.4.4-3.2,1.6-6.2,2.5-9.2,1.7-5.1,2.8-10.6,5.9-15.1,2.8-4.8,7.6-7.8,12-11,2.7-1.8,5.3-3.8,8.4-4.5,7.7-1.6,15.5-2.5,23.2-3.7Zm-11.3,4.2c-9,1.3-18.4,3.9-25.2,10.4-9.1,7.8-12.3,20.4-12.6,31.9,11.4,0,23.3-.9,33-7.6,11.3-6.8,17.8-19.4,19.7-32.2,1.4-1,3.1-3.1,1.1-4.4-5.4,0-10.7,1.2-16.1,1.9Z" fill="#f6b282"/>
  <path d="m180.8,73.6c5.3-.7,10.7-1.8,16.1-1.9,1.9,1.3.2,3.4-1.1,4.4-1.9,12.8-8.4,25.4-19.7,32.2-9.6,6.7-21.6,7.7-33,7.6.3-11.5,3.6-24.1,12.6-31.9,6.8-6.5,16.2-9,25.2-10.4Zm-19.5,11.9c-8.2,6.2-12.8,16.3-13.4,26.4,8.9-.5,18-2.4,25.4-7.5,9.8-6.1,16.4-16.8,18.4-28.1-10.4,1.5-21.8,2.3-30.4,9.2Z" fill="#d16d1c"/>
  <path d="m161.3,85.5c8.5-6.9,19.9-7.7,30.4-9.2-2,11.3-8.6,21.9-18.4,28.1-7.4,5.1-16.6,6.9-25.4,7.5.6-10.1,5.2-20.2,13.4-26.4Zm4.6,7.6c-3,2.2-6.5,4.2-8.1,7.9,3,0,6-.8,8.4-2.6,3.6-2.5,7.7-5.5,8.4-10.2-3.4.6-6,3-8.8,4.9Z" fill="#fbb407"/>
  <path d="m354.2,76.8c5.1-1.5,10.4.5,15.5.4,8.3.1,17.6.9,23.8,7,5.3,5.3,9.8,11.9,10.7,19.5-.4,3-3.8,4.2-6.4,4.1-3.7-.1-7.4-.3-11.1-.2-8.1,0-15.7-3.1-22.5-7.1-1.9-2.4-4.3-4.3-6.4-6.5-2.1-4.4-4.1-8.9-5.7-13.4-.7-1.7.6-3.1,2-3.8Zm2,2.7c0,1.7,0,3.6.9,5.1,2.2,4.3,5,8.3,8.3,11.9,3.9,2.7,8.1,5,12.6,6.7,6.9,2.8,14.6,2.6,21.9,2.2,1.9-1.2,1.4-4.2.6-6.1-2.9-7-7.3-14.1-14.6-17.1-9.4-4.1-19.7-2.2-29.6-2.8Z" fill="#f5b086"/>
  <path d="m356.2,79.5c9.9.5,20.2-1.3,29.6,2.8,7.3,2.9,11.8,10.1,14.6,17.1.8,1.8,1.3,4.9-.6,6.1-7.3.4-15,.6-21.9-2.2-4.4-1.7-8.7-4-12.6-6.7-3.2-3.6-6.1-7.6-8.3-11.9-.9-1.5-.9-3.3-.9-5.1Zm5.5,4.7c2.4,5.8,7.7,9.8,13.1,12.7,6.9,3.4,14.8,5.6,22.4,4.4-2-4.8-5.5-8.9-9.3-12.4-7.8-4.8-17.3-5.8-26.2-4.7Z" fill="#e67b40"/>
  <path d="m361.7,84.2c8.9-1,18.4,0,26.2,4.7,3.9,3.4,7.3,7.5,9.3,12.4-7.6,1.3-15.6-1-22.4-4.4-5.4-3-10.7-6.9-13.1-12.7Z" fill="#f89355"/>
  <path d="m165.8,93.1c2.8-1.9,5.4-4.3,8.8-4.9-.7,4.7-4.8,7.7-8.4,10.2-2.4,1.8-5.4,2.5-8.4,2.6,1.5-3.6,5-5.7,8.1-7.9Z" fill="#ce7503"/>
  <path d="m781.1,96.4c5.1-1.4,10.5,0,15.8-.4,8.6-.8,15.9,4.2,23,8.2,2.9,3.4,5.5,7,8.5,10.4,3.3,5.7,5.2,12.2,6.2,18.7.7,2.8-1.9,5.7-4.7,5.7-6,.3-12,.5-18,0-4.3-.2-7.8-3.3-12-3.9-2.8-2.2-5.8-4.2-8.6-6.4-6-8.5-11.1-18-12.2-28.5.2-1.4.9-2.9,2.1-3.8Zm-.2,2c.4,7.9,3.9,15.1,7.7,21.9,3.5,6.4,9.3,11.5,16.1,14.1,8.7,3.8,18.5,3.3,27.6,1.9,0-1.4-.2-2.8-.4-4.2-2.9-10.4-7.1-21.3-16.4-27.6-9.9-7.2-22.9-7.7-34.6-6.1Z" fill="#f5b687"/>
  <path d="m780.9,98.4c11.7-1.6,24.7-1.1,34.6,6.1,9.3,6.3,13.5,17.2,16.4,27.6.3,1.4.4,2.8.4,4.2-9.2,1.5-18.9,1.9-27.6-1.9-6.8-2.6-12.6-7.7-16.1-14.1-3.8-6.7-7.3-14-7.7-21.9Zm5,3.9c1.6,10.9,8.3,21.2,18,26.7,7.3,3.9,15.8,3.9,23.8,3.7-2.5-9.3-6.9-18.8-15.1-24.3-7.8-5.3-17.5-6.8-26.7-6Z" fill="#d7731d"/>
  <path d="m785.8,102.3c9.2-.8,19,.7,26.7,6,8.2,5.6,12.5,15.1,15.1,24.3-8,.2-16.5.2-23.8-3.7-9.7-5.5-16.4-15.8-18-26.7Zm19.8,17c3.1,2.7,7.1,5.2,11.4,3.8-2.7-5.1-9.1-5.8-13.6-8.7-.3,1.9.9,3.6,2.3,4.8Z" fill="#fbb206"/>
  <path d="m805.6,119.2c-1.4-1.2-2.6-2.9-2.3-4.8,4.5,2.8,10.9,3.6,13.6,8.7-4.2,1.4-8.3-1.1-11.4-3.8Z" fill="#dd7b0b"/>
  <path d="m258.9,155.1c47.5-13.6,97.4-21.7,146.9-16.1,21.6,2.3,42.9,7.1,63.9,12.3,12.9,3.1,25.9,5.9,39.2,6.6,12.6.6,25.6,1.3,37.6-3.1,4.7-1.2,9.2-3.2,13.7-5.1,2.5-1.2,5.2-2,8-2.2-1,1.9-2.1,3.9-3.1,5.8.4.2,1.2.5,1.6.6-.5.8-1,1.7-1.5,2.6-.4-.5-1.1-1.6-1.5-2.1-5.9,2.1-11.2,5.5-17.3,7.1-14.8,5-30.7,4.5-45.9,2.1-21.5-3.8-42.2-10.7-63.6-14.6-23.6-5-47.8-7.4-71.9-7.1-30,.8-59.8,5.9-88.8,13.3-24.3,6.7-49,15.8-74.6,13-6.6-.3-13-2.5-19.7-2.6-.2,3.4-.5,7.1,1.4,10.1,3.4,5.5,9.2,9.2,15.4,10.8,4.9,1.2,10,.5,14.9.4-7.9,7.2-19,8.5-27.9,13.9,1.9,1.7,3.6,3.8,6.2,4.3,7.2,1.5,14.6.5,21.9,1-4,3.5-9,5.5-13.5,8.3,2.9,1.2,6.5,0,8.9-1.8-.3,1.1-.5,2.2-.8,3.3-1-.3-2-.8-3.1-.5.3.6.9,1.1,1.6,1.5,3.3.7,6.6,1.5,10,2.2,4.4-4.4,7.9-9.5,11.9-14.2,0,5.4-4,9.3-7.5,12.9-2.5,2.8-6.4,3.1-9.8,4.2-.2,1.2-.3,2.4-.5,3.6-10.2-2-18.7-8.5-25.6-15.9-3.6-3.8-6.2-8.4-7.6-13.4,4.2-3.1,9.6-2.9,14.4-4.1-9.9-4.4-16.5-15.3-16-26,0-2.9,1.5-6.3,4.6-7.1,2.7,0,5.3.6,8,1,23.4,4,47.3.7,70.2-4.8Z" fill="#48240b"/>
  <path d="m276.1,155.2c29-7.5,58.8-12.5,88.8-13.3,24.1-.3,48.3,2.1,71.9,7.1,21.4,3.9,42.2,10.8,63.6,14.6,15.2,2.4,31.2,2.9,45.9-2.1,6-1.7,11.4-5,17.3-7.1.4.5,1.1,1.6,1.5,2.1-.9,12.3-9.8,22.3-18.9,29.9-4.4,4.1-10.6,4.8-15.6,7.8,10.5,2.7,21.5,2.1,32.2,1.6-7.8,13.3-24,20.2-39.1,18.6-2.5-.9-4.3-3.2-6.3-4.9-12.1-10.5-25.1-20-38.8-28.3-17.2-10.4-38.4-13.7-58.1-10.4-16.7,2.7-32.5,11.9-42.3,25.8-7.8,11.4-12.7,24.8-15.1,38.4-1,5.7-2,11.5-3.1,17.2-1.8-9.5-3.6-19.1-6.2-28.4-3.4-10.6-6.8-21.5-12.9-31-7.5-12-20-20.9-33.8-24-17.7-3.3-35.9,2-51.2,10.8-10.5,6.8-19.7,15.4-27.4,25.2-4,4.7-7.6,9.8-11.9,14.2-3.4-.7-6.7-1.5-10-2.2-.7-.4-1.2-.9-1.6-1.5,1-.3,2.1.2,3.1.5.3-1.1.5-2.2.8-3.3-2.4,1.8-6,3-8.9,1.8,4.5-2.8,9.5-4.8,13.5-8.3-7.3-.4-14.7.6-21.9-1-2.6-.5-4.4-2.6-6.2-4.3,8.9-5.4,20-6.7,27.9-13.9-5,.1-10,.8-14.9-.4-6.2-1.6-12-5.3-15.4-10.8-1.9-3-1.5-6.7-1.4-10.1,6.6,0,13,2.2,19.7,2.6,25.6,2.8,50.3-6.3,74.6-13Z" fill="#ce9d67"/>
  <path d="m529.2,142.5c5.5-1.2,10.2,3.2,15.6,2.8,5.5.5,11.8-1.7,16.6,1.9-.4.9-.8,1.7-1.2,2.6-4.5,1.9-9,3.8-13.7,5.1-6.6-1.5-14.3-.7-19.4-6.1-.6-2.2,0-5,2.1-6.3Zm7.6,8.7c7,.9,15,1.4,20.9-3.2-3.8-1.7-7.9-.6-11.8-.7-5.2.2-10.3-1-15.4-1.8-1.5,3.8,3.5,5.1,6.3,5.6Z" fill="#f3ac82"/>
  <path d="m536.7,151.2c-2.8-.5-7.8-1.9-6.3-5.6,5.1.7,10.2,1.9,15.4,1.8,3.9,0,8.1-1,11.8.7-5.9,4.6-14,4.1-20.9,3.2Z" fill="#e98148"/>
  <path d="m568.1,147.5c3.2,3.4,2.4,8.3,1.7,12.5-2.3,11.4-8.4,21.9-17,29.7,4.4,0,9.1-.9,13.2.9,2.7,2.1,1.6,5.7.4,8.3-3.7,7.3-10.1,12.7-16.9,16.9-6.3,3.8-13.6,5.2-20.6,6.8,6,7.6,9.9,16.6,13.6,25.5,2.1,5.4,4.1,10.8,5.5,16.5-2,2.8-4.3,5.6-8.1,5.2-4.6-16-10.5-31.7-18.8-46.1-2.2-4.2-5.2-8-8.8-11.2-13.2-11.4-28.3-20.6-44.3-27.5-17-7.1-36.6-9.1-54.4-3.4-11.2,3.6-20.6,11.4-27.6,20.8-8.2,10.6-12.6,23.5-16.8,36.1-2.5,7.8-5.1,15.6-7,23.5-1.3,5-.6,10.5-2.8,15.3-1.6-6-2.2-12.2-3.7-18.3-2.4-9.6-3.9-19.5-7-29-2.8-9.7-5.9-19.3-11-28-5.6-10.8-15.7-19.1-27.3-22.8-13.1-4.2-27.7-3.3-40.3,2.2-15.3,7-27.9,18.6-38.9,31.1-8.8,8.6-13.3,20.2-18.1,31.3-4.9,10.3-8.7,21.1-11.5,32.1-6.6,26.2-11.5,53.4-8.2,80.5,3.5,32.8,24.9,62.3,53.4,78.3,4.9,2.5,8.9,6.7,14.1,8.6-.3.2-.8.6-1.1.9-1,0-2,0-2.9,0,1.1,1.3,2.2,2.7,3.4,4-4.9,1.3-8.8,4.6-12.6,7.7-1.9,1.4-2.5,3.9-3.2,6-3.1,12.4-6.9,24.8-7.5,37.7-.5,7.3-.4,14.7.6,22,1.4,14.6,5.1,28.9,9.4,42.9,4.9,15.1,14.8,28,25.6,39.4,12.8,13.1,29,22.6,45.9,29.4,18.7,6.6,38.2,11.5,58.2,11.3,11.3,0,22.7-.2,33.7-3,0-.8.1-2.3.2-3,1.6.6,3.2,1.2,4.9,1.8-1.2,13.4.1,26.9-.2,40.3,0,1.5-.2,3.1-.3,4.6-.7,0-2,0-2.6,0,0,3.1-.8,6.4.3,9.3,4.7,3.6,12.1,4,16.7-.2,3-2.4,3.2-6.7,1.8-10-1.4-3.5.5-7.2.3-10.8-.1-8.7,0-17.3.1-26-.2-2.2.7-5.1-1.8-6.3.2-1.8.6-3.5.9-5.3,1.7,1.7,4,1.1,6.1.7,19.2-3.9,37.5-13,51.5-26.8-7-6-13.2-12.9-20.1-19v1.3c-4,1.8-8.2-.8-10.4-4.2,2.7-1.4,5.7-.5,8.5.2-5.8-8.3-12.6-16.1-16.9-25.3-1,1.9-2,3.8-3.3,5.6-2.8,1.5-6.1,2.4-9.3,1.7-6.2-1.2-11.9-4.5-16.2-9.1,0,2.8,0,5.6,0,8.4-.9,6.8-4.1,14.6-11.3,16.6-10.6,3.1-21.8-3.6-26.8-12.9-1.2,6.3-3.9,13.1-9.7,16.4-5.3,3.1-12.2,1.4-16.7-2.3-3.4-2.7-5.4-6.6-7.1-10.5-2,4.8-5.5,9.8-11.1,10.5-7.7,1.2-14-4.9-17.5-11.1-1,7.6-5.7,14.9-12.9,18-4.9,2.4-11,2.1-15.5-1-5.2-4-8.8-10.1-9.5-16.6-2.5,3.2-5.6,6-9.3,7.9-8.9-.6-14.9-8.4-19-15.5-2.2-4.7-5.6-10.9-1.6-15.5,3.9,8.5,8.1,17.7,16.4,22.7,4.1,2.3,7.9-2.1,10-5.2,2.1-2.5,2.5-7.1,6.3-7.5.7,5.6.1,11.5,2.8,16.7,2.1,4.4,5.4,9.3,10.8,10,6.5.3,12.5-4.3,15.5-9.9,3-5.5,2.3-12.1,3.9-18,2.9,2.5,3.5,6.4,5.2,9.7,1.9,4,5,7.8,9.3,9.3,3.5,1.2,6.5-1.5,8.6-3.9,3.8-4.2,4.1-10.2,7.4-14.7,2.5,3.5,2.3,8,4.2,11.7,2.3,5.1,6.8,10.1,12.7,10.5,5.2.4,8.7-4.3,11-8.3,3.3-5.6,3-12.5,5.4-18.5,1.7,6.3,3.3,13.2,8.4,17.8,4.3,4.3,11.1,6.6,17,4.4,4.6-2.2,7.7-6.9,8.9-11.8.8-5,0-10.2,0-15.2,1.2-.8,2.5-1.5,3.7-2.3,4.3,6.5,10.6,12.7,18.8,13.5,3,.4,5.1-2,7-3.9-4.2-7.3-7.4-15.1-10.1-23-2.4-6.9-3.4-14.1-5.6-21-1.7,5.7-4.1,11.5-8.8,15.5-4.7,4-11.6,6-17.4,3.4-5.6-2.4-9.1-7.7-11.7-13-3.6,10.5-16.7,16.5-26.8,11.6-10.1-5.5-16.4-16.1-19.5-26.8-1.9,9.4-3.9,19.1-9.2,27.2-4.3,7.2-12.2,13-21,12.3-7.1-.7-12.6-6.4-14.9-12.9-2.4,4.7-7.1,7.7-12.1,8.9-4.9,1.1-10-1.3-13.2-4.9-5.5-6.5-6.9-15.7-5.4-23.9.5,0,1.6,0,2.2,0,1.6,6.8,1.4,14.9,7.3,19.8,4.5,4.6,13,3.2,16.3-2.2,2.7-4.2,2.7-9.3,4.1-13.9,0-1.4,2.5-1.4,2.3.2.9,5.5.8,11.5,3.9,16.4,2.3,3.6,5.9,7.2,10.6,6.8,7.3-.4,13.2-5.6,17-11.5,4.7-7.5,7.5-16.2,9.1-24.9.2-2,1.3-3.6,2.9-4.7,4,6.9,6.9,14.5,12.2,20.5,4.2,4.9,10,9.5,16.9,8.9,6.1-.7,11.8-5.1,13.6-11,1.1-3.3,1.3-6.9,3.2-9.9,2.5,7.2,5.7,14.6,11.8,19.6,4.1,3.4,10.6,3.3,14.6-.3,6.6-5.4,8.5-14.4,8.4-22.6,1.6,1,3.1,2.2,4.5,3.6,0-12.7.7-25.7,5-37.8.4,1.4.9,2.8,1.4,4.2.5-.9,1-1.8,1.6-2.7.4.3,1.2,1,1.6,1.3-5.6,19.5-4.1,40.7,2.5,59.7,4.6,14.7,12.6,28,21.6,40.3,8.4,10.5,17.4,20.8,28.5,28.5,9.9,7,20.3,13.5,31.1,19,6.4,3.1,13,5.8,20.1,7.1-.8-2.5-.7-5.7-2.4-7.8-7.7-3.9-16.2-6.1-23.9-10.1-8.5-4.1-15.7-10.2-22.7-16.4-3-2.8-6.6-5.6-7.5-9.9,4.2,2.4,7.8,5.8,11.8,8.6,6,4.5,12.7,8.1,19.3,11.6,9.3,5,19.4,8.9,30,10.1,2.6.4,5-.6,7.1-2-3.9-2-8.2-3-12.4-4.2,1.8-.3,3.6-.7,5.4-1.1-1.7-.8-3.4-1.5-5-2.3,1.5-.6,3.1-1.2,4.7-1.8-2.5-.7-4.8-1.7-7-3.1,2.6.4,5.4.4,8,.1.1-3.4-1.4-6.9-4.5-8.6,0-.4,0-1.3,0-1.7-.7-.7-1.3-1.4-2-2.1.4-.5,1.3-1.4,1.7-1.9.8.3,2.5.8,3.3,1.1.6-3.1,1.1-6.2,1.7-9.4.4-1.8.8-3.6,1.1-5.4.5-3.7.9-7.5,1-11.2-.6-.1-1.9-.4-2.5-.5.8-.7,1.5-1.4,2.3-2.1-1.6-1.2-3.2-2.4-4.9-3.6,1.9.3,3.9.6,5.8.8,1.2-11.9,2-23.9.7-35.8-.2-1.4-.5-2.9-.6-4.3-.2-3.2-.2-6.3-.5-9.5,3.6-4.9,1.1-10.7,0-15.9-.5-3.6-4.1-5.5-5.5-8.7-3.5-13.8-11.7-27.3-24.6-34.2-2.8-1.7-6.1-2-9.3-2.3.8,1.5,1.5,3,2.4,4.4-.6.3-1.9,1-2.5,1.3-.9-1.5-1.9-2.9-2.9-4.3-1.5,3.3-2.4,6.8-4.2,9.9-1.6,1.2-3.8.4-5.6.4,2.3-3.1,7.3-5.4,6.4-9.8-1.9-2.4-3.5-4.9-3.9-8-.5-1.4-1.1-2.6-1.8-3.8,5.8-2.8,10.2-7.5,14.9-11.7,7.1-6.5,13.1-14,18.7-21.7-1-.9-2-1.9-3.1-2.8,4.4.8,7,4.7,10.1,7.5-.2.4-.5,1.3-.7,1.7-3.3,5.4-8,9.7-12.2,14.3-4.7,5-9.9,9.2-15.2,13.5,11.5,2.9,21.4,10.6,28.2,20.2,3.6,5,6,10.6,8.4,16.3-1.5-13.1-.4-26.4,1.6-39.4,1.3.6,2.6,1.1,3.9,1.7,0-1.6-.1-3.2-.1-4.8.7.6,1.4,1.1,2.1,1.7-1,1.9-1.6,4-1.7,6.2-1,14-1.5,28.1-.2,42.1,1.4,13.4,4.4,26.5,5.4,39.9,1,17.4.5,34.9-2.1,52.1-1,6.3-1.7,12.7-3.8,18.8,1.7,1.7,3.3,3.7,3.5,6.2.5,2.3-1.6,4-2.8,5.7,3.6,2,7.1,4.9,7.9,9.2.6,2.8-.7,5.7-3,7.3-3.3,2.4-7.6,3-11.5,3.2,1.5,2.2,3.6,4.5,3.4,7.4,0,2.7-1.4,5.9-4.3,6.2-7.3.9-14.3-2-20.9-4.6-8-3.1-15.3-7.6-22.5-12.3-2.6-1.7-5.1-3.6-7.3-5.8-1.6,2-3.7,3.6-5.8,5.1-16.4,12.9-35.5,22.7-55.8,27.4-.1,11.4.4,22.7.2,34.1-.3,1.6,1.4,2.3,2.1,3.5,1.1,3.5,1.2,7.4-.5,10.8-1.3,2.6-3.5,4.7-5.6,6.8.1.4.3,1.3.5,1.8-.2.6-.5,1.8-.7,2.4-.7-1.6-1.4-3.3-2.1-4.9-1.6,2.4-3.5,4.6-5.8,6.4-.4-.1-1.3-.3-1.8-.4-1.6,2.2-2.8,4.7-4,7.1-1,1.6-3.3,1-4.7.3-2.2-3.7-1.5-8.3-.7-12.3-2.2-1.3-5-2.5-5.6-5.3-1.1-4.3-.9-9.1,1.2-13,.4-.3,1.3-.8,1.7-1.1-.5-10.8-.2-21.5,0-32.3-20.7,3.4-41.9,3.1-62.5-.4.1,7.2.4,14.5.4,21.7,0,2.8-.7,5.7,0,8.5,0,.6-.2,1.8-.2,2.4-2-.9-4-1.9-6-2.9,3.3-3.9,2.4-9.2,2.5-13.9,0-5.4.4-10.8-.6-16.2-.5-.2-1.5-.5-2-.6-3.7-1.1-7.5-2.1-11.2-3.3-1.2,10.6-.6,21.3-.4,31.9-.2,1.4-.3,2.7-.5,4.1-2.5.4-4.3-1.1-5.9-2.8.1-11.5-.4-22.9,1.1-34.3-12.9-4.7-25.7-10.3-37.1-18.1-17.2-11.5-32.1-26.9-41.4-45.5-1.5,1.5-2.8,3.5-5,3.8-3.3.7-5.6-2.4-7.4-4.7-9.9-14-16.6-30.3-18.7-47.3-3-21.5.5-43.8,9.4-63.6,5.1-9.4,11.8-18.7,21.5-23.8-5.4-2.8-9.9-7.1-14.7-10.7-17-13-30.2-30.8-38.5-50.5-7.3-18.1-8.9-38-7.3-57.4,2.1-27.9,7.6-55.7,18-81.6,2.4-6.4,5.9-12.4,7.9-18.9.2-1.2.3-2.4.5-3.6,3.3-1.2,7.3-1.4,9.8-4.2,3.5-3.6,7.5-7.5,7.5-12.9,7.8-9.7,17-18.4,27.4-25.2,15.3-8.8,33.5-14.1,51.2-10.8,13.8,3.1,26.3,12,33.8,24,6.1,9.5,9.4,20.4,12.9,31,2.6,9.3,4.4,18.9,6.2,28.4,1.1-5.8,2-11.5,3.1-17.2,2.4-13.6,7.2-26.9,15.1-38.4,9.8-14,25.5-23.1,42.3-25.8,19.8-3.3,40.9,0,58.1,10.4,13.7,8.3,26.7,17.8,38.8,28.3,2,1.7,3.8,4,6.3,4.9,15,1.6,31.3-5.3,39.1-18.6-10.7.5-21.8,1.1-32.2-1.6,5-3,11.2-3.7,15.6-7.8,9.1-7.5,18-17.5,18.9-29.9.5-.9,1-1.7,1.5-2.6-.4-.2-1.2-.5-1.6-.6,1-1.9,2.1-3.8,3.1-5.8ZM252.2,447c-.9,1.9-1.7,3.7-2.4,5.6,1.4-1.4,2.9-2.7,4.1-4.2-.5-.6-1-1.1-1.7-1.5Zm-22.3,28.1c-7.4,15.8-9.2,33.7-7.7,51,2.3-3.9,6.8-7,6.6-12,.8-9.6,1.1-19.4,3.3-28.9,1.5-7.9,4.6-15.4,5.8-23.4-3.7,3.7-5.8,8.6-8,13.3Zm-6.9,54c.5,3.9,1.1,7.9,2.3,11.7,1.6-.7,3.1-1.4,4.7-2,.1,3-.7,6.3,1,8.9,1.8,2.8,3.9,5.4,5.6,8.3-.8-3.3-1.6-6.6-2.8-9.8-3.3-7.9-4.1-16.5-5.3-24.9-1.7,2.7-3.7,5.3-5.6,7.9Zm3.9,18.8c.1,1.5.2,3,.7,4.4,2.8,7.3,5.4,14.9,10.8,20.8-.5-3.7-1.5-7.3-2.3-11-2.3-5.2-6.9-9-9.2-14.2Z" fill="#462810"/>
  <path d="m644.7,175.2c.9-5.5,6.7-10.3,12.3-8.4,5,2.2,6.2,8.4,5.3,13.3-1,8.8-5.9,16.4-8.4,24.8-4.6-1.9-8.5-5.1-12.3-8.1,1-1,2.1-1.9,3.1-2.9,2,1.9,4.1,3.6,6.2,5.4,3.1-6.4,6.3-13,7.4-20.1.6-3.2-.6-6.6-3.2-8.5-4-.6-5.1,4.4-7,6.9-1,2.2-3.6,2.3-5.6,3-2.4-3.1-4.6-6.4-7.4-9.1-.9.1-2.7.4-3.6.6-1.1-.6-2.3-1.2-3.4-1.8,2.8-2.2,6.8-3.3,10.1-1.5,3.2,1.1,4,4.7,6.5,6.6Z" fill="#a61f17"/>
  <path d="m625.6,178c-1.5-2.9.6-5.7,2.5-7.9,1.1.6,2.3,1.2,3.4,1.8-.4,1.6-1.2,3.4-.5,5.1,2.7,6.9,8.5,11.9,13.7,16.9-1.1.9-2.1,1.9-3.1,2.9-6.6-5-12.4-11.3-16-18.8Z" fill="#b4221c"/>
  <path d="m648.1,177.4c1.9-2.5,3-7.5,7-6.9,2.6,1.9,3.8,5.4,3.2,8.5-1,7.1-4.2,13.7-7.4,20.1-2.1-1.7-4.2-3.5-6.2-5.4-5.2-5-11.1-9.9-13.7-16.9-.8-1.7.1-3.4.5-5.1.9-.1,2.7-.4,3.6-.6,2.8,2.7,5,6,7.4,9.1,2-.7,4.6-.8,5.6-3Z" fill="#fc5d47"/>
  <path d="m270.2,181.5c12.6-5.5,27.2-6.5,40.3-2.2,11.6,3.6,21.7,11.9,27.3,22.8,5.1,8.7,8.2,18.4,11,28,3.1,9.5,4.6,19.4,7,29,1.5,6,2.1,12.3,3.7,18.3,2.1-4.8,1.4-10.3,2.8-15.3,1.9-8,4.6-15.7,7-23.5,4.1-12.6,8.5-25.5,16.8-36.1,7-9.4,16.4-17.2,27.6-20.8,17.8-5.6,37.3-3.7,54.4,3.4,16,6.9,31,16.2,44.3,27.5,3.6,3.1,6.6,6.9,8.8,11.2,8.3,14.5,14.2,30.1,18.8,46.1v.6c-7.1,8.4-15.3,16.1-20.6,25.9-.7,1.3-1.3,2.6-1.9,3.9-1-8.3-4.9-15.9-8.5-23.3-1.8-3.8-4.8-6.9-6.9-10.6,3.9,0,7.9.2,11.9-.4,2.1-.4,4.5-1.6,4.7-4-1.8-4.1-5.8-6.3-9.5-8.5-1.9-1.1-3.8-2.3-5.7-3.4,1.8-1.6,4.1-2.9,4.9-5.3.7-2.6-2-4.9-4.4-5-2.5-.5-5,.5-7.2,1.6.7-2.5,1.4-5,1.3-7.6-.8-.8-1.8-1.4-2.7-2-5.2-.3-9.8,2.6-14.6,4.3-.2-2.2-.4-4.4-.6-6.5-.2-1.6-.3-3.1-.4-4.6-1.9.3-4.2-.3-5.7,1.3-3.4,3.2-4,8.1-6.1,12-1.9,2.5-5.1.9-7.5.3-7-2.3-14.3-3.4-21.6-3.3-7.3,1-14.6,2.3-22,3,.7.3,2.2.9,2.9,1.2-4.1,1.9-8.5,3.4-11.6,6.8-4.5,4.9-9.4,9.4-13.5,14.6-3.8,3.3-5.2,8.5-9.2,11.6.4,2.1,1.4,4.3.2,6.3-2,4.3-2.9,8.9-3.3,13.6-.3.1-.8.4-1.1.5.2,5.1.3,10.2.4,15.2,0,4.5,1.2,9,0,13.4-1.3-1.4-2.6-3.1-4.8-2.9-5.6-7.5-10.4-15.6-17.2-22.2-5.7,4.3-10.5,9.7-15.2,15.1-2.2,2.4-3.8,5.2-4.9,8.2-.6.2-1.7.7-2.3.9,1.9-19.7,1.6-40.9-8.8-58.5-7.9-13.5-22.9-22.9-38.6-23.7-8.9-.5-18.1.3-26.4,4,0-6.4-1.8-13.6-7.4-17.4-1,1-1.8,2.2-2.6,3.4-1,2.5-1.5,5.2-2.2,7.8-3.4-1.9-7.3-3.6-11.3-3.4-1.5,0-2.3,1.8-2.8,3-.2,1.4-.2,2.8-.3,4.3-1.8-.3-3.7-.8-5.5-.6-2,.3-3.1,2.1-4.2,3.6,2.2,1.5,4.4,2.9,6.7,4.3-5,2.1-11.2,4.3-12.3,10.4,5.2,1.8,10.7,2.4,16.2,2.7-1,1.1-1.9,2.1-2.9,3.2-5.6,6.5-9.1,14.5-12.1,22.4-5.5,14.6-6.2,31.2-.9,46,4.6,13,12.5,25,23.5,33.5,11.7,9.5,27.5,14,42.4,10.9,13.4-2.3,26-9.5,34.1-20.4,6-7.3,9.4-16.2,13-24.8.8-2.4,1.4-4.8,2-7.3.7-.9,1.4-1.7,2.1-2.5,3.3,14.2,6.4,28.6,10.9,42.5,2.5,8.4,4.7,16.9,7.5,25.1,1.9.4,4.4,1.1,5.7-.8,3.4-5,5.2-10.9,7.6-16.3,4.8-11.9,10.4-23.5,13.7-35.9.4.3,1.1.9,1.5,1.1.3-2.9.8-5.8,1.5-8.6,4.6,13.4,13.1,25.1,23,35,14.6,14.5,36.5,20.3,56.6,16.9,15.5-2.4,29-12.8,37.2-25.9.8,5.9,3,11.5,5.7,16.9,3.4,7.3,8.9,13.4,13.6,19.9-.4.6-1.3,1.7-1.7,2.2-4.8,8.2-8.8,17.1-15.3,24.2-5,5.4-10.5,10.4-16.8,14.1-1.9,1-3.3,2.6-4.2,4.5-10.8.8-21.3,4.1-30.7,9.6-12.7-3-26-3.3-39-2.3-12.6,1.4-25.5,3.5-36.9,9.4-9.8,4.4-18.6,10.7-27.3,17-7.2-5.5-14-11.6-22.1-15.8-20.3-11.7-44.6-13.4-67.4-11.6-.4-.2-1.1-.6-1.4-.8.1-.4.4-1.3.5-1.7-1.8-2.7-4.6-4.5-7.1-6.4-6.7-4.8-12.9-10.2-18.8-16-7.5-7.5-12.7-16.7-18.1-25.7-3.6-6.3-7.6-12.4-9.8-19.3-3.3-9.9-5-20.2-5.8-30.6-1.4-18.9,5.9-37.1,6.2-55.9,1-9.7,3.4-19.2,6.6-28.4,1.4-3.8,1.1-7.9.9-11.9-.5-.5-1.5-1.5-1.9-2,4.8-11.1,9.4-22.7,18.1-31.3,11-12.5,23.6-24.1,38.9-31.1Zm190.4,16.8c4,1.6,8.1,3,11.6,5.5,3.5,2,6.1,5.2,9.8,7.1.6-1.7,1.8-3.8.2-5.3-3.3-3.5-7.5-6-11.7-8.3-3-1.4-6.3-3-9.7-3-2,.1-2.3,3.6-.2,4Zm-213.7,13c-1.8,1.4.1,3.1.8,4.5,6.1-6.1,13.7-10.2,21.4-13.8-.8-1.5-2.4-2.9-4.2-2.2-7,1.8-13.2,6.3-18,11.6Zm166.8,176.9c2.1,3.2,6.3,2.9,9.6,2.3,1.2-.9,2.1-2.1,3.1-3.2.4-4.6-3-9.1-7.6-9.6-5.2-.4-9.2,6.7-5.1,10.5Zm-148.4-5.8c0,2.1,0,4.2,0,6.3,2.8,3.8,8.3,4.8,12.1,1.8,2.1-1.1,1.8-3.6,2.2-5.6-1.8-1.9-3.5-4.1-5.9-5.3-3.1-.7-6.2.6-8.4,2.7Zm-22.3,6.8c-3.2.9-6.8,4.2-4.9,7.8,2.5,6.1,12.4,6,15.1,0,.3-2,.4-4.1-.2-6-2.3-2.9-6.7-2.9-10-1.9Zm226.9,8.9c-2.1,1.9-1.5,4.8-1.5,7.3,3.1,3.5,8.2,4.5,12.5,2.7,2.7-1.3,2.7-4.6,3.5-7.1-2.2-5.6-10.2-6.6-14.5-2.9Z" fill="#f4d294"/>
  <path d="m460.6,198.2c-2-.4-1.7-3.9.2-4,3.4,0,6.6,1.6,9.7,3,4.2,2.2,8.4,4.8,11.7,8.3,1.6,1.5.4,3.7-.2,5.3-3.6-1.8-6.3-5.1-9.8-7.1-3.5-2.5-7.6-3.9-11.6-5.5Z" fill="#4f2d0e"/>
  <path d="m246.9,211.2c4.8-5.3,11-9.8,18-11.6,1.8-.6,3.4.7,4.2,2.2-7.7,3.7-15.3,7.7-21.4,13.8-.7-1.4-2.6-3.1-.8-4.5Z" fill="#4b2c0f"/>
  <path d="m42.8,203.1c1-.5,2.2-.5,3.2-.8,2.9,5.8,5,12.1,4.6,18.7.9,9.6-2.6,19.6-9.7,26.1-2.3,2-4.4,4.6-7.4,5.4-5.5,1-10.3,4.4-15.9,5-2.9-2.1-3.4-5.8-4.2-9-.8-10.5,3.4-20.9,9.6-29.3,5.4-6.7,12.2-12.2,19.8-16.2Zm-1.4,5.6c-6.7,5.6-13.8,11.1-18.3,18.8-1.1,2.2-2.1,4.4-3.1,6.6l.6-.4c-.2.7-.6,2-.8,2.7l1.2-.3c-1.2.9-1.8,2.4-2.1,3.9-1,4.9-.9,10-.8,15,3-.7,6-1.4,8.6-3,6.8-4,13.4-9.1,16.7-16.5,4.8-8.6,3.8-19.2.8-28.3-.9.5-1.9.9-2.8,1.6Z" fill="#d26d1b"/>
  <path d="m41.4,208.7c.9-.6,1.9-1.1,2.8-1.6,3,9.1,4,19.7-.8,28.3-3.3,7.4-9.9,12.5-16.7,16.5-2.6,1.6-5.7,2.3-8.6,3,0-5-.2-10.1.8-15,.3-1.5.8-3,2.1-3.9,6.2-1.5,11.2-5.9,15.7-10.3.9-.7.8-1.8.8-2.8-.4-.2-1.2-.5-1.6-.7-4.2,1.8-7.6,7-12.7,5.3,4.5-7.7,11.7-13.1,18.3-18.8Zm-12.7,27.3c.2,1.4-.4,3.5,1.7,3.6,2.9.7,5-2.4,6-4.7-2.6-.1-5.2.5-7.7,1.1Z" fill="#f9b407"/>
  <path d="m784.8,223.1c2.2-2.9,5.6-6.4,9.6-4.5,4.1,2.9,4.1,8.5,4.9,12.9,2.5-.5,5-1.1,7.6-.4,5.8,1.1,9.6,6.1,12.5,10.8.4,1.6-1.4,2.4-2.2,3.4-11.6,9.6-26.7,13.8-41.6,13.9.2-12.5,1.6-25.8,9.4-36.2Zm4.1,1.1c-6.6,9-8.8,20.3-9.1,31.2,12.4-2.1,25.3-5.6,34.8-14.3-2-2.2-4-4.9-7.1-5.6-4-.8-8-.1-11.9.9-.3-4.9-.5-10.5-4.2-14.3-.9.7-1.9,1.3-2.6,2.2Z" fill="#9f1b17"/>
  <path d="m581.8,219.1c1.5,0,3.2-.6,4.6.3,3.8,3.7,5.1,9.3,9,12.9,2.6,2.4,5.2,4.8,8.2,6.9,2.7,1.8,6.8,2.6,7.3,6.5l-.5-.2c-7.5-3.8-14.9-8.3-20.1-14.9-2.8-3.5-4.4-7.9-8-10.8,0,2.2,0,4.5.4,6.7-2.6-1.6-1.2-4.9-1-7.3Z" fill="#efa880"/>
  <path d="m582.4,219.7c3.6,2.9,5.2,7.2,8,10.8,5.2,6.7,12.6,11.2,20.1,14.9-1.3,1-2.8,2.4-4.5,1.4-10.1-3.3-18.7-10.8-23.2-20.4-.4-2.2-.5-4.4-.4-6.7Z" fill="#cb6932"/>
  <path d="m23.1,227.5c5.1,1.7,8.5-3.5,12.7-5.3.4.2,1.2.6,1.6.7-5.5,3.8-11.1,7.3-16.8,10.8l-.6.4c.9-2.2,1.9-4.5,3.1-6.6Z" fill="#f0a425"/>
  <path d="m789,224.2c.7-.9,1.7-1.5,2.6-2.2,3.6,3.8,3.9,9.4,4.2,14.3,3.9-1,7.9-1.7,11.9-.9,3.1.7,5.1,3.4,7.1,5.6-9.5,8.7-22.4,12.2-34.8,14.3.3-10.9,2.5-22.2,9.1-31.2Z" fill="#fb5d43"/>
  <path d="m20.7,233.7c5.7-3.5,11.3-7,16.8-10.8,0,1,.1,2.1-.8,2.8-4.4,4.4-9.4,8.8-15.7,10.3l-1.2.3c.2-.7.6-2,.8-2.7Z" fill="#af5c04"/>
  <path d="m256,225c5.6,3.8,7.4,11,7.4,17.4,8.2-3.7,17.5-4.5,26.4-4,15.7.8,30.6,10.2,38.6,23.7-3.1-.6-4.6-3.5-6.3-5.8-.6.3-1.1.6-1.7.9.2.4.7,1.3.9,1.7-.4.4-1.1,1.2-1.4,1.6-9-10.6-23.2-16.7-37.1-16-11.4.3-22.8,4.4-31.5,11.9-14.3,11.9-23.2,29.9-23.3,48.6-.7,13.1,1.9,26.6,9.3,37.7,6.7,10.2,16.2,19.1,28,22.8,15.9,4.7,34.1.5,46.3-10.7,4.1-3.5,7.5-7.9,10.4-12.4,1.4-.6,3-1.1,3.7-2.6,2.2-3.5,3.6-7.5,4.8-11.5.7.4,1.3.8,2,1.3.8.6,1.5,1.1,2.3,1.7-3.6,8.6-7,17.5-13,24.8-8.1,11-20.7,18.2-34.1,20.4-14.9,3-30.7-1.4-42.4-10.9-11-8.5-18.8-20.5-23.5-33.5-5.2-14.8-4.6-31.4.9-46,3-7.9,6.4-15.9,12.1-22.4.4.5,1.3,1.5,1.8,2,2.9-3.2,6.3-5.9,9.2-9.2,1.8-2.1,4.5-3,6.9-4.2,3.2-1.6,5.8-4.2,8.4-6.7-2.5-2.6-3.6-5.9-3.7-9.4,0-3.2-2.1-5.6-4.1-7.8.8-1.2,1.6-2.3,2.6-3.4Z" fill="#442a16"/>
  <path d="m474.1,226.3c1.5-1.5,3.8-1,5.7-1.3.1,1.5.3,3.1.4,4.6-.3-.4-.8-1.1-1-1.5-.3-.4-.9-1.3-1.2-1.7-1.6.3-3.1,1.2-4,2.6-3,4.3-4.2,9.5-5,14.6-12.9-6.1-28-7.9-42-4.5-10.1,2.4-18.3,9.3-25.4,16.6-6.7,7.2-12.4,15.6-14.9,25.2-4.1,15.5-4.4,32.3.6,47.6-.7,2.8-1.2,5.7-1.5,8.6-.4-.3-1.1-.9-1.5-1.1,1.3-6.8-4.3-12-7.4-17.4,2.1-.1,3.4,1.6,4.8,2.9,1.1-4.4,0-8.9,0-13.4-.1-5.1-.2-10.2-.4-15.2.3-.1.9-.4,1.1-.5.3-4.7,1.3-9.3,3.3-13.6,1.1-2,.2-4.2-.2-6.3,4-3.1,5.4-8.3,9.2-11.6,4.1-5.2,9-9.7,13.5-14.6,3.1-3.4,7.5-4.9,11.6-6.8-.7-.3-2.1-.9-2.9-1.2,7.4-.7,14.7-2,22-3,7.3,0,14.6,1,21.6,3.3,2.4.5,5.7,2.1,7.5-.3,2.2-3.9,2.8-8.8,6.1-12Z" fill="#f3d8ab"/>
  <path d="m473.9,229.1c.9-1.4,2.4-2.3,4-2.6-.7,2.4-1.6,4.7-3.4,6.5,1.5,5.1-2.6,9.6-4.4,14,7.9,5.5,17.1,10,22.5,18.3.5-.5,1-1.1,1.6-1.6,1.1,1.9,2.2,3.8,3.4,5.7.3-1.1.6-2.2.9-3.3.9-.2,1.9-.4,2.8-.6l.6,1c2.1,3.7,5,6.8,6.9,10.6,3.6,7.4,7.5,15,8.5,23.3-.6,2.9-1.4,5.8-3.3,8.1-2.8,3.3-3.5,7.6-4.6,11.6-2,7.9-4,15.9-3.8,24.1-.1,3.5.8,7.5-1.6,10.5-8.2,13.1-21.6,23.5-37.2,25.9-20.1,3.4-42-2.4-56.6-16.9-9.9-9.9-18.4-21.6-23-35-5-15.3-4.7-32.1-.6-47.6,2.4-9.6,8.2-18,14.9-25.2,7.1-7.3,15.3-14.2,25.4-16.6,13.9-3.4,29.1-1.6,42,4.5.8-5.1,1.9-10.3,5-14.6Zm-38.7,17.7c-17,3-31.6,15.6-38.1,31.4-7.4,16.6-7.4,36.2-.5,52.9,5.8,14.6,17.1,26.9,31,34.1,13.5,6.7,29.8,8.8,44.1,3.4,15.2-5.4,26.6-18.9,31.8-33.9,4.2-12.8,4.9-26.7,1.9-39.8-3.6-16.8-14.7-31.5-29.1-40.6-12.2-7.4-27.2-9.5-41.2-7.6Z" fill="#432916"/>
  <path d="m477.9,226.4c.3.4.9,1.3,1.2,1.7-.9,3-1.5,7.2.9,9.6,5.6.4,11.9-1,15.3-5.8,1,.6,1.9,1.2,2.7,2,.1,2.6-.6,5.1-1.3,7.6,2.2-1,4.7-2.1,7.2-1.6,2.4,0,5.1,2.3,4.4,5-.8,2.4-3.1,3.8-4.9,5.3,1.9,1.1,3.8,2.3,5.7,3.4.6,2.3,2.6,3.7,4.4,5.1l-1.2,1c1.6.6,3.3,1.1,4.9,1.7-1.3,1-2.6,2.5-4.4,2.3-3.9,0-7.7.7-11.4,1.7-1,.2-1.9.4-2.8.6-.3,1.1-.6,2.2-.9,3.3-1.2-1.9-2.3-3.8-3.4-5.7-.5.5-1.1,1.1-1.6,1.6-5.4-8.3-14.6-12.8-22.5-18.3,1.9-4.4,5.9-8.9,4.4-14,1.7-1.8,2.6-4.2,3.4-6.5Z" fill="#56341d"/>
  <path d="m251.2,236.2c.7-2.6,1.2-5.3,2.2-7.8,2,2.2,4.1,4.6,4.1,7.8.1,3.5,1.3,6.8,3.7,9.4-2.6,2.4-5.2,5-8.4,6.7-2.4,1.3-5.1,2.1-6.9,4.2-2.9,3.2-6.4,5.9-9.2,9.2-.4-.5-1.3-1.5-1.8-2,.9-1.1,1.9-2.1,2.9-3.2-5.5-.2-11-.9-16.2-2.7,1.1-6.1,7.3-8.3,12.3-10.4-2.3-1.4-4.6-2.8-6.7-4.3,1.1-1.5,2.2-3.3,4.2-3.6,1.9-.2,3.7.3,5.5.6,0-1.4.2-2.9.3-4.3.3,1.4.6,2.9.9,4.3.4-1.7.8-3.4,1.2-5.1,3.8.8,7.6,1.9,11.5,2.6.1-.3.4-1.1.5-1.4Z" fill="#53341c"/>
  <path d="m479.1,228.1c.3.4.8,1.2,1,1.5.2,2.2.4,4.3.6,6.5,4.8-1.7,9.4-4.6,14.6-4.3-3.4,4.8-9.8,6.3-15.3,5.8-2.4-2.3-1.9-6.6-.9-9.6Z" fill="#45270a"/>
  <path d="m237.1,235.8c.5-1.2,1.2-2.9,2.8-3,4-.2,7.9,1.5,11.3,3.4-.1.4-.4,1.1-.5,1.4-3.9-.8-7.6-1.8-11.5-2.6-.4,1.7-.8,3.4-1.2,5.1-.3-1.4-.6-2.9-.9-4.3Z" fill="#46290d"/>
  <path d="m28.7,236c2.5-.7,5.1-1.2,7.7-1.1-1,2.3-3.1,5.4-6,4.7-2,0-1.5-2.2-1.7-3.6Z" fill="#c3750d"/>
  <path d="m145,235.4c6.7,0,13.8.4,19.9,3.5,2.4,1.2,5.1,1.9,6.8,4.1,2.4,2.9,5.6,5.3,7.4,8.7,3.8,7.8,6.4,16.3,7.2,25-.2,2.2-1.1,4.6-3.1,5.8-9.1,1.5-18.6.3-26.7-4.3-4.8-3.6-7.5-9.2-10.7-14.2-2.3-6.4-1.7-13.4-2.9-20-.3-2.9-1.1-7,2-8.6Zm0,2.7c-.1,7.4-.2,14.9,2.3,22,2.5,6.6,6.2,13.2,12.6,16.7,7.4,3.9,16.4,5.3,24.5,3-.2-14.6-5.9-30.4-19.1-38-6.3-2.9-13.3-5.2-20.2-3.7Z" fill="#f8b783"/>
  <path d="m145.1,238.1c6.9-1.5,14,.8,20.2,3.7,13.2,7.6,18.9,23.4,19.1,38-8.1,2.3-17.1.9-24.5-3-6.4-3.5-10.1-10.1-12.6-16.7-2.5-7-2.4-14.6-2.3-22Zm4,4.2c0,8.6,1.8,17.5,6.7,24.7,5.1,7.4,14.9,11.5,23.7,8.6.2-7.8-3.6-15.1-7.8-21.4-4.8-7.6-13.7-12-22.6-11.8Z" fill="#d87320"/>
  <path d="m149.1,242.3c8.9-.1,17.8,4.2,22.6,11.8,4.1,6.4,8,13.6,7.8,21.4-8.7,2.9-18.6-1.2-23.7-8.6-4.9-7.1-6.6-16.1-6.7-24.7Zm11.8,11.7c-1,5.6,2.7,10.6,7.1,13.6,2.1-5.6-2.2-11.3-7.1-13.6Z" fill="#fab507"/>
  <path d="m201.8,276c2.8-11.1,6.5-21.9,11.5-32.1.5.5,1.5,1.5,1.9,2,.2,4,.6,8.1-.9,11.9-3.3,9.2-5.7,18.7-6.6,28.4-.3,18.8-7.6,37-6.2,55.9.8,10.4,2.5,20.7,5.8,30.6,2.3,6.9,6.3,13.1,9.8,19.3,5.4,9,10.7,18.2,18.1,25.7,5.9,5.8,12.1,11.2,18.8,16,2.5,1.9,5.2,3.8,7.1,6.4-.1.4-.4,1.3-.5,1.7.3.2,1.1.6,1.4.8-.2.2-.7.5-1,.7-5.2-1.9-9.2-6-14.1-8.6-28.5-16-49.9-45.5-53.4-78.3-3.3-27.1,1.6-54.3,8.2-80.5Z" fill="#c9aa7d"/>
  <path d="m251.3,256.5c8.7-7.4,20.1-11.6,31.5-11.9,13.9-.7,28.1,5.4,37.1,16,1,1.3,2.1,2.6,3.1,3.9,14.5,23.4,12.7,54.4-1,77.8-2.9,4.6-6.3,8.9-10.4,12.4-12.2,11.2-30.4,15.4-46.3,10.7-11.8-3.7-21.3-12.6-28-22.8-7.3-11-10-24.6-9.3-37.7.1-18.6,9.1-36.7,23.3-48.6Zm18.2-1.7c-12.3,5-22.3,14.9-28.2,26.7-5.3,12.4-7.7,26.5-4.7,39.8,3.5,15.2,13.9,29,28.2,35.8,7.8,3.3,16.8,3.6,24.8.9,1.1.1,2.2-.5,3.2-.8,12.5-4.9,22.4-15.5,27.2-27.9,2.1-5.2,4.3-10.6,4.5-16.2,1.6-6.9.9-14.1.3-21-1.7-13.1-8.3-26-19.5-33.4-10.3-7.4-24.3-8.2-35.9-3.8Z" fill="#f7f4f0"/>
  <path d="m435.2,246.8c14-2,29,.1,41.2,7.6,14.4,9.1,25.5,23.8,29.1,40.6,2.9,13.1,2.3,27.1-1.9,39.8-5.3,15-16.6,28.5-31.8,33.9-14.3,5.4-30.6,3.3-44.1-3.4-13.9-7.3-25.2-19.5-31-34.1-6.9-16.8-6.9-36.3.5-52.9,6.5-15.9,21.1-28.4,38.1-31.4Zm1.9,7.5c-12.1,2.7-23.2,10.2-29.6,20.8-7.3,11.1-10,25-8.2,38.1,2,14.1,9.5,27.1,19.8,36.8,11.9,11.2,29.5,16.9,45.5,12.6,8.6-2.1,16.4-7.1,21.9-14,0,0,.2.1.3.1,3-4.2,5.9-8.5,7.8-13.3,4.9-11.1,5.4-23.6,3.9-35.5-1.2-9.6-6.1-18.4-12.1-25.9-11.3-14.8-30.9-23.4-49.4-19.8Z" fill="#f8f6f2"/>
  <path d="m13.4,248.5c.8,3.2,1.3,6.9,4.2,9,5.6-.7,10.4-4.1,15.9-5-3.3,3.6-8.1,5-12.6,6.6-2.1.9-4.3.6-6.5.4-.9-3.6-1.4-7.3-1.1-11Z" fill="#ca7237"/>
  <path d="m269.5,254.8c11.6-4.4,25.6-3.6,35.9,3.8,11.2,7.4,17.8,20.3,19.5,33.4.6,7,1.3,14.1-.3,21-2.8-8.4.7-17.9-3.1-26.1-2.8-6-5.3-12.2-8.6-17.9-1.1-2.7-4.6-2.5-6.1-4.8-2.6-3.1-6.4-4.6-9.9-6.3-6.8-4-15.4-3.8-22.8-1.5-3.5,1.2-7.6.9-10.6,3.5-2.3,1.8-3.1,4.9-4.2,7.5-.6-.4-1.1-.7-1.7-1.1-3.6,2.6-6.6,5.8-9.8,8.7-3.6,5.2-6.2,11.1-7.7,17.2-.7,1.7,1.8,2.9,3.1,2.2,3.8-1.3,7.9-2.1,11.9-.9-2.4.5-4.7.9-7.1,1.4-3.8.7-7.5,3.9-6.9,8.1,0,7.1,8.3,11.8,14.5,8.7,5.8-2.4,6.7-11.1,1.8-14.8.6-.9,1.2-1.8,1.8-2.8,1.9,1.6,4,3.4,3.9,6.1,0,3.9.3,8.6-2.9,11.5-2.4,2.1-5.5,3.5-8.7,3.8-4-.4-7.9-1.7-11.9-2.4-.9,6.2-.6,12.6,2.3,18.3.5-.3.9-.6,1.4-.8.7,2.3,1.2,4.9,3,6.6,3.4,3.5,6.6,7.2,10.6,9.9-.3.7-.7,1.5-1,2.2,2.8,1,5.5,2.2,7.7,4.1,3.2,2.9,7.9,1.5,11.9,1.7-.7.4-2.1,1.1-2.8,1.4,2.3.5,4.6,1,6.9.9,3.3,0,6.7-1.2,9.8.2-8,2.7-17.1,2.4-24.8-.9-14.2-6.8-24.6-20.5-28.2-35.8-3-13.3-.6-27.4,4.7-39.8,5.9-11.8,15.9-21.7,28.2-26.7Z" fill="#3f2c1e"/>
  <path d="m161,254.1c4.9,2.3,9.2,8,7.1,13.6-4.5-3-8.1-7.9-7.1-13.6Z" fill="#e17a04"/>
  <g>
    <path d="m274.1,256.3c7.4-2.3,16-2.5,22.8,1.5,3.6,1.6,7.4,3.1,9.9,6.3,1.5,2.4,5,2.1,6.1,4.8,3.3,5.8,5.8,11.9,8.6,17.9,3.8,8.3.3,17.7,3.1,26.1-.2,5.7-2.4,11.1-4.5,16.2-4.9,12.4-14.8,23.1-27.2,27.9-1,.3-2.1.9-3.2.8-3.2-1.5-6.5-.3-9.8-.2-2.4,0-4.7-.5-6.9-.9.7-.4,2.1-1.1,2.8-1.4-3.9-.2-8.6,1.2-11.9-1.7-2.2-1.9-4.9-3.2-7.7-4.1.3-.7.6-1.5,1-2.2-4.1-2.7-7.2-6.5-10.6-9.9-1.9-1.7-2.3-4.3-3-6.6-.5.3-.9.5-1.4.8-2.9-5.7-3.2-12.1-2.3-18.3,4,.6,7.9,2,11.9,2.4,3.2-.3,6.3-1.7,8.7-3.8,3.2-2.8,2.9-7.6,2.9-11.5,0-2.7-2.1-4.5-3.9-6.1-.6.9-1.2,1.8-1.8,2.8-2.8-1.7-6.1-2.8-9.4-2,2.3-.5,4.7-.9,7.1-1.4-4-1.2-8.1-.4-11.9.9-1.4.7-3.8-.4-3.1-2.2,1.5-6.1,4.2-12,7.7-17.2,3.2-3,6.2-6.2,9.8-8.7.6.3,1.1.7,1.7,1.1,1.1-2.6,1.9-5.7,4.2-7.5,2.9-2.6,7.1-2.3,10.6-3.5Z" fill="#56341b"/>
    <path d="m432.6,257.6c3.1.3,6.1.2,9.2-.3,5.8-.9,11.6.4,17.2,1.4,4.4.8,8,3.7,12.2,4.9-.3.5-.7,1-1,1.5,3.1,1.1,6.7,1.6,9.1,4,3.2,2.5,4.6,6.4,7,9.4,3.7,4.8,7.6,9.8,9.3,15.8.9,2.9-.7,5.7-.6,8.6,0,5.6-.2,11.3.2,16.9,0,4.2-1.3,8.4-2,12.5.5,1.1,1,2.1,1.5,3.2-2,4.8-4.9,9.1-7.8,13.3,0,0-.2,0-.3-.1-.8-.3-1.6-.6-2.3-.9-3.2,3.2-6,6.9-10.1,9-9.1,5.3-20.1,6.5-30.4,4.6-7.1-.9-11.1-9-18.6-8.8-1.5-2.4-3.6-4.4-6.2-5.7-3.8-1.9-4.2-6.8-7.3-9.4-2.7-2.3-3.1-6-4.7-9-1.3-2.7-3.8-5-3.8-8.2,0-2.9-2.3-5.2-2.1-8.1,0-8.9-.8-18.7,4.3-26.5.8-4.7,4.9-7.3,7.6-10.8-.3-.6-.7-1.2-1-1.8,2.3-1.6,4.7-3,6.7-5,1.4-1.4,1.6-3.5,2.9-5,2.9-2.5,6.5-4.3,10.3-4.6.2-.2.5-.6.6-.8Zm48.6,36.9c-3.4,1-7.2,3.5-7.3,7.5-.5,3.5.9,7.4,4.4,8.7,5.9,3.3,13.5-1.2,14.7-7.6.3-6-6.2-10.3-11.8-8.6Z" fill="#56341b"/>
  </g>
  <path d="m437.2,254.2c18.5-3.6,38.1,5,49.4,19.8,6,7.5,10.8,16.3,12.1,25.9,1.5,11.9.9,24.4-3.9,35.5-.5-1.1-1-2.1-1.5-3.2.7-4.2,1.9-8.3,2-12.5-.4-5.6-.2-11.3-.2-16.9,0-2.9,1.6-5.7.6-8.6-1.7-6-5.6-10.9-9.3-15.8-2.5-3-3.9-6.9-7-9.4-2.4-2.5-6-3-9.1-4,.3-.5.6-1,1-1.5-4.2-1.2-7.8-4.1-12.2-4.9-5.7-1-11.5-2.3-17.2-1.4-3,.5-6.1.6-9.2.3-.2.2-.5.6-.6.8-3.8.3-7.4,2.1-10.3,4.6-1.3,1.4-1.5,3.6-2.9,5-2,1.9-4.4,3.4-6.7,5,.3.6.6,1.2,1,1.8-2.7,3.5-6.8,6.2-7.6,10.8-5.1,7.8-4.4,17.6-4.3,26.5-.2,2.9,2.1,5.2,2.1,8.1,0,3.2,2.4,5.5,3.8,8.2,1.6,3,2,6.7,4.7,9,3.1,2.6,3.5,7.4,7.3,9.4,2.6,1.3,4.6,3.3,6.2,5.7,7.5-.2,11.5,7.9,18.6,8.8,10.2,1.9,21.3.8,30.4-4.6,4.1-2.1,6.9-5.8,10.1-9,.8.3,1.5.6,2.3.9-5.6,6.9-13.4,11.9-21.9,14-16,4.2-33.6-1.4-45.5-12.6-10.3-9.7-17.7-22.7-19.8-36.8-1.8-13.1.9-27,8.2-38.1,6.5-10.6,17.6-18.1,29.6-20.8Z" fill="#412b1d"/>
  <g>
    <path d="m513.5,258.7c-1.7-1.4-3.7-2.8-4.4-5.1,3.7,2.1,7.7,4.4,9.5,8.5-.2,2.4-2.6,3.6-4.7,4-3.9.6-7.9.4-11.9.4l-.6-1c3.7-1,7.5-1.7,11.4-1.7,1.8.2,3.1-1.3,4.4-2.3-1.6-.6-3.3-1.1-4.9-1.7l1.2-1Z" fill="#462307"/>
    <path d="m454.7,446c9.3-5.6,19.9-8.8,30.7-9.6,5.1-.4,10.3.2,15.4-.9.7,1.2,1.4,2.5,1.8,3.8-7.5,1.5-15.3.8-22.8,2.1-6.1.9-12,3-17.7,5.4-4.4.8-8.4,3.4-13,3.5.7-.5,2-1.6,2.6-2.2-18.6-1.9-37.7-2.2-56,2.7-15.6,3.9-29.6,12.3-42.3,21.9-1.2.8-2.4,1.5-3.6,2.2-3-4-7-7-11-9.9-22.2-16.4-51.5-22.6-78.4-16.8-1.1-1.4-2.2-2.7-3.4-4,1,0,1.9,0,2.9,0,.3-.2.8-.6,1.1-.9.2-.2.7-.5,1-.7,22.8-1.8,47.2,0,67.4,11.6,8.1,4.2,14.9,10.3,22.1,15.8,8.7-6.3,17.5-12.6,27.3-17,11.4-5.9,24.3-8,36.9-9.4,13-1,26.2-.7,39,2.3Z" fill="#462307"/>
  </g>
  <path d="m322.1,256.3c1.8,2.3,3.2,5.2,6.3,5.8,10.4,17.5,10.6,38.8,8.8,58.5.6-.2,1.7-.7,2.3-.9,1.2-3,2.8-5.8,4.9-8.2,4.7-5.4,9.5-10.7,15.2-15.1,6.8,6.5,11.6,14.7,17.2,22.2,3.1,5.4,8.7,10.6,7.4,17.4-3.2,12.5-8.9,24-13.7,35.9-2.5,5.5-4.3,11.3-7.6,16.3-1.3,2-3.8,1.3-5.7.8-2.8-8.3-5-16.8-7.5-25.1-4.5-13.9-7.6-28.2-10.9-42.5-.7.8-1.4,1.7-2.1,2.5-.6,2.4-1.2,4.9-2,7.3-.8-.6-1.5-1.2-2.3-1.7,2.4-7.9,2-16.3,2.7-24.5,0-14-2.5-28.6-10.2-40.6h-1.9c-1-1.3-2-2.7-3.1-3.9.3-.4,1-1.2,1.4-1.6-.2-.4-.7-1.3-.9-1.7.6-.3,1.1-.6,1.7-.9Zm24.3,61.5c5.2,19.3,8.7,39.1,14.4,58.3,1.6-3.3,2.3-7,3.7-10.4,3.8-9.4,7.9-18.7,11.9-28.1.6-1.8,1.7-3.6,1.5-5.6-1.4-3.4-4-6.3-6.1-9.3-1.2-1-2.5-1.9-3.7-2.9l.6-.9c-2.7-4.8-6.6-8.9-10.7-12.5-3.9,3.8-7.9,7.4-11.6,11.4Z" fill="#4b2a14"/>
  <g>
    <path d="m548,264.6c4.7-3.9,10.9-5.6,16.9-6.6,6.1-.8,13.4-.5,17.7,4.5-2.7-.6-5.5-.9-8.2-.3-4.5,0-9.1-.4-13.5,1-5.1,1.6-10.1,4-14,7.7-11.2,9.8-20.4,21.8-28,34.5.6-3,.7-6.1.5-9.1,5.3-9.9,13.6-17.5,20.8-25.9v-.6c3.7.4,6-2.4,8-5.2Z" fill="#981d11"/>
    <path d="m491.6,732.5c9.6-.2,19.2.3,28.8.1,2.1.3,4.2.7,6.4,1.1-4.2-.2-8.5-.2-12.6.9-5.4,0-10.8-.7-16.2-1-2.1-.3-4.6.3-6.3-1.1Z" fill="#981d11"/>
  </g>
  <path d="m574.3,262.2c2.7-.6,5.5-.3,8.2.3,5.4,3.7,7,10.6,7.2,16.8,3.3-7.7,10.7-12.9,18.7-14.5-.1.6-.3,1.8-.4,2.4,3.1.5,6.2.8,9.1,2.1-5-.2-10.4-.7-14.8,2.3-8.7,4.9-10.3,15.9-17.4,22.4,1.9-8.2,1.6-17.2-2.5-24.8-1.8-3.3-5-5.3-8.2-7Z" fill="#a51b12"/>
  <path d="m560.8,263.2c4.4-1.4,9-.9,13.5-1,3.2,1.7,6.4,3.8,8.2,7,4.1,7.5,4.4,16.6,2.5,24.8,7.1-6.5,8.7-17.4,17.4-22.4,4.4-2.9,9.8-2.5,14.8-2.3,4,1.8,7.7,4.6,9.6,8.7,4.8,10.3,4.3,21.9,4.7,33,.1,15.4-2.3,30.9-7.8,45.4-2.9,4.9-8.3,7.4-12.6,10.8-6.2,4.4-9.9,11.5-15.8,16.3-4.8,3.9-10.1,7.3-15.1,10.9-6.9,4.2-12.9,9.8-17.7,16.3-3.1,4.4-5.9,9.3-6.5,14.8-.2,0-.7-.2-.9-.3.2-6.5,0-13,.6-19.4.1,3.4.4,6.9.6,10.3,1.1-7.9,1.2-16,3-23.7,6.6-9.1,17.1-14.1,25.2-21.7,7.5-7.8,14.9-15.8,23.3-22.6,3.2-2.4,6.8-4.4,9.6-7.3,1.3-1.1.8-3.1,1.2-4.5.3-.7.6-1.4.8-2.1-6.1,3.6-12,7.6-17.8,11.9-9.5,7.1-16.8,16.5-25.8,24.1-3.5,3.1-7.3,5.8-11,8.6-1.9,1.4-3.8,2.9-5.7,4.3,2.7-11.3,4.7-22.8,7.6-34,3.2-2.8,6-6.1,9.4-8.6,7.1-5.4,13.6-11.5,19.1-18.5,4.4-6.1,9.9-11.9,11.6-19.4-6,4.5-9.1,11.6-14.1,17-6.9,8.1-15.3,14.7-23.5,21.3,2.7-8.6,4.8-17.5,8.5-25.8,2.3-5.5,4.8-11,6.7-16.7-1.1.1-2.5-.2-3.3.9-2.6,2.7-4.3,6.2-6.2,9.4-2.3-3.6-4.6-7.2-6.5-11-2.4-4-3.1-9-6.7-12.1.1,6,3,11.4,5.6,16.6,1.7,3.9,4.7,7.5,5.2,11.8-2.2,8-5.3,15.8-7.8,23.8-3.3-3.5-6.5-7.2-9-11.3-2.7-4.2-5.6-8.3-7.9-12.7-2.1-4-3.5-8.4-6.5-11.9-.2,4.3,1.7,8.2,3.3,12.1,2.6,6.3,6.1,12.2,10,17.7,2.8,4.1,5.6,8.1,8.6,12.1-3.5,10.3-4.8,21.2-7.9,31.5-.4-.7-1.3-2.2-1.7-2.9-5.6-9.2-12-18-16.8-27.7-2.3-4-3.6-8.6-6.5-12.3-.1,3.9,1.4,7.5,2.9,11,4.6,12.2,12.6,22.6,19.1,33.9,2.9,3.4.9,7.8.5,11.7-1.1,7.6-1.8,15.2-2.6,22.8-.1.8-.4,2.3-.5,3.1-11.4-16.3-28.8-28.3-36.6-47-2.1-5-3.2-10.4-4.7-15.7-2.9-10.6.1-21.5,3.5-31.6,1.8-5.3,3.9-10.4,6.8-15.2,7.6-12.8,16.8-24.7,28-34.5,3.9-3.8,8.9-6.1,14-7.7Zm59,50.5c.6,0,1.8,0,2.4-.1,2.9-4.2,7.1-9.4,4.7-14.8-2.6,4.8-5.3,9.7-7.1,14.9Zm-99.9,36.9c-.1,3.2.5,6.4,2.1,9.2,3.7,6.6,8.3,12.7,13.7,17.9,1.8-.2,2.2-1.3,1-2.6-4.1-5.1-8-10.2-11.3-15.9-1.8-2.9-3-6.2-5.6-8.6Z" fill="#fd6447"/>
  <path d="m322.9,264.5h1.9c7.7,11.9,10.3,26.5,10.2,40.6-.7,8.2-.3,16.5-2.7,24.5-.7-.4-1.3-.9-2-1.3-1.2,4-2.6,7.9-4.8,11.5-.6,1.5-2.3,2-3.7,2.6,13.7-23.4,15.4-54.4,1-77.8Z" fill="#2d221a"/>
  <path d="m608.5,264.8c6-.8,12.4.5,17,4.5,4.8,4.3,7.3,10.5,8.8,16.7,2.4,12.9,2.1,26.1.8,39.1-1,8.7-2.2,17.6-6.1,25.5-.2.3-.5.8-.7,1.1-1.3,1.9-2.9,3.5-4.7,4.8,5.4-14.5,7.9-30,7.8-45.4-.4-11.1.1-22.7-4.7-33-1.8-4.1-5.6-7-9.6-8.7-2.9-1.3-6-1.6-9.1-2.1.1-.6.3-1.8.4-2.4Z" fill="#9b1a11"/>
  <path d="m701.2,267.6c2.1-.1,4.8.2,5.7,2.4,1.8,3.7,1.1,8.1.9,12.1-.2,8.6-5.4,15.9-10.6,22.4-9.6,7.2-22.4,10.2-34.1,7.3-1.3-6.4.6-12.9,2.4-19.1,1.4-4.8,3.5-9.4,6.7-13.3,2.8-2.6,6.2-4.6,9.5-6.6,6.1-3,12.8-4.2,19.5-5.2Zm-32.4,23.4c-2.4,6-4.5,12.6-3.3,19.2,12,1,26.2-1.4,33.6-11.9,6.6-7.9,8.1-18.9,6.1-28.8-14.5.2-30.5,7.5-36.4,21.5Z" fill="#f5b281"/>
  <path d="m668.8,291.1c5.9-14.1,21.8-21.3,36.4-21.5,2,9.9.5,20.8-6.1,28.8-7.4,10.6-21.5,12.9-33.6,11.9-1.2-6.6.9-13.2,3.3-19.2Zm20-13.3c-11.1,5-18.9,16.6-19.5,28.8,7.2,0,14.5-1.9,20.8-5.3,9-5.8,12.4-17.1,12.4-27.3-4.9-.9-9.4,2.1-13.8,3.8Z" fill="#d0701f"/>
  <path d="m688.7,277.8c4.4-1.6,8.9-4.6,13.8-3.8,0,10.2-3.5,21.5-12.4,27.3-6.3,3.4-13.6,5.3-20.8,5.3.6-12.2,8.3-23.8,19.5-28.8Zm-6.8,19.3c5.3-1.5,8.6-6.9,9.8-12-5.6,1-10,6.2-9.8,12Z" fill="#fab407"/>
  <path d="m681.9,297.1c-.3-5.8,4.2-11,9.8-12-1.2,5.1-4.5,10.5-9.8,12Z" fill="#d27b05"/>
  <path d="m561.9,285.7c3.6,3.1,4.3,8.1,6.7,12.1-.4,1.5-.8,3-1.1,4.5-2.6-5.2-5.4-10.6-5.6-16.6Z" fill="#a32411"/>
  <path d="m104.3,288.8c4.4-1.7,8.5,1.4,11.5,4.3,9.7,9.3,12.3,23.1,14.9,35.6-12.2.6-24.8,2.1-36.6-1.9-4-1.7-9.2-3.7-9.7-8.8-.2-7.7,7.3-13.1,14.3-13.7-.6-5.6.2-12.4,5.5-15.6Zm.9,4.7c-3.8,4.4.2,11.2-3.3,15.7-3.1,1.1-6.6.9-9.6,2.5-2.6,1.3-3,5-1.8,7.4,2.7,3.3,7.2,4.2,11.1,5.1,7.9,1.2,15.9,1.1,23.8.4-1.8-10-5.1-20.3-12.5-27.8-2-2-4.7-4.3-7.8-3.4Z" fill="#a71c16"/>
  <path d="m105.2,293.5c3.1-1,5.7,1.4,7.8,3.4,7.3,7.4,10.6,17.7,12.5,27.8-7.9.8-15.9.9-23.8-.4-4-.8-8.4-1.8-11.1-5.1-1.2-2.4-.8-6.1,1.8-7.4,3-1.6,6.5-1.4,9.6-2.5,3.5-4.5-.6-11.3,3.3-15.7Z" fill="#fc5d42"/>
  <path d="m481.2,294.5c5.6-1.7,12.1,2.7,11.8,8.6-1.1,6.3-8.8,10.9-14.7,7.6-3.5-1.3-4.9-5.3-4.4-8.7,0-3.9,3.8-6.5,7.3-7.5Z" fill="#fafaf7"/>
  <path d="m248.1,294.9c3.3-.8,6.6.3,9.4,2,5,3.7,4.1,12.4-1.8,14.8-6.2,3.1-14.6-1.6-14.5-8.7-.6-4.2,3.1-7.4,6.9-8.1Z" fill="#faf8f5"/>
  <path d="m519.3,296.4c.2,3,0,6.1-.5,9.1-2.9,4.7-5,9.9-6.8,15.2-3.4,10-6.5,21-3.5,31.6,1.5,5.2,2.6,10.6,4.7,15.7-.3.9-.5,1.8-.8,2.7-.3-.3-.9-.9-1.3-1.1-.3.5-1,1.5-1.3,2-2.6-5.3-4.9-10.9-5.7-16.9,2.4-3,1.5-7,1.6-10.5-.2-8.2,1.7-16.2,3.8-24.1,1.1-4,1.9-8.3,4.6-11.6,1.9-2.3,2.7-5.2,3.3-8.1.6-1.3,1.2-2.6,1.9-3.9Z" fill="#61210d"/>
  <path d="m567.4,302.3c.4-1.5.7-3,1.1-4.5,1.9,3.8,4.3,7.4,6.5,11,1.8-3.3,3.5-6.7,6.2-9.4.7-1.1,2.1-.8,3.3-.9-1.9,5.7-4.4,11.1-6.7,16.7-3.6,8.3-5.8,17.1-8.5,25.8,8.3-6.6,16.6-13.2,23.5-21.3.8.8,1.6,1.6,2.5,2.3-5.5,7-12,13.1-19.1,18.5-3.5,2.5-6.2,5.9-9.4,8.6-3,11.2-5,22.7-7.6,34,1.9-1.5,3.8-2.9,5.7-4.3.4.4,1.1,1.1,1.5,1.5-2,1.4-3.8,3-4.6,5.3-1.6,1.2-4,2.2-4.1,4.5-.8,5.2-1.3,10.6-1.9,15.8-.7,6.4-.4,12.9-.6,19.4,0,1.7,0,3.3,0,5,0,1.6,0,3.2.1,4.8-1.3-.6-2.6-1.1-3.9-1.7-1.1-4.6-2.5-9.2-4.4-13.6.2-1.8.3-3.5.3-5.3.9.7,1.8,1.4,2.8,2,0-1.6.1-3.1.3-4.7.8-7.6,1.5-15.2,2.6-22.8.5-3.9,2.5-8.3-.5-11.7.4-1.6.9-3.2,1.4-4.9.4.7,1.3,2.2,1.7,2.9,3.2-10.4,4.4-21.2,7.9-31.5-2.9-4-5.8-8-8.6-12.1,0-1.2,0-2.5,0-3.7.3-.4.8-1.1,1.1-1.5,2.6,4.1,5.7,7.8,9,11.3,2.5-8,5.6-15.8,7.8-23.8-.5-4.2-3.5-7.9-5.2-11.8Z" fill="#6a1d10"/>
  <path d="m619.8,313.7c1.7-5.2,4.4-10.1,7.1-14.9,2.4,5.4-1.8,10.6-4.7,14.8-.6,0-1.8,0-2.4.1Z" fill="#811c0c"/>
  <path d="m541.5,301.9c3,3.5,4.4,7.9,6.5,11.9,2.2,4.4,5.1,8.5,7.9,12.7-.3.4-.8,1.1-1.1,1.5,0,1.2,0,2.5,0,3.7-3.9-5.6-7.4-11.4-10-17.7-1.6-3.9-3.5-7.8-3.3-12.1Z" fill="#881a09"/>
  <path d="m592.8,319.6c5-5.4,8.1-12.6,14.1-17-1.7,7.5-7.2,13.3-11.6,19.4-.8-.8-1.7-1.6-2.5-2.3Z" fill="#741a07"/>
  <path d="m346.3,317.9c3.6-4,7.7-7.6,11.6-11.4,4.1,3.6,8,7.7,10.7,12.5l-.6.9c-4.7,7.9-10.9,15.5-11.8,25,3.7.2,4.9-3.5,6.3-6.1,2.7-5.5,6.1-10.7,9.2-16,2.1,3,4.6,5.8,6.1,9.3.2,2-.9,3.8-1.5,5.6-4,9.3-8.2,18.6-11.9,28.1-1.4,3.4-2.1,7.1-3.7,10.4-5.8-19.2-9.2-39-14.4-58.3Zm7-4.4c-1.6,1.9-4.6,3.6-4.2,6.5,1,7.5,3.1,14.8,5.2,22.1,2.7-6.5,5.6-13,9.5-18.9,1-1.7,2.5-3.7,1.4-5.7-1.5-2.7-3.5-5.1-6-7-2.5-1.1-4.3,1.5-5.9,2.9Zm8.3,30.4c-1.3,2.2-4,2.3-6.3,2.6,2,7.5,2.2,15.6,5.7,22.6,4.8-10.9,9.1-22,13.9-32.9,1.7-3.4-.2-7.3-3.1-9.3-4.5,5-6.7,11.4-10.2,17Z" fill="#eba12d"/>
  <path d="m353.3,313.5c1.6-1.4,3.5-4,5.9-2.9,2.5,1.8,4.5,4.3,6,7,1.1,2-.4,4-1.4,5.7-3.9,5.9-6.8,12.4-9.5,18.9-2.2-7.2-4.2-14.6-5.2-22.1-.4-2.9,2.5-4.6,4.2-6.5Z" fill="#f29b04"/>
  <path d="m368.1,319.9c1.2,1,2.5,1.9,3.7,2.9-3.1,5.3-6.5,10.4-9.2,16-1.4,2.6-2.7,6.3-6.3,6.1.9-9.5,7.1-17.1,11.8-25Z" fill="#6a2f0c"/>
  <path d="m361.6,343.9c3.5-5.6,5.7-12,10.2-17,2.9,2,4.8,5.9,3.1,9.3-4.8,10.9-9.2,22-13.9,32.9-3.5-7-3.7-15.1-5.7-22.6,2.3-.3,5-.4,6.3-2.6Z" fill="#f6a004"/>
  <path d="m530.5,332.4c2.9,3.7,4.2,8.3,6.5,12.3,4.8,9.7,11.2,18.4,16.8,27.7-.5,1.6-.9,3.2-1.4,4.9-6.4-11.2-14.5-21.7-19.1-33.9-1.4-3.5-3-7.1-2.9-11Z" fill="#8a1c08"/>
  <path d="m601.8,346c5.7-4.3,11.6-8.3,17.8-11.9-.3.7-.6,1.4-.8,2.1-6.7,6.6-14.8,11.6-21.4,18.2-6.3,6-12,12.7-18.6,18.5-5.3,4.6-10.9,8.9-16.9,12.5.9-2.3,2.7-3.9,4.6-5.3-.4-.4-1.1-1.1-1.5-1.5,3.8-2.8,7.5-5.5,11-8.6,9-7.6,16.4-17,25.8-24.1Z" fill="#74220d"/>
  <path d="m597.3,354.5c6.6-6.7,14.8-11.6,21.4-18.2-.4,1.5.1,3.4-1.2,4.5-2.8,2.9-6.4,4.8-9.6,7.3-8.5,6.8-15.8,14.9-23.3,22.6-8,7.6-18.6,12.6-25.2,21.7-1.8,7.8-1.9,15.8-3,23.7-.2-3.4-.5-6.9-.6-10.3.6-5.3,1.1-10.6,1.9-15.8.1-2.3,2.5-3.3,4.1-4.5,6-3.6,11.6-7.9,16.9-12.5,6.5-5.8,12.2-12.5,18.6-18.5Z" fill="#f06d56"/>
  <path d="m629,350.6c4.3.2,8.5-1.4,12.8-1.2,24.6-.3,48.8,4.5,73.2,6.3,19.7,1.9,39.8,1.6,59-3.2,1.9-.3,1.1,2,1.5,3.1-.4.2-1.3.7-1.7.9-3.5,1.8-6.6,4.1-9.9,6.1,1.6-3.1,3.5-6.1,7.1-6.8-4.6-.8-9,1.5-13.5,1.8-8.2.6-16.5,1.7-24.8,1.4-5.3,0-10.6-.9-16-1.1-14.6-.8-29-3.4-43.6-4.4-11.7-1.5-23.6-2.1-35.4-1.5-3.2.1-6.3,1.2-9.3,2.3,0-.9-.1-1.7-.2-2.5.2-.3.5-.8.7-1.1Z" fill="#c9682a"/>
  <path d="m519.9,350.6c2.6,2.4,3.8,5.7,5.6,8.6,3.2,5.7,7.2,10.9,11.3,15.9,1.2,1.2.9,2.4-1,2.6-5.4-5.2-10.1-11.3-13.7-17.9-1.6-2.8-2.3-6-2.1-9.2Z" fill="#8c1405"/>
  <path d="m752.5,354.5c7.5-.5,14.8-3.6,22.3-3.2l-.8,1.2c-19.3,4.8-39.3,5.1-59,3.2,3.7-1.7,7.8-.8,11.8-.7,8.6.9,17.1-.3,25.7-.5Z" fill="#f1a470"/>
  <path d="m623.7,356.5c1.8-1.3,3.4-3,4.7-4.8,0,.8.1,1.7.2,2.5-1.2,2.3-2.5,4.6-4,6.8-5.6,5.4-12.9,8.9-17.5,15.3-2.1,2.6-4.3,5-6.6,7.3-5.9,5.9-13.5,9.9-19.8,15.4-.4.3-1.1.9-1.5,1.2-.3.2-.8.7-1.1.9,1-2.1,1.8-4.4,2.2-6.7,5-3.6,10.3-7,15.1-10.9,5.9-4.8,9.5-11.8,15.8-16.3,4.3-3.5,9.7-5.9,12.6-10.8Z" fill="#a92805"/>
  <path d="m628.5,354.2c3-1.1,6.1-2.1,9.3-2.3,11.8-.6,23.7,0,35.4,1.5,14.6,1,29,3.6,43.6,4.4,5.3.2,10.6,1.1,16,1.1,8.3.3,16.5-.8,24.8-1.4,4.5-.3,8.9-2.6,13.5-1.8-3.6.7-5.6,3.8-7.1,6.8-11.9,7.5-21.2,18.5-28.1,30.6-5.3,9.4-10.5,19-12.9,29.7-.4,0-1.2-.2-1.6-.3-.3,7.6-5.7,13.9-11.7,18.1-7.9,6.2-17,11-26.7,13.7-4.4,1.2-8.6,3.2-13.1,3.8-8.1,1.2-16.2,1.7-24.3,2.5-7.9,1-16,1.9-23.9.6-5.8-1.5-11.4-3.7-16.9-6.1-5.5-2.4-10.2-7-16.5-7.2-.3-.2-1-.6-1.4-.9-.8-.5-1.5-1-2.2-1.5.6-.7,1.3-1.3,1.9-1.9l.8-.5c1.2.7,2.3,1.4,3.5,2,9.4,5.8,19.5,10.8,30.2,13.5,6,1.5,12.2.5,18.3,0,12.6-1.1,25.2-2.2,37.4-5.2,8.8-1.9,16.9-6.2,24.7-10.6,5.2-3.3,10.9-6.4,14.1-11.9,2.2-4.7,2.9-9.8,4.4-14.7,2.4-9.5,7.6-17.9,12.8-26.1,5.5-8.4,11.2-17,19.7-22.7-1,0-2-.1-3-.2,1.7-.9,3.4-1.9,5-2.9-.9-.6-1.9-1.2-2.8-1.7,2.7-.7,5.4-1.4,8.1-2.1-9.7-.5-19.4,1.5-29.1.7-18.1-.2-36.1-2-54-4.4-13.3-.9-26.7-3.2-40.1-2.3-4.9,0-8.5,3.8-12.2,6.5,1.5-2.2,2.8-4.5,4-6.8Z" fill="#ce6b0f"/>
  <path d="m624.5,361c3.7-2.7,7.3-6.4,12.2-6.5,13.4-.8,26.7,1.4,40.1,2.3,17.9,2.3,35.9,4.2,54,4.4,9.7.8,19.4-1.2,29.1-.7-2.7.8-5.4,1.5-8.1,2.1-3.3.9-6.5,1.8-9.7,2.9-.4-.2-1.3-.7-1.7-1-2.5-1.8-5.7-1.6-8.6-1.6-5,0-10.1.1-15.1-.5-6.9-.8-13.9-.4-20.7-1.6-8.6-1.6-17.3-1.8-25.9-3.1-10.8-.7-21.6-2.5-32.4-1.7-4.4.2-7.5,3.6-10.7,6.2-3.7,3-7,6.5-11.2,8.9-4.9,2.7-7.4,7.9-11.1,11.8-2.9,3.5-6.9,5.7-10.3,8.6-3.6,3.1-8.1,5.1-11.3,8.8,1.9,9.8,3.9,19.6,3.9,29.6-.3,1.7,1.2,2.4,2.3,3.3-1.3.5-2.7.8-4.1,1.2.3-12-.7-24.2-4.6-35.6,6.3-5.5,13.8-9.5,19.8-15.4,2.3-2.3,4.6-4.7,6.6-7.3,4.6-6.4,11.9-9.9,17.5-15.3Z" fill="#f8ae21"/>
  <path d="m627,362.3c3.1-2.6,6.3-6.1,10.7-6.2,10.8-.8,21.6,1,32.4,1.7,8.6,1.3,17.3,1.6,25.9,3.1,6.9,1.2,13.8.8,20.7,1.6,5,.6,10.1.5,15.1.5,2.9,0,6.1-.1,8.6,1.6-9.3,3.4-18.7,6.2-27.6,10.7-8.4,3.4-16.3,8-24.9,10.9-3,1.2-5.9,2.5-9.2,2.2.4-4.8,1.7-9.5,1.8-14.4,0-1.6-1.1-2.8-1.7-4.1-1.5,1.1-3.2,2.2-3.8,4.1-2.6,6.3-3,13.5-6.8,19.3-1.4,2.1-3.9,2.9-6.1,3.9-5.8,2.3-11.4,5.2-17.4,6.9-.2-7.9,1.5-15.8,4.1-23.2.8-2.2,1-5.8-1.9-6.5-2.3,1.3-3.8,3.6-4.7,5.9-2.4,6.7-4.1,13.6-5.3,20.6-.9,3.6-1.6,7.9-5,10-3.5,2.3-7.5,3.8-11.1,5.8-3.7,1.9-7.1,4.8-11.4,5-.2-5.9,1-11.8,1-17.7,0-5.1.9-10.2,1.1-15.2l-1.8-.8h-.3c-.4-.3-1.2-.6-1.5-.7-5,11.4-3,24.2-6.5,35.9-1.4,5.6-7.6,7.3-11.9,10.2-1-.9-2.6-1.7-2.3-3.3,0-10-2-19.9-3.9-29.6,3.1-3.7,7.6-5.7,11.3-8.8,3.4-2.9,7.4-5.1,10.3-8.6,3.7-3.9,6.2-9.1,11.1-11.8,4.2-2.4,7.5-5.9,11.2-8.9Z" fill="#feaf05"/>
  <path d="m763.9,362.6c3.3-2,6.4-4.3,9.9-6.1-1,6.2-8.7,6.3-12.2,10.5-4.2,1.7-5.7,6.4-9.5,8.5-3.9,2.7-6.5,6.8-9.6,10.4-2.8,3.2-3.3,7.7-6.1,10.9-3.7,6.2-7.2,12.6-9.2,19.6-1.2,6.1-3.2,12.1-5.5,17.9-3.6,6-10,9.4-15.6,13.2-7,4.8-14.9,8.2-22.8,11.2-6.3,1.5-12.6,3-18.8,5-7.1,1-14.4.8-21.5,1.8-7.8.8-15.8,1-23.6.1-6-1-10.9-5-16.8-6.5-4.7-1.1-7.9-5.1-12.5-6.5-2.3-.7-6.1-3-3.3-5.5.3.2,1,.6,1.4.9,10.7,7.5,22.7,13.6,35.6,16,7.3,1.1,14.6-.3,21.9-1,9.9-.9,19.7-2.2,29.4-4.3,9.9-2.2,19.2-6.3,28-11.1,4.8-2.7,9.3-5.8,13.2-9.7,3.9-4,5.2-9.6,6.6-14.9,2.4-10.6,7.6-20.3,12.9-29.7,6.9-12.1,16.1-23.2,28.1-30.6Z" fill="#f5b284"/>
  <path d="m742.1,365.5c3.2-1.1,6.4-2.1,9.7-2.9.9.6,1.8,1.1,2.8,1.7-1.7,1-3.3,1.9-5,2.9-2.2.6-4.3,1.2-6.5,1.8-1.2-.8-2.5-1.6-3.7-2.4.9-.4,1.8-.7,2.7-1Z" fill="#b86813"/>
  <path d="m712.8,375.2c8.9-4.4,18.3-7.3,27.6-10.7.4.2,1.3.7,1.7,1-.9.3-1.8.7-2.7,1-5.9,2.3-12,4.3-17.8,6.9-7.3,3.1-14.3,6.8-21.4,10.1-8.1,4-16.8,6.5-25.1,10.1.2-.8.5-2.2.6-3,1-6.4,3.1-12.7,2.9-19.2-4.2,5.9-4.8,13.4-7.2,20.1-.6,1.9-1.3,4-3.4,4.7-7.9,3.7-16,7.1-23.9,10.8,0-1.3-.9-2.3-2-2.8.8-4.8,1.3-9.7,2.5-14.5,1.1-4.7,3.1-9.2,3.2-14.1-3.8,3.4-5.1,8.5-6.4,13.2-2,7-2.9,14.1-4.4,21.2-9.7,6-20,10.9-29.9,16.4.2-1.4.4-2.9.6-4.3.6-11.3.7-22.7,2-34l1.8.8c-.2,5.1-1.2,10.1-1.1,15.2,0,5.9-1.2,11.8-1,17.7,4.3-.1,7.8-3.1,11.4-5,3.6-2,7.6-3.5,11.1-5.8,3.4-2.1,4.1-6.4,5-10,1.2-7,2.9-13.9,5.3-20.6.9-2.4,2.4-4.7,4.7-5.9,2.9.6,2.8,4.3,1.9,6.5-2.5,7.4-4.3,15.3-4.1,23.2,6-1.7,11.6-4.6,17.4-6.9,2.2-1,4.7-1.8,6.1-3.9,3.8-5.9,4.2-13,6.8-19.3.6-1.9,2.3-3,3.8-4.1.6,1.3,1.8,2.5,1.7,4.1,0,4.8-1.4,9.6-1.8,14.4,3.2.3,6.2-1.1,9.2-2.2,8.6-3,16.5-7.5,24.9-10.9Z" fill="#ecaf3a"/>
  <path d="m721.6,373.5c5.8-2.7,11.8-4.6,17.8-6.9,1.2.8,2.5,1.6,3.7,2.4-1.5.4-3,.9-4.5,1.4-4.6,1.5-9,3.5-13.4,5.5-.4-.5-1.1-1.6-1.5-2.2-.5,0-1.6-.1-2.1-.2Z" fill="#8d3c09"/>
  <path d="m743.1,369c2.1-.6,4.3-1.2,6.5-1.8,1,0,2,0,3,.2-8.5,5.7-14.2,14.3-19.7,22.7-5.2,8.2-10.4,16.6-12.8,26.1-1.5,4.9-2.2,10.1-4.4,14.7-3.1,5.5-8.9,8.6-14.1,11.9-7.8,4.3-15.9,8.6-24.7,10.6-12.2,3.1-24.9,4.2-37.4,5.2-6.1.5-12.3,1.6-18.3,0-10.8-2.8-20.8-7.7-30.2-13.5,3.5-4.9,9.4-6.7,14.3-9.6,4.3-2,9.4-6,14.3-3.2,9.7,5.4,20.6,8.3,31.3,11,6.2,1.6,12.6,1.7,19,1.9,4.5,0,9.2,0,13.5-1.6l.2-1.2v-1c.1,0,.1-.9.1-.9-7.2-1.5-14.6-.5-21.9-1.9-10.9-.8-21.3-4.5-31-9.3-2-1-3.6-2.4-4.8-4.1,6.8-4.5,13.8-8.7,21.3-11.9,1.9-1.1,4-.2,5.9.6,10.4,5,21.6,8.3,33,9.8,2.8,0,6.2,1.1,8.5-.9l.6-1.4c.1-.3.4-1,.6-1.4-6.3-1.1-12.7-1.6-18.6-4-6.4-2.5-13.8-3.4-18.7-8.7,4.9-2.3,9.9-4.9,15.4-5.5,9.8,2,19.5,6.8,29.7,4.5,0-.4,0-1.3,0-1.7v-1c-6.4-1.7-13.1-2.6-18.6-6.4,11.5-5.5,23.6-9.8,34.6-16.3,4.4-2.5,9-4.7,13.7-6.6,2-.9,4.5-1.6,5.5-3.8,1.5-.5,3-1,4.5-1.4Z" fill="#feaf06"/>
  <path d="m513.1,367.8c7.8,18.7,25.3,30.7,36.6,47,.1-.8.4-2.3.5-3.1-.1,1.5-.2,3.1-.3,4.7-.9-.7-1.9-1.4-2.8-2,0,1.8,0,3.5-.3,5.3-2.1-3.8-4.1-7.6-6.3-11.3.2-.4.5-1.2.7-1.7-3.1-2.8-5.7-6.7-10.1-7.5-2.7-2.4-5.2-5-7.6-7.6-.7.6-1.3,1.2-1.9,1.8.4-.5,1.3-1.7,1.7-2.2-4.7-6.5-10.2-12.5-13.6-19.9.3-.5,1-1.5,1.3-2,.3.3,1,.9,1.3,1.1.2-.9.5-1.8.8-2.7Z" fill="#972111"/>
  <path d="m725.2,375.9c4.4-2.1,8.7-4.1,13.4-5.5-1,2.2-3.4,2.9-5.5,3.8-4.7,1.9-9.3,4.1-13.7,6.6-11,6.5-23.1,10.8-34.6,16.3,5.5,3.8,12.2,4.7,18.5,6.4v1c-6.9-1.4-13.8-3-20.4-5.5-1.4-.5-2.8-1-4.3-1.6,10.6-4.6,21.5-8.4,31.7-13.8,5-2.5,9.7-5.4,14.8-7.8Z" fill="#f7b545"/>
  <path d="m671.3,391.6c2.4-6.7,3.1-14.2,7.2-20.1.3,6.5-1.9,12.8-2.9,19.2-1.5,0-3,.4-4.4.9Z" fill="#6d3300"/>
  <path d="m700.2,383.6c7.2-3.3,14.2-6.9,21.4-10.1.5,0,1.6.1,2.1.2.4.5,1.1,1.6,1.5,2.2-5.1,2.3-9.8,5.3-14.8,7.8-10.2,5.3-21.1,9.2-31.7,13.8,1.4.5,2.8,1,4.3,1.6-.9.8-1.9,1.6-2.8,2.4-2.9-1-6.2-2.9-9.2-1.3-5.8,2.6-11.9,4.6-17.5,7.6,1.9,1.1,3.8,2.1,5.8,3.1-.9.9-1.8,1.8-2.7,2.6-3.2-1.3-6.9-4.5-10.4-2.2-8.5,4.3-16.7,9.2-25.1,13.7,1.4,1.3,2.9,2.4,4.5,3.4-2.2-.2-4.4-.7-6.6-1.2-.7.3-2.2.8-2.9,1.1-9.9,4.2-19.5,9.3-28.7,14.9l-.8.5c1.1-5.2,7.3-5.9,11.1-8.4-4.8-1.8-8.5,3.6-13.4,2.8.4-.2,1-.6,1.4-.8,5.3-2.7,10.7-5.4,15.6-8.9,1.4-1,1.8-2.7,2.4-4.2,1.3-.7,2.6-1.4,3.9-2.1-.2,1.4-.4,2.9-.6,4.3,9.9-5.5,20.2-10.4,29.9-16.4,1.4-7.1,2.4-14.2,4.4-21.2.8.2,2.4.7,3.2.9-1.2,4.8-1.7,9.6-2.5,14.5-.4,1.2-.4,2.5-.2,3.8.6-.2,1.7-.7,2.2-.9,7.9-3.7,16-7.1,23.9-10.8,2.1-.7,2.8-2.8,3.4-4.7,1.4-.5,2.9-.8,4.4-.9-.1.7-.5,2.2-.6,3,8.3-3.6,17-6.1,25.1-10.1Z" fill="#5a2d0e"/>
  <path d="m641.2,388.8c1.3-4.7,2.6-9.8,6.4-13.2-.1,4.9-2.1,9.4-3.2,14.1-.8-.2-2.4-.7-3.2-.9Z" fill="#6c3109"/>
  <path d="m413.7,388.1c-4.1-3.8,0-10.9,5.1-10.5,4.7.5,8,5,7.6,9.6-1,1.1-2,2.3-3.1,3.2-3.3.6-7.5,1-9.6-2.3Z" fill="#f07f42"/>
  <path d="m265.3,382.3c2.2-2.1,5.3-3.4,8.4-2.7,2.4,1.1,4.1,3.4,5.9,5.3-.4,2-.1,4.5-2.2,5.6-3.8,2.9-9.3,1.9-12.1-1.8,0-2.1,0-4.2,0-6.3Z" fill="#e98044"/>
  <path d="m135.7,389.1c.6-2.6,2.7-6.4,6-5,5.5,2.2,8.6,7.6,12.5,11.7,3.4,3.3,5.2,8.3,4.5,13-1.9.2-4.5,2.4-6,.4-2.7-3.3-6.3-5.7-8.7-9.3-2.7-3.6-6.9-6.4-8.3-10.8Zm2.2-2.4c2,4.8,5.9,8.3,9.1,12.3,2.6,3.3,5.4,6.3,8.7,8.9.6-1.1,1.2-2.2,1.8-3.2-4.4-6.2-9.2-12.3-15-17.3-1.2-1.4-3-.8-4.5-.7Z" fill="#f1b688"/>
  <path d="m137.9,386.6c1.5-.1,3.4-.7,4.5.7,5.8,5,10.6,11,15,17.3-.6,1.1-1.2,2.2-1.8,3.2-3.2-2.6-6.1-5.6-8.7-8.9-3.1-4-7.1-7.5-9.1-12.3Z" fill="#d8743b"/>
  <path d="m607.7,387.3c.4.1,1.2.5,1.5.6-4.9,11.5-3.4,24.2-5.6,36.3-.5,1.5-1,3.3-2.4,4.2-4.9,3.5-10.2,6.2-15.6,8.9-.1-.3-.3-1-.4-1.4v-1.3c1.4-.4,2.8-.8,4.1-1.2,4.3-2.9,10.5-4.6,11.9-10.2,3.5-11.7,1.5-24.6,6.5-35.9Z" fill="#e8a931"/>
  <path d="m609.2,387.9h.3c-1.3,11.4-1.4,22.8-2,34.1-1.3.7-2.6,1.4-3.9,2.1,2.2-12,.7-24.8,5.6-36.3Z" fill="#6b2c01"/>
  <path d="m242.9,389.2c3.2-1,7.7-1,10,1.9.6,1.9.5,4,.2,6-2.6,5.9-12.6,6-15.1,0-1.9-3.6,1.7-6.9,4.9-7.8Z" fill="#f07e43"/>
  <path d="m506.4,417.7c6.5-7.1,10.4-16,15.3-24.2.6-.6,1.3-1.2,1.9-1.8,2.5,2.6,5,5.2,7.6,7.6,1,.9,2,1.8,3.1,2.8-5.7,7.7-11.7,15.2-18.7,21.7-4.7,4.2-9.1,8.9-14.9,11.7-5,1-10.2.5-15.4.9,1-1.9,2.3-3.5,4.2-4.5,6.4-3.7,11.8-8.8,16.8-14.1Z" fill="#c5a87d"/>
  <path d="m562.5,410.7c4.8-6.5,10.8-12.1,17.7-16.3-.4,2.3-1.2,4.6-2.2,6.7l-.3.3c-5.9,4.6-11.2,10.1-15,16.6-2.5,4.4-3.5,9.4-5.5,13.9-.7-.6-1.4-1.1-2.1-1.7,0-1.7,0-3.3,0-5,.2,0,.7.2.9.3.6-5.5,3.3-10.4,6.5-14.8Z" fill="#b3261a"/>
  <path d="m469.8,398.1c4.2-3.8,12.3-2.7,14.5,2.9-.8,2.5-.8,5.8-3.5,7.1-4.3,1.8-9.4.9-12.5-2.7,0-2.5-.6-5.4,1.5-7.3Z" fill="#f18249"/>
  <path d="m579.1,400.3c.4-.3,1.2-.9,1.5-1.2,4,11.4,5,23.6,4.6,35.6v1.3c-2.8-4.5-2.3-9.9-3.1-15-1-6.9-2.2-13.8-3.1-20.7Z" fill="#c86d0e"/>
  <path d="m670.9,400.2c3.1-1.6,6.3.3,9.2,1.3,7.4,3,15.4,4.1,23.3,4.8-10.2,2.3-19.9-2.5-29.7-4.5-5.4.6-10.4,3.2-15.4,5.5,4.8,5.3,12.3,6.2,18.7,8.7,6,2.4,12.4,3,18.6,4-.1.4-.4,1-.6,1.4-12.5-1.4-24.5-5.3-35.9-10.5-2-1-3.9-2-5.8-3.1,5.6-3,11.7-5,17.5-7.6Z" fill="#f4bc47"/>
  <path d="m683,399c6.6,2.5,13.5,4.1,20.4,5.5,0,.4,0,1.3,0,1.7-7.9-.7-15.9-1.7-23.3-4.8.9-.8,1.9-1.6,2.8-2.4Z" fill="#7a3e0a"/>
  <path d="m578,401.2c.3-.2.8-.7,1.1-.9.9,6.9,2.1,13.8,3.1,20.7.8,5,.3,10.5,3,15,.1.3.3,1,.4,1.4-.3.2-1,.6-1.4.8-1.1.6-2.1,1.4-3,2.2-1-13-1.9-25.9-3.6-38.8l.3-.3Z" fill="#b66425"/>
  <path d="m641.9,404.2c1.1.5,2.1,1.5,2,2.8-.5.2-1.7.7-2.2.9-.2-1.3-.2-2.5.2-3.8Z" fill="#e5b269"/>
  <path d="m528.4,422.8c4.3-4.6,9-8.9,12.2-14.3,2.2,3.7,4.3,7.5,6.3,11.3,1.9,4.4,3.4,8.9,4.4,13.6-2,13-3.1,26.3-1.6,39.4-2.3-5.7-4.8-11.3-8.4-16.3-6.8-9.6-16.7-17.3-28.2-20.2,5.2-4.3,10.5-8.6,15.2-13.5Z" fill="#e1b59a"/>
  <path d="m646.2,411.3c3.5-2.3,7.1.9,10.4,2.2,11.8,5.6,24.8,9.2,38,9.3-2.3,2-5.8.8-8.5.9-11.4-1.5-22.6-4.8-33-9.8-1.8-.8-3.9-1.7-5.9-.6-7.5,3.3-14.5,7.4-21.3,11.9,1.3,1.7,2.9,3.2,4.8,4.1,9.7,4.8,20.1,8.5,31,9.3,7.2,1.4,14.7.4,21.9,1.9v.9c-9.9-.4-19.9-.3-29.7-2.5-10-1.9-19.3-6-28.3-10.5-1.6-1-3.1-2.1-4.5-3.4,8.4-4.6,16.5-9.5,25.1-13.7Z" fill="#f5b246"/>
  <path d="m659.2,410.8c11.4,5.2,23.4,9.1,35.9,10.5l-.6,1.4c-13.1,0-26.1-3.7-38-9.3.9-.9,1.8-1.8,2.7-2.6Z" fill="#73310b"/>
  <path d="m721.4,422.6c.4,0,1.2.2,1.6.3-1.3,5.2-2.6,10.9-6.6,14.9-3.9,3.9-8.4,7-13.2,9.7-8.8,4.9-18.2,8.9-28,11.1-9.7,2.1-19.6,3.4-29.4,4.3-7.3.7-14.6,2.1-21.9,1-13-2.4-24.9-8.5-35.6-16,6.3.3,10.9,4.9,16.5,7.2,5.5,2.4,11.1,4.6,16.9,6.1,7.9,1.4,16,.4,23.9-.6,8.1-.8,16.2-1.3,24.3-2.5,4.5-.6,8.7-2.6,13.1-3.8,9.7-2.6,18.8-7.5,26.7-13.7,6-4.1,11.4-10.4,11.7-18.1Z" fill="#d47836"/>
  <path d="m616.1,428.2c.7-.3,2.2-.8,2.9-1.1,2.1.6,4.3,1,6.6,1.2,9,4.6,18.4,8.6,28.3,10.5,9.7,2.2,19.7,2.1,29.6,2.5v1c-8.6,1.4-17.2,1-25.7.2-8.3-.8-16.3-3.7-24.1-6.4-6.1-2.1-11.9-4.9-17.6-8Z" fill="#712f0a"/>
  <path d="m587.3,443.1c9.2-5.5,18.8-10.6,28.7-14.9,5.6,3.1,11.5,5.8,17.6,8,7.9,2.7,15.8,5.5,24.1,6.4,8.5.9,17.2,1.2,25.6-.2l-.2,1.2c-4.3,1.7-8.9,1.7-13.5,1.6-6.4-.2-12.8-.3-19-1.9-10.7-2.7-21.5-5.6-31.3-11-4.8-2.9-9.9,1.2-14.3,3.2-5,2.9-10.8,4.8-14.3,9.6-1.2-.7-2.4-1.4-3.5-2Z" fill="#e7a82c"/>
  <path d="m584.3,438.1c4.9.7,8.6-4.7,13.4-2.8-3.8,2.5-10,3.2-11.1,8.4-.7.6-1.3,1.2-1.9,1.9-3.7,4.4-7.5,8.9-10.3,13.9-4.5,7.9-7.8,16.4-11.9,24.5-1.2-.4-2.4-.8-3.5-1.2.3-4.2,2.4-7.9,3.9-11.7,4.6-11.1,10.8-21.6,18.5-30.8.9-.8,2-1.5,3-2.2Z" fill="#4f2b16"/>
  <path d="m804.2,438.5c2.1-.5,4.2,1.2,4.9,3.1,1.3,3.6,1.7,7.5,1.3,11.2-.5,4.4-.8,9-2.6,13.1-2.1,5-4.1,10.1-7.9,14.1-3,3.8-7.5,5.9-11.4,8.6-3.3,1.5-6.9,2.4-10.4,3.5-2.8,1.1-6.5,0-7.8-2.7-.9-9.8-.6-20.1,4.2-29,2.3-5.1,6.7-8.6,10.3-12.7,5.6-4.6,12.3-8.1,19.5-9.5Zm-14,9.2c-13.9,9-20.7,27.2-16.8,43.2,10-.4,18.7-6.8,25.4-13.8,6-6.2,7.6-15,8.9-23.2.9-4.3-.4-8.6-1-12.8-6.1.3-11.5,3.5-16.6,6.6Z" fill="#f5af84"/>
  <path d="m479.7,441.5c7.5-1.4,15.3-.6,22.8-2.1.4,3.1,2,5.6,3.9,8,.9,4.4-4.1,6.8-6.4,9.8,1.8,0,4,.8,5.6-.4,1.8-3.1,2.8-6.6,4.2-9.9,1,1.4,2,2.9,2.9,4.3,3.8,6.5,8.6,14,5.8,21.8-4,10.7-16.5,19-28,15.3,3.4-11.8,1.5-24.8-4.5-35.4-.8-1.4-2-2.5-3.7-2.5,2.9,7.3,5.9,14.7,5.8,22.7,0,6.8-1.5,14.1-6.1,19.3-2.4,2.9-7,2.6-9.6,0-5-4.5-7.9-10.7-10.1-16.9-1.4-3.8-1.6-8-3.4-11.7-.6,0-1.8-.3-2.3-.4,1.1,13.2,5.7,26.8,16,35.6,2.4,2.2,5.8,2.6,8.9,2.3,3.8,11.8,9.3,23.8,19.6,31.3,4.7,3,10.6,6.3,16.2,3.9,7.8-3.1,12-11.8,11.6-19.9,3.6,3,7.6,5.7,12.2,6.6,4.3.8,8.4-1.1,12.1-3,1.3,11.9.5,23.9-.7,35.8-2-.3-3.9-.5-5.8-.8-4.9-1.5-9.8-3.2-14.5-5.3.8-6.4,4.8-13.1,1.3-19.3-3.1,5.3-3.6,11.6-6,17.2-2.2,5.3-3.9,11.8-9.5,14.6-4.1,1.5-8.3-1.1-11.8-3.1-7.4-4.7-13.7-11-18.9-18-3.7-5.1-5.5-11.1-7.1-17.1-2.9,2.6-5.4,6-9.2,7.3-5.4,1.6-11.7.8-15.9-3.1-4.5-3.7-6-9.6-8.6-14.6-1,.8-2.1,1.5-3.1,2.3.4,8.6,6.4,15.3,10.6,22.4,5.1,8.8,10.5,18.1,19.1,24,2.9,2,7.1,3.5,10.3,1.3,3.8-3,4.7-8.3,4.3-12.8,6.8,7.4,14.1,15,23.9,18.1,3.9,1.3,7.9-.5,11-3,7.3,7,17.7,9,27.1,12-.6,3.1-1.1,6.2-1.7,9.4-.8-.3-2.5-.8-3.3-1.1-7.6-2.1-14.4-6.1-21.6-9.4v2.6c6.3,5.7,14.1,9.2,21.9,12.6,3.1,1.7,4.6,5.2,4.5,8.6-2.7.2-5.4.2-8-.1-2.5-.9-5-1.6-7.4-2.5-15.7-6.3-31.4-14-43.4-26.2-1.7-1.3-3.2-3.8-5.6-3.3,0,1.4.3,2.6,1.1,3.8,10.2,13,24.9,21.2,39.3,28.8,5.7,3.1,11.7,5.8,17.9,7.7,4.2,1.2,8.5,2.2,12.4,4.2-2.1,1.4-4.5,2.5-7.1,2-10.6-1.2-20.7-5.1-30-10.1-6.6-3.6-13.3-7.1-19.3-11.6-4-2.8-7.6-6.1-11.8-8.6.9,4.3,4.5,7,7.5,9.9,7,6.2,14.2,12.3,22.7,16.4,7.7,4,16.2,6.1,23.9,10.1,1.8,2,1.6,5.2,2.4,7.8-7-1.3-13.7-4-20.1-7.1-10.9-5.5-21.2-12-31.1-19-11.1-7.8-20.1-18-28.5-28.5-9-12.4-17-25.7-21.6-40.3-6.7-19.1-8.1-40.2-2.5-59.7,3.3-11.5,11.4-21.2,21.6-27.2,5.7-2.5,11.6-4.5,17.7-5.4Z" fill="#cd9c69"/>
  <path d="m790.2,447.7c5.1-3.1,10.5-6.3,16.6-6.6.6,4.2,1.9,8.5,1,12.8-1.4,8.2-2.9,17-8.9,23.2-6.7,7-15.4,13.4-25.4,13.8-3.9-16,2.9-34.1,16.8-43.2Zm-7,13.9c-5.4,6.9-6.1,16-7.1,24.4,5.4-.1,9.7-3.8,13.7-7,10-7.7,14-20.8,13.9-33-8.8,1.7-15.4,8.6-20.4,15.6Z" fill="#e77b40"/>
  <path d="m260.4,448.3c26.9-5.8,56.2.5,78.4,16.8,3.9,3,8,5.9,11,9.9,1.2-.7,2.4-1.4,3.6-2.2,12.7-9.5,26.7-18,42.3-21.9,18.2-4.8,37.3-4.6,56-2.7-.7.5-2,1.6-2.6,2.2-6.6,5.3-10.4,13.2-13.2,20.9-4.3,12.1-5,25.1-5,37.8-1.3-1.4-2.8-2.6-4.5-3.6.1,8.1-1.7,17.2-8.4,22.6-4,3.5-10.5,3.7-14.6.3-6.1-5-9.3-12.3-11.8-19.6-1.9,3-2.1,6.6-3.2,9.9-1.9,5.9-7.6,10.3-13.6,11-6.8.6-12.7-4-16.9-8.9-5.3-6.1-8.2-13.7-12.2-20.5-1.6,1.1-2.7,2.7-2.9,4.7-1.5,8.7-4.3,17.4-9.1,24.9-3.8,5.9-9.7,11.1-17,11.5-4.6.3-8.3-3.2-10.6-6.8-3.1-4.9-3-10.9-3.9-16.4.2-1.6-2.3-1.6-2.3-.2-1.3,4.6-1.4,9.8-4.1,13.9-3.3,5.3-11.7,6.8-16.3,2.2-5.9-4.9-5.6-13-7.3-19.8-.5,0-1.6,0-2.2,0-1.6,8.2-.2,17.4,5.4,23.9,3.2,3.6,8.3,6.1,13.2,4.9,5-1.2,9.8-4.2,12.1-8.9,2.2,6.5,7.8,12.2,14.9,12.9,8.7.7,16.7-5.1,21-12.3,5.4-8.1,7.3-17.8,9.2-27.2,3.1,10.8,9.4,21.4,19.5,26.8,10.1,4.9,23.2-1.1,26.8-11.6,2.6,5.3,6.1,10.5,11.7,13,5.8,2.6,12.8.6,17.4-3.4,4.6-4,7.1-9.8,8.8-15.5,2.2,6.9,3.2,14.2,5.6,21,2.7,7.9,5.9,15.7,10.1,23-1.8,2-4,4.3-7,3.9-8.2-.8-14.4-7-18.8-13.5-1.3.7-2.5,1.5-3.7,2.3,0,5.1.9,10.2,0,15.2-1.1,4.9-4.2,9.6-8.9,11.8-5.9,2.2-12.6,0-17-4.4-5.1-4.6-6.6-11.4-8.4-17.8-2.3,6-2,12.8-5.4,18.5-2.3,4-5.8,8.7-11,8.3-5.9-.4-10.4-5.4-12.7-10.5-1.8-3.8-1.7-8.3-4.2-11.7-3.2,4.5-3.6,10.5-7.4,14.7-2.1,2.4-5.2,5.1-8.6,3.9-4.3-1.5-7.4-5.3-9.3-9.3-1.7-3.2-2.3-7.2-5.2-9.7-1.6,5.9-.9,12.5-3.9,18-3,5.6-8.9,10.2-15.5,9.9-5.3-.6-8.6-5.5-10.8-10-2.6-5.2-2.1-11.1-2.8-16.7-3.8.4-4.2,5-6.3,7.5-2.1,3.1-5.8,7.5-10,5.2-8.3-5-12.5-14.2-16.4-22.7-1.9-6.4-5.5-12.1-7.9-18.3-1.8-12.1-6.9-23.6-7.6-35.9.5-12.9,4.3-25.3,7.5-37.7.6-2.2,1.2-4.6,3.2-6,3.9-3.1,7.8-6.4,12.6-7.7Z" fill="#f4d195"/>
  <path d="m512.8,445.5c3.2.2,6.5.6,9.3,2.3,12.9,6.9,21.1,20.3,24.6,34.2.2.6.5,1.8.6,2.4-8.5-.6-15.9-5.3-22.3-10.6-2.2-1.5-1.4-4.4-1.9-6.6-.7-6.5-4.7-11.9-8-17.3-.8-1.4-1.6-2.9-2.4-4.4Z" fill="#cb9c6d"/>
  <path d="m783.2,461.6c5.1-6.9,11.7-13.9,20.4-15.6.1,12.1-3.9,25.3-13.9,33-4,3.1-8.3,6.8-13.7,7,1-8.4,1.7-17.5,7.1-24.4Z" fill="#f79455"/>
  <path d="m449,450.5c4.6-.1,8.6-2.7,13-3.5-10.2,6.1-18.3,15.7-21.6,27.2-.4-.3-1.2-1-1.6-1.3-.5.9-1.1,1.8-1.6,2.7-.5-1.4-.9-2.8-1.4-4.2,2.8-7.8,6.6-15.7,13.2-20.9Z" fill="#523011"/>
  <g>
    <path d="m515.2,449.9c3.3,5.4,7.3,10.8,8,17.3.5,2.2-.3,5.1,1.9,6.6,6.4,5.3,13.8,10,22.3,10.6-.1-.6-.4-1.8-.6-2.4,1.4,3.2,5,5.1,5.5,8.7,1.1,5.2,3.6,11,0,15.9-.8-6.1-1.8-12.2-3.3-18.2-4.3,0-8.8.2-12.7-1.7-5.5-2.6-9.4-7.4-13.4-11.8-1.9,5-4.8,9.7-8.6,13.5,6.8,9.6,11.8,20.9,21.8,27.7,5,3.5,11.7,2.8,16.8,0,.2,1.4.4,2.9.6,4.3-3.7,1.9-7.8,3.8-12.1,3-4.6-1-8.7-3.6-12.2-6.6.3,8.1-3.8,16.8-11.6,19.9-5.6,2.4-11.5-.9-16.2-3.9-10.3-7.4-15.9-19.5-19.6-31.3-3.1.3-6.5-.1-8.9-2.3-10.3-8.8-15-22.5-16-35.6.6,0,1.7.3,2.3.4,1.7,3.7,1.9,7.9,3.4,11.7,2.2,6.2,5.1,12.4,10.1,16.9,2.6,2.5,7.2,2.8,9.6,0,4.6-5.2,6.2-12.5,6.1-19.3,0-8-2.9-15.4-5.8-22.7,1.7,0,2.9,1.1,3.7,2.5,6.1,10.6,7.9,23.6,4.5,35.4,11.5,3.7,24-4.6,28-15.3,2.8-7.8-2-15.3-5.8-21.8.6-.3,1.9-1,2.5-1.3Zm-26,42.1c-1.8,2.4-3.8,4.8-5.9,7,4.5,9.9,10,19.9,18.6,26.8,3.9,3,8.7,5.8,13.8,4.8,5.1-1.3,9.3-6.3,9-11.6-1.1-5.1-3.8-9.6-5.7-14.4-2-5-4.5-9.7-6.7-14.6-6.8,4.6-15.8,6.2-23.2,2Z" fill="#512a0a"/>
    <path d="m410.6,620.1c1-1,2.1-2,3.6-1.5-.3,2-2.4,2.6-3.8,3.6,0-.5.1-1.6.2-2.2Z" fill="#512a0a"/>
  </g>
  <path d="m229.9,475.1c2.2-4.7,4.3-9.5,8-13.3-1.2,8-4.3,15.5-5.8,23.4-2.2,9.5-2.5,19.2-3.3,28.9.2,5-4.2,8.1-6.6,12-1.5-17.3.3-35.1,7.7-51Z" fill="#bb966c"/>
  <path d="m514.1,488.3c3.8-3.8,6.7-8.5,8.6-13.5,4,4.4,7.9,9.2,13.4,11.8,3.9,1.9,8.4,1.8,12.7,1.7,1.5,6,2.6,12.1,3.3,18.2.3,3.1.3,6.3.5,9.5-5.1,2.7-11.9,3.4-16.8,0-10-6.8-15.1-18.1-21.8-27.7Z" fill="#cf9e6b"/>
  <path d="m489.2,492c7.4,4.2,16.4,2.6,23.2-2,2.1,4.9,4.7,9.7,6.7,14.6,1.9,4.8,4.6,9.3,5.7,14.4.2,5.4-4,10.3-9,11.6-5.1,1-9.9-1.8-13.8-4.8-8.6-7-14.1-16.9-18.6-26.8,2.1-2.2,4-4.6,5.9-7Z" fill="#cd9d68"/>
  <path d="m654.2,499.4c3.5-1.6,6.4,2.2,7.1,5.3,3.4,13.5-.1,28.4-8.5,39.3-6.6,5.1-14.1,9.4-22.5,10.5-4.7-.5-9.5,0-14.1-.6-2.2-8.7.7-17.7,3.7-25.9,2.1-4,4.4-8.1,7.4-11.5,4.2-3.1,7.8-6.9,12.2-9.8,4.4-3.4,9.6-5.5,14.8-7.1Zm-24.8,19.1c-8.6,8.7-12.6,21.2-12.1,33.3,7.4-.2,15.3,1.1,22.3-2.2,8.2-3,14.2-10.2,17.7-18,3.7-9.6,4.5-20.8.2-30.4-11.1,2-20.5,9.3-28.1,17.3Z" fill="#f8b785"/>
  <path d="m237.2,499.7c.7,12.3,5.8,23.8,7.6,35.9-4.5-3.5-2.8-10.2-7-13.9-1-7.3-1.2-14.7-.6-22Z" fill="#dcb98d"/>
  <path d="m629.3,518.5c7.6-8,17.1-15.2,28.1-17.3,4.3,9.6,3.5,20.8-.2,30.4-3.5,7.8-9.5,15-17.7,18-7,3.3-14.8,2-22.3,2.2-.5-12.1,3.4-24.7,12.1-33.3Zm21.3-11c-2.3,1.7-5.3,2.7-6.9,5.2-5.5,2.9-9.4,8.1-13.6,12.7-5.5,6.3-7.7,14.7-8.6,22.8,4.8-.2,9.6-.7,14.3-2,7.2-1.9,12.4-7.9,16.1-14,4.7-7.7,4.2-17.2,3.2-25.8-1.6-.1-3.2.3-4.6,1Z" fill="#d3701e"/>
  <path d="m650.7,507.5c1.4-.7,3-1.1,4.6-1,1,8.6,1.5,18.1-3.2,25.8-3.7,6.1-8.9,12.2-16.1,14-4.6,1.3-9.5,1.8-14.3,2,.9-8.1,3.1-16.6,8.6-22.8,4.1-4.6,8-9.8,13.6-12.7-3.7,6.5-10.7,10.4-14,17.3,6-2.5,10.5-8,17.2-8.9,1.4-.6,2.2.9,3,1.8-8.6,1.2-16.3,6.4-22.1,12.7-3.8,2.2-4,7.1-3.8,11,5.5-.7,11.5-.8,16.3-4.1,5.6-4.4,10.4-10.1,12.8-16.9.9-5.5,1.1-11.1,1.1-16.7-1.2-.5-2.4-.9-3.6-1.4Z" fill="#fab11b"/>
  <path d="m643.8,512.7c1.6-2.5,4.6-3.6,6.9-5.2,1.2.5,2.4.9,3.6,1.4,0,5.6-.2,11.2-1.1,16.7-2.3,6.8-7.1,12.6-12.8,16.9-4.8,3.3-10.8,3.4-16.3,4.1-.2-3.9,0-8.7,3.8-11,1.3,0,2.7,1.2,4,.5,3.3-1.6,6.2-3.9,9.4-5.8,3.2-2.1,7.2-3.6,8.7-7.5-.7-.9-1.6-2.4-3-1.8-6.7.8-11.2,6.4-17.2,8.9,3.3-6.8,10.3-10.8,14-17.3Z" fill="#fab605"/>
  <path d="m443.7,516.2c1-.8,2.1-1.5,3.1-2.3,2.6,5,4.1,10.8,8.6,14.6,4.2,3.9,10.5,4.6,15.9,3.1,3.8-1.3,6.3-4.7,9.2-7.3,1.6,6,3.4,12.1,7.1,17.1,5.2,7,11.5,13.3,18.9,18,3.5,2,7.6,4.5,11.8,3.1,5.6-2.8,7.3-9.3,9.5-14.6,2.3-5.6,2.9-11.9,6-17.2,3.4,6.2-.5,12.9-1.3,19.3,4.7,2.1,9.6,3.8,14.5,5.3,1.6,1.2,3.2,2.4,4.9,3.6-.8.7-1.5,1.4-2.3,2.1-6.7-1-13-3.6-18.9-6.7-1.5,3.3-3,6.7-4.5,10,7.9,4,16.3,7,25,8.4-.3,1.8-.8,3.6-1.1,5.4-9.3-3-19.7-5-27.1-12-3,2.5-7,4.3-11,3-9.8-3.1-17.1-10.8-23.9-18.1.4,4.6-.5,9.8-4.3,12.8-3.2,2.3-7.4.8-10.3-1.3-8.6-5.9-14-15.2-19.1-24-4.2-7.1-10.1-13.8-10.6-22.4Zm16.4,21.6c2.5,5.5,5.7,10.8,9.8,15.2,2.7,2.6,6,5.3,9.9,5.5,4.1-1.1,7.1-6.4,5.1-10.4-2.1-5.5-4.3-11-5.6-16.8-3.9,6.4-12.4,8.3-19.3,6.4Z" fill="#4f290b"/>
  <path d="m576.4,521.4c.4.1,1.1.3,1.5.5,1.6,5.6,2.9,11.4,2.6,17.2.2,1.8-1.6,2.6-2.6,3.8-1.8-4.4-1.5-9.2-2.5-13.8-.6-2.6-.6-5.4.9-7.6Z" fill="#cd6932"/>
  <path d="m223,529.1c1.9-2.6,3.9-5.1,5.6-7.9,1.1,8.4,2,17,5.3,24.9,1.2,3.2,2,6.5,2.8,9.8-1.6-2.9-3.8-5.5-5.6-8.3-1.7-2.6-.9-6-1-8.9-1.6.7-3.2,1.3-4.7,2-1.3-3.8-1.8-7.7-2.3-11.7Z" fill="#bc9566"/>
  <path d="m237.8,521.8c4.2,3.7,2.6,10.4,7,13.9,2.4,6.2,6.1,11.9,7.9,18.3-4,4.7-.7,10.9,1.6,15.5,4.1,7.1,10.1,14.9,19,15.5,5.5,2.5,8.6,8,13,11.9,9.9,9.5,19.8,20.4,33.6,23.9,6.8,1.5,13.9,3,21,2.4,2.5-1.2,2.6-3.8,2-6.2.4,1.3.7,2.7,1.1,4,5.7-.8,11.3.6,16.9,1,5.2.5,10.6.4,15.8,1.2,6.9,1,13.8.3,20.8.1.3,0,1,0,1.3,0,4.1,0,8.9.2,11.9-3.2,0,.5-.1,1.6-.2,2.2,1.4-1,3.5-1.7,3.8-3.6,3.1,2.2,7,1.6,10.6,1.5,6.7-.4,13.6-.5,19.8-3.1,6.4-2.4,12.1-6.5,17.4-10.9,3.7-3.5,7.7-8.1,6.4-13.6v-1.3c6.8,6.2,13,13,20,19-14,13.8-32.3,22.9-51.5,26.8-2.1.4-4.4.9-6.1-.7-4.6-4.4-11.2-3.5-17-3-2.6.2-3,3.2-3,5.3,0,.8-.1,2.3-.2,3-11,2.8-22.4,3-33.7,3-19.9.2-39.5-4.8-58.2-11.3-16.9-6.8-33.1-16.3-45.9-29.4-10.8-11.4-20.7-24.2-25.6-39.4-4.3-14-8-28.3-9.4-42.9Z" fill="#c5a877"/>
  <path d="m627.9,535.7c5.8-6.3,13.4-11.5,22.1-12.7-1.4,3.8-5.5,5.4-8.7,7.5-3.2,1.8-6.1,4.2-9.4,5.8-1.3.7-2.7-.5-4-.5Z" fill="#c66d08"/>
  <path d="m460,537.8c6.9,1.9,15.4,0,19.3-6.4,1.3,5.8,3.5,11.2,5.6,16.8,2,4-1,9.2-5.1,10.4-4-.2-7.2-2.9-9.9-5.5-4.1-4.5-7.3-9.8-9.8-15.2Z" fill="#cd9d67"/>
  <path d="m86.2,536.4c2.4-.9,5-.3,7.5-.3,5.7.4,11.8-.6,17.2,1.8,4.3,1.9,8.8,3.7,12.7,6.4,4.1,3.9,8.6,7.8,10.9,13.1,2.4,4.8,6.1,9.6,5,15.4-1.7,3-5.3,4-8.4,4.8-10.6,1.7-22.3.8-31.4-5.4-2.4-1.9-5-3.6-7.1-5.9-4.3-6.1-7.1-13.2-9.6-20.3-1.2-3.4-.3-7.9,3.1-9.6Zm-1.9,4.2c0,1.1.2,2.2.3,3.3,2.5,8.4,5.9,17,12.7,22.8,8.4,7.6,20.6,9.9,31.5,8.4,3.6-.6,9.4-2.1,7.7-7-2.8-10.2-9.4-19.6-18.6-24.9-8.7-5.2-19.3-5.1-29.1-4.5-1.7,0-3.1,1.3-4.5,2Z" fill="#f5b184"/>
  <path d="m84.2,540.7c1.5-.7,2.8-2,4.5-2,9.8-.6,20.3-.6,29.1,4.5,9.3,5.3,15.9,14.7,18.6,24.9,1.7,4.9-4.1,6.4-7.7,7-11,1.6-23.1-.7-31.5-8.4-6.8-5.8-10.2-14.4-12.7-22.8-.1-1.1-.2-2.2-.3-3.3Zm4.8,2.8c2.5,7.5,5.4,15.4,11.8,20.5,8.6,6.8,20.5,8.8,30.9,5.9-.2-2.1-.4-4.3-1.5-6.2-4-7.6-9.9-14.7-18.1-17.9-7.3-3.2-15.4-2.5-23.1-2.3Z" fill="#d7741f"/>
  <path d="m89,543.5c7.7-.2,15.8-1,23.1,2.3,8.2,3.1,14.2,10.3,18.1,17.9,1.1,1.9,1.3,4.1,1.5,6.2-10.4,2.8-22.4.8-30.9-5.9-6.4-5-9.3-13-11.8-20.5Zm14.8,9.7c1.7,5,7,8,12.1,8.2,1.2-.8,1.2-1.5,0-2.2-3.5-2.8-7.5-5.2-12-5.9Z" fill="#fbb205"/>
  <path d="m226.9,547.8c2.3,5.2,6.8,9,9.2,14.2.8,3.7,1.7,7.3,2.3,11-5.3-5.9-8-13.5-10.8-20.8-.5-1.4-.5-2.9-.7-4.4Z" fill="#bc9672"/>
  <path d="m732.1,551.5c5.9.4,11.8,0,17.7.6,5,1.6,10,3.6,14.6,6.3,4.5,4.1,9.6,8.3,11.8,14.2,2.3,5.4,5.8,11.4,3.4,17.3-.5,1.6-2.5,1.8-3.8,2.3-12,1.9-24.8-1.2-34.3-9-3.7-4.4-8.1-8.6-9.7-14.3-1.3-4.4-5.1-8.1-4.1-12.9,0-2.3,2.2-4.1,4.4-4.5Zm-2.3,2.5c0,5.3,2.1,10.2,4.2,14.9,4.6,9.5,13.1,17.8,23.7,19.9,6.8,1.2,14.2,1.7,20.7-.9-.3-2.7-.7-5.3-1.8-7.8-3-7.4-6.7-15-13.5-19.6-9.5-7.1-22.1-7-33.4-6.5Z" fill="#f5b381"/>
  <path d="m103.8,553.2c4.5.8,8.5,3.1,12,5.9,1.3.7,1.3,1.5,0,2.2-5.1-.2-10.4-3.2-12.1-8.2Z" fill="#d37902"/>
  <path d="m729.9,554c11.3-.6,23.9-.6,33.4,6.5,6.8,4.6,10.5,12.2,13.5,19.6,1,2.5,1.5,5.1,1.8,7.8-6.6,2.6-13.9,2.2-20.7.9-10.6-2.1-19.1-10.3-23.7-19.9-2.1-4.7-4.3-9.7-4.2-14.9Zm4.9,4.3c1.8,7.9,6.1,15.2,12.3,20.4,6,5,14.1,6.6,21.8,6.9,1.7,0,4.6,0,4.1-2.5-1.4-5.9-4.8-11.2-8.8-15.6-7.7-7.7-19-9.6-29.5-9.2Z" fill="#d6741e"/>
  <path d="m526,564.3c1.5-3.3,3-6.7,4.5-10,6,3.1,12.2,5.7,18.9,6.7.6.1,1.9.4,2.5.5-.1,3.8-.5,7.5-1,11.2-8.7-1.4-17.1-4.5-25-8.4Z" fill="#cc9e70"/>
  <path d="m734.8,558.3c10.4-.4,21.8,1.5,29.5,9.2,4,4.4,7.4,9.7,8.8,15.6.5,2.5-2.5,2.5-4.1,2.5-7.7-.2-15.8-1.8-21.8-6.9-6.3-5.1-10.5-12.5-12.3-20.4Zm19,11.9c.4,4.7,6.9,8.1,10.8,5.8-2.5-3.3-7.1-4.2-10.8-5.8Z" fill="#fbb307"/>
  <path d="m420.7,561.5c4.3,4.5,10,7.8,16.2,9.1,3.2.7,6.5-.2,9.3-1.7.5,1.1,1,2.2,1.5,3.2-4.5,2.6-9.5.4-14.1-.8-3.6-1-6.8-2.9-10-4.7-.9,2.4-1.7,4.9-2.4,7.4-.2-1.4-.3-2.8-.4-4.1,0-2.8,0-5.6,0-8.4Z" fill="#f2daac"/>
  <path d="m449.4,563.3c4.3,9.3,11.1,17,16.9,25.3-2.8-.7-5.7-1.6-8.5-.2-3.4-5.4-7.3-10.6-10.2-16.3-.5-1.1-1-2.2-1.5-3.2,1.3-1.7,2.3-3.6,3.3-5.6Z" fill="#c8a477"/>
  <path d="m421.1,574c.7-2.5,1.5-5,2.4-7.4,3.2,1.8,6.5,3.7,10,4.7,4.6,1.2,9.6,3.4,14.1.8,3,5.7,6.8,10.9,10.2,16.3,2.2,3.4,6.4,6,10.5,4.2,1.3,5.5-2.7,10.1-6.4,13.6-5.2,4.4-10.9,8.4-17.4,10.9-6.2,2.6-13.2,2.7-19.8,3.1-3.6,0-7.5.6-10.6-1.5-1.5-.5-2.6.4-3.6,1.5-3,3.4-7.8,3.2-11.9,3.2.4-4.4-.2-9.4-3.9-12.4-1-1.2-2.5-.4-3.7-.3,2.6,4,4.6,8.2,6.3,12.7-6.9.2-13.9.9-20.8-.1-5.2-.9-10.5-.8-15.8-1.2-5.6-.4-11.2-1.8-16.9-1-.4-1.4-.7-2.7-1.1-4-.9-3-2.4-6-5-7.8-1.5.3-2.5,1.9-1.5,3.3,1.7,3.5,3.9,6.8,4.6,10.8-7,.6-14.1-.9-21-2.4-13.8-3.5-23.8-14.3-33.6-23.9,1.9-1.1,3.8-2.2,5.8-3.2,4.5,3.1,10.6,3.4,15.5,1,7.1-3.2,11.8-10.4,12.9-18,3.5,6.2,9.8,12.3,17.5,11.1,5.6-.7,9.1-5.7,11.1-10.5,1.7,3.9,3.7,7.9,7.1,10.5,4.6,3.7,11.4,5.4,16.7,2.3,5.8-3.4,8.5-10.1,9.7-16.4,5.1,9.2,16.2,16,26.8,12.9,7.2-2,10.4-9.8,11.3-16.6.1,1.4.2,2.8.4,4.1Z" fill="#f4d194"/>
  <path d="m485.3,568.7c2.4-.5,3.9,2,5.6,3.3,12,12.2,27.6,19.9,43.4,26.2-.8.6-1.6,1.2-2.5,1.8-1.7-1-3.3-2-5-2.9-.5.2-1.5.7-2,1,1,1,2,2,3,3-.5,0-1.5.1-2,.1-14.4-7.5-29.1-15.7-39.3-28.8-.8-1.1-1.2-2.4-1.1-3.8Z" fill="#51270b"/>
  <path d="m753.7,570.2c3.7,1.6,8.2,2.5,10.8,5.8-3.9,2.3-10.3-1.1-10.8-5.8Z" fill="#d57701"/>
  <path d="m273.3,585c3.7-1.9,6.7-4.7,9.3-7.9.7,6.5,4.3,12.6,9.5,16.6-1.9,1-3.8,2.1-5.8,3.2-4.3-4-7.5-9.4-13-11.9Z" fill="#eece9c"/>
  <path d="m523.2,579.6v-2.6c7.2,3.3,14,7.3,21.6,9.4-.4.5-1.3,1.4-1.7,1.9.7.7,1.3,1.4,2,2.1,0,.4,0,1.3,0,1.7-7.7-3.4-15.6-6.9-22-12.6Z" fill="#552a0b"/>
  <path d="m183.9,598.2c1.2-1.5,2.3-3.2,4-4.2,3.6.3,7,2,10.6,2.5,8.3,1.6,17.2,3.3,23.6,9.3,2.4,2.4,6.1,3.3,7.5,6.6,2.6,4.8,7.1,10.1,4.6,16-10,2.2-20.5,2.4-30.4-.3-4.2-1-6.3-5.1-9.6-7.5-2.3-1.6-3-4.4-4.4-6.7-3.3-4.7-3.8-10.5-6-15.8Zm3.7-1.4c-1.1,3.4.6,6.8,1.7,9.9,2.6,6.9,6.6,13.7,12.9,17.7,9.4,4.4,20.4,4.1,30.3,2.1-.1-2.1.1-4.3-1.2-6-4.5-7-11-12.7-18.2-16.8-6.2-3.6-13.4-4.7-20.4-5.5-1.8,0-3.4-1.9-5.2-1.4Z" fill="#f8b085"/>
  <path d="m642,595c2.4.7,4.6,1.8,6.9,2.6,9.4,0,19.7,0,27.6,5.7,3.3,2.3,7.5,3.6,9.6,7.3,4.1,4.8,7.2,10.5,9.3,16.5.3,2.1.8,4.9-1.4,6.2-3.2,2.7-7.5,1.1-11.2,1.2-5.1.2-10.1-1.3-15-2.3-4.8-.8-8.7-4-12.7-6.4-4.4-3.6-8.1-8.3-10.6-13.5-2-3.7-4.7-7.2-5.4-11.4-.4-2.4,1.6-4.1,2.9-5.9Zm-.9,3.2c2.8,9.3,7.6,18.2,15.2,24.3,5.9,5.3,13.8,7.8,21.5,8.8,5.2.6,10.5,1.1,15.6,0-.9-10.2-7.7-19.3-16.1-24.7-7.8-5.7-17.8-8-27.4-6.7-3.1.6-5.9-1.1-8.8-1.7Z" fill="#f6b286"/>
  <g>
    <path d="m187.5,596.8c1.8-.5,3.4,1.3,5.2,1.4,7,.8,14.2,1.9,20.4,5.5,7.2,4.1,13.7,9.8,18.2,16.8,1.3,1.8,1.1,4,1.2,6-10,2-20.9,2.3-30.3-2.1-6.4-4-10.3-10.8-12.9-17.7-1.2-3.1-2.8-6.5-1.7-9.9Zm4.9,6.1c1.3,4.9,4.3,9.2,7.2,13.2,6.7,7.6,17.9,7.4,27.2,6.9-.7-3-3.3-4.7-5.5-6.6-4.4-3.6-8.5-7.8-13.8-10.1-4.8-2.1-10-2.8-15.1-3.5Z" fill="#e87c43"/>
    <path d="m385.4,755.8c6.4-3.9,14-5.1,21.3-5.7,4.6-.9,9.3.1,13.6,1.6,0,2,.3,4.2-1.2,5.8-8.1,10.6-20.2,18.6-33.7,20.1-5.2.6-10.6,1.1-15.8.6-2,0-3.1-2.5-1.7-4,4.4-7.3,9.8-14.4,17.4-18.4Zm16.1-.2c-6.6,1.8-13.5,3.7-18.7,8.4-3.2,2.9-7,5.2-8.8,9.3,1.6.3,3.2.5,4.8.2,8.3-1,16.6-3.2,23.8-7.6,4.7-3.1,8.7-7.1,13-10.8-4.7-.4-9.5-.7-14.1.5Z" fill="#e87c43"/>
  </g>
  <path d="m524.8,598.1c.5-.2,1.5-.7,2-1,1.7,1,3.3,1.9,5,2.9.8-.6,1.6-1.2,2.5-1.8,2.5.8,5,1.5,7.4,2.5,2.2,1.4,4.5,2.4,7,3.1-1.6.6-3.1,1.2-4.7,1.8,1.7.8,3.3,1.5,5,2.3-1.8.4-3.6.8-5.4,1.1-6.2-1.9-12.2-4.5-17.9-7.7.5,0,1.5-.1,2-.1-1-1-2-2-3-3Z" fill="#5c3211"/>
  <path d="m641,598.3c2.9.6,5.7,2.3,8.8,1.7,9.5-1.2,19.6,1,27.4,6.7,8.5,5.4,15.3,14.5,16.1,24.7-5.2,1.1-10.5.6-15.6,0-7.8-1-15.6-3.5-21.5-8.8-7.6-6.2-12.4-15.1-15.2-24.3Zm6.9,5.7c2.4,6.4,6.9,11.7,12.3,15.7,7.4,6.7,18,7.8,27.6,7-1.6-7.7-8.2-13.1-14.4-17.3-7.4-5.1-16.7-6.1-25.5-5.5Z" fill="#e57b3f"/>
  <path d="m192.4,602.9c5.1.7,10.3,1.4,15.1,3.5,5.3,2.3,9.4,6.5,13.8,10.1,2.2,1.9,4.8,3.6,5.5,6.6-9.3.6-20.5.7-27.2-6.9-2.9-4.1-5.9-8.3-7.2-13.2Z" fill="#f59753"/>
  <path d="m647.9,603.9c8.8-.7,18.1.3,25.5,5.5,6.2,4.2,12.8,9.6,14.4,17.3-9.6.8-20.2-.3-27.6-7-5.4-4-9.9-9.4-12.3-15.7Z" fill="#f69757"/>
  <path d="m336.3,612.4c-1-1.3,0-3,1.5-3.3,2.6,1.8,4.1,4.8,5,7.8.7,2.4.5,5-2,6.2-.7-3.9-2.9-7.3-4.6-10.8Z" fill="#56381c"/>
  <path d="m391.1,610.7c1.2-.1,2.7-.9,3.7.3,3.7,3,4.3,8,3.9,12.4-.3,0-1,0-1.3,0-1.6-4.4-3.7-8.7-6.3-12.7Z" fill="#3e1b02"/>
  <path d="m410.8,638.8c0-2.1.4-5.1,3-5.3,5.7-.5,12.4-1.3,17,3-.3,1.8-.6,3.5-.9,5.3-4-3.2-9.3-2.2-14.1-2.4l-.2,1.2c-1.6-.6-3.2-1.2-4.9-1.8Z" fill="#582f0f"/>
  <path d="m415.8,639.4c4.8.2,10.1-.8,14.1,2.4-.3,13-.6,26.1-.2,39.2-4.8,0-9.5,0-14.3,0,.3-13.4-1.1-26.9.2-40.3l.2-1.2Zm2.5,2.2c-2.6,3.9-1.6,9-1.8,13.4-.3,7.9.5,15.8.7,23.6,3.3,1.4,7,.9,10.4,0,1.2-10.5.4-21.1.8-31.6.9-5.4-6-7.2-9.9-5.5Z" fill="#f3ba43"/>
  <path d="m418.4,641.6c3.9-1.7,10.8,0,9.9,5.5-.4,10.5.4,21.1-.8,31.6-3.4,1-7,1.4-10.4,0-.1-7.9-1-15.8-.7-23.6.2-4.5-.8-9.5,1.8-13.4Z" fill="#fdaf00"/>
  <path d="m429.9,641.7c2.4,1.2,1.6,4.1,1.8,6.3-.2,8.7-.3,17.3-.1,26,.2,3.6-1.7,7.2-.3,10.8-5.3.9-10.8.7-16.1.8.1-1.5.2-3.1.3-4.6,4.8,0,9.5,0,14.3,0-.4-13.1-.1-26.1.2-39.2Z" fill="#682803"/>
  <path d="m330.1,644.9c3.7,1.2,7.4,2.2,11.2,3.3.2,9.8,0,19.6.1,29.3-3.9-.3-7.8-.5-11.7-.8-.2-10.6-.8-21.3.4-31.9Z" fill="#f8ad07"/>
  <path d="m341.3,648.2c.5.2,1.5.5,2,.6,1,5.3.5,10.8.6,16.2,0,4.7.8,10-2.5,13.9,2,1,4,2,6,2.9-.5,3.4-.4,7-1.6,10.2-3.8,2.8-8.8,2.8-13.3,3.2-3.9-.7-7.4-3.1-10.7-5.3-.5-2.3-.4-4.6-1.6-6.7v-.5c.9-1.7,2.1-3.2,3.1-4.7,1.6,1.7,3.4,3.2,5.9,2.8.2-1.4.4-2.7.5-4.1,3.9.2,7.8.5,11.7.8-.1-9.8,0-19.6-.1-29.3Zm-14.8,34.2c-1.7,3.1-1.2,7.9,2.5,9.3,4.2,1.1,8.8.7,12.8-.8,2.9-1.1,3.6-4.8,2.5-7.3-1.7-2.9-5.6-2-8.5-2.3-3,.2-6.9-.8-9.3,1.2Z" fill="#582603"/>
  <path d="m347.2,649.3c20.6,3.5,41.8,3.8,62.5.4-.2,10.8-.5,21.6,0,32.3-.4.3-1.3.8-1.7,1.1-6-1.1-12.1-.6-18.2-.6-13,.2-25.9.1-38.9.2-1.1-1.1-2.2-2.1-3.2-3.2-.8-2.8,0-5.6,0-8.5,0-7.2-.3-14.5-.4-21.7Z" fill="#e1b699"/>
  <path d="m108.9,654.1c2.8-2,6.4-1.2,9.6-.9-.2,2.4-.2,5.5-2.9,6.7-4.5,2.4-8.3,6.4-13.5,7.5-3.5.8-7.6,1.5-10.6-1-2.7-1.4-2.3-6.5,1.1-6.5,5.6-1.2,11.2-2.7,16.1-5.7Zm-2,4.1c-4.6,2.7-10,3.7-14.9,5.7,1,1.1,1.9,3.1,3.8,2.4,8-1.1,15.2-5.5,21.2-10.8-3.7-1.9-6.9,1.3-10.1,2.8Z" fill="#f5b089"/>
  <path d="m106.8,658.2c3.2-1.5,6.4-4.7,10.1-2.8-6,5.3-13.2,9.7-21.2,10.8-1.9.7-2.8-1.3-3.8-2.4,4.9-2,10.2-3,14.9-5.7Z" fill="#c36c30"/>
  <path d="m622.1,662.3c3.5-1.7,7.3-2,11.1-1.8.1,1.1.3,2.2.4,3.4-3.8.4-8.5,1.3-11.5-1.6Z" fill="#9f2320"/>
  <path d="m144.1,670.5c15.3-1.9,31.2,2.5,43.9,11.1,3.7,1.6,7.9,3.2,9.7,7.1l-.4,1c-13.9-8.1-28.5-17.1-45.1-17.4-13.4-1.1-24.6,7.5-35.4,14-1.6,1-3.3,2-4.9,2.9-.2-.4-.5-1.2-.6-1.6,4.4-4.4,9.8-7.6,15-11,5.4-3.4,11.8-4.2,17.8-6.2Z" fill="#faa792"/>
  <path d="m116.9,686.5c10.8-6.5,22-15.1,35.4-14,1.4.8,2.8,1.6,4.2,2.4-3.4-.3-6.8-.1-10.1.9-6.6,1.3-12.6,4.6-18.2,8.1-2.9,1.7-5.8,3.2-8.7,4.9.6.1,1.8.4,2.3.5-1.5.2-2.9.5-4.4.8-.2-1.2-.4-2.4-.5-3.6Z" fill="#981a0f"/>
  <path d="m152.3,672.5c16.6.3,31.2,9.3,45.1,17.4-3.9,5.2-9.8,8.3-15.4,11.4-9.8,5.3-20.8,7.6-30.7,12.7-1.2.5-2.4.8-3.5,1.2-11.8-6.7-24.9-10.8-37.1-16.5.7-1.2,1.4-2.4,2.1-3.5,0,0,.2-.1.3-.1,5.5,3.3,11.9,4.6,17.8,7.1,6.2,2.2,11.8,5.6,17.8,8.3,14.3-6.8,29.8-11,43.2-19.6-3.5-.3-6.9-.8-10.4-1.3,2.8-.2,5.5-.5,8.3-.7-2.1-.5-4.2-1.1-6.3-1.7.8,0,2.4-.2,3.2-.3-12.7-5.8-25.9-12-40.3-11,3.3-1,6.7-1.2,10.1-.9-1.4-.8-2.8-1.6-4.2-2.4Z" fill="#aa2317"/>
  <path d="m128.2,683.8c5.7-3.5,11.6-6.8,18.2-8.1,14.3-1,27.6,5.1,40.3,11-.8,0-2.4.3-3.2.3-9.9-1.1-19.9-.2-29.9.3.9-1.1,1.9-2.1,2.8-3.2,0-.4,0-1.2,0-1.7-6.2-.4-11.9,2.5-18.1,2.2-3.4.1-6.9.1-10.2-.8Z" fill="#f95642"/>
  <path d="m637.7,680c6.1-2.5,12.6-4.5,19.2-4,6.3,0,12.3,1.8,18.5,2.5,8.3,1.4,14.8,7,21.7,11.4,4.5,4.4,9,8.9,13.4,13.4,1.3.9.9,2.6,0,3.6l-.2.2c-.4-.5-1.3-1.5-1.7-2.1-9.9-11.2-22.4-20.8-37.2-24.4-8.4-1.4-17.4-3.2-25.8-.6-7.9,2.6-15.2,6.6-22.1,11.2-1.1-.4-2.2-.8-3.3-1.2,1.2-1.1,2.6-1.9,4-2.6,4.6-2.2,8.6-5.5,13.4-7.5Z" fill="#faab97"/>
  <path d="m733.8,676.2c19.2,6.4,38.3,13.4,57.6,19.4,4.8,1.5,9.6,2.8,14.2,4.8-.5,1.2-1,2.3-1.5,3.5-10.5-2.5-20.9-5.6-31-9.2-13.7-4.3-27.2-9.3-40.6-14.4.4-1.4.8-2.7,1.2-4Z" fill="#502714"/>
  <path d="m645.8,680.1c8.4-2.6,17.3-.9,25.8.6,1.1,1.2,2.2,2.4,3.3,3.6-.5,0-1.6,0-2.2,0-5.9-1.3-11.8-2.3-17.9-2.4-6.5-.1-12.4,3.2-18,6-9,4.2-16.4,11.2-25.3,15.6,7.6,3.6,16,5,24.2,6.8,6.3,1.3,11.9,4.9,17,8.7,2.1,1.5,4,3.8,3.7,6.6-.3.3-1,1-1.4,1.3-4.7-5.7-11.2-9.9-18.3-11.6-5.9-1.5-12-2-17.9-3.7-2.5-.8-4.9-1.6-7.4-2.4l1.2-.2c-1.8-1.3-3.8-2.4-5.3-4,1.3-3,4.4-4.8,6.4-7.3,3.2-2.2,6.6-4.1,9.8-6.4,6.9-4.6,14.3-8.6,22.1-11.2Z" fill="#a71c11"/>
  <path d="m347.7,679.5c1.1,1,2.2,2.1,3.2,3.2,1.6,5-1.4,10.6-5.8,13.1.9,3.7,1.9,7.4,1.4,11.2-.3,2-2.9,2.3-4.4,1.7-3.2-2.8-4.4-7.9-9-8.9-.6,2.9-1.4,5.7-2.3,8.5-1.9-.5-4.4-.7-5.4-2.8-1.7-3.5-1.6-7.5-2.3-11.3-1.1-.8-2.2-1.5-3.2-2.4-.8-2.8-.5-5.8.2-8.6,1.2,2.1,1.1,4.4,1.6,6.7,3.3,2.2,6.8,4.6,10.7,5.3,4.5-.4,9.6-.5,13.3-3.2,1.2-3.2,1.1-6.8,1.6-10.2,0-.6.2-1.8.2-2.4Z" fill="#422a17"/>
  <path d="m671.5,680.6c14.7,3.5,27.3,13.2,37.2,24.4-3.5,1.9-7.3,1-11,.3,1.8,0,3.6,0,5.4,0-3.1-3.7-6.9-6.8-10.8-9.6-6.2-4.4-12.5-8.7-19.6-11.3.5,0,1.6,0,2.2,0-1.1-1.2-2.2-2.4-3.3-3.6Z" fill="#b02618"/>
  <path d="m138.4,684.6c6.2.3,11.9-2.6,18.1-2.2,0,.4,0,1.2,0,1.7-11.2,3.2-23,3.5-34.5,5.2-.6-.1-1.8-.4-2.3-.5,2.9-1.7,5.8-3.3,8.7-4.9,3.3.9,6.8.9,10.2.8Z" fill="#f86053"/>
  <path d="m297.8,683.3c7.5-.5,15-1.1,22.5-.6v.5c-.9,2.8-1.2,5.8-.4,8.6,1,.9,2.1,1.6,3.2,2.4.7,3.8.6,7.8,2.3,11.3,1,2,3.4,2.2,5.4,2.8.9-2.8,1.6-5.6,2.3-8.5,4.6.9,5.8,6,9,8.9,1.5.6,4.1.3,4.4-1.7.5-3.8-.5-7.6-1.4-11.2,4.4-2.5,7.4-8.1,5.8-13.1,13,0,25.9,0,38.9-.2,6.1,0,12.2-.4,18.2.6-2.1,3.9-2.3,8.8-1.2,13,.6,2.8,3.4,4,5.6,5.3-.9,4-1.6,8.6.7,12.3,1.4.7,3.7,1.3,4.7-.3,1.2-2.4,2.4-4.9,4-7.1.4.1,1.3.3,1.8.4,2.1,2.8,4.1,5.7,6.4,8.3,3.9-2.9,4-8.1,2.3-12.2-.1-.4-.4-1.3-.5-1.8,2-2.1,4.2-4.1,5.6-6.8,1.7-3.3,1.6-7.3.5-10.8,3.8-1.5,8,0,12-.2,23.6,0,47.2.9,70.7,1.1,23.4.5,47-.3,70.3,2.4,9.5.8,19,1.8,28.4,2.8-3.1,5.3-9.7,6.6-13.4,11.3-1.5,1.1-2.9,2.4-2.8,4.4,2.8,1.4,5.5,2.8,8.5,3.7,2.4.8,4.9,1.7,7.4,2.4-1.8,1.2-4.1.8-6.1,1-5.1.1-10,1.2-15,1.8-15,1.5-30,3.6-45,5.2-16,1.9-32,2.4-48,3.3-5.9,1-12,.4-17.9,1.1-8.3,1.1-16.7.2-25,1.3-13,.7-26,.2-39,1.1-20.7,0-41.4.6-62.1-.6-21.7-.2-43.4-1.2-64.9-4.5-6.7-1.1-13.3-2.1-20.1-2.7-10-.4-20,0-29.9.8-10.6-1-21.3-.7-32-.9-12.4-.7-24.6-1.9-37-2.2-8.5-1.5-17.3.2-25.6-2.3,9.9-5.1,20.9-7.4,30.7-12.7,5.6-3.1,11.6-6.1,15.4-11.4l.4-1c15.2-2.2,30.6-3.1,45.9-3.5,18-1.2,36.1-1.7,54.1-2Zm-41.6,15.9c.3,1.8-.5,4,1,5.4,2.8,2.8,6.7,4.3,10.6,5,6.2,1.1,13,2,18.8-1,.5-4.4-3-7.8-6.8-9.3-6-2.5-12.6-2-18.9-1.8-1.7,0-3.2,1-4.6,1.8Zm296,1.9c-2.5,1.4-6.1,2.2-6.4,5.5,4.1,2.7,9.2,3.1,13.9,2.1,3.6-.6,8.2.2,10.5-3.3,2.6-2.4-.7-6.2-3.6-6-4.9,0-10.1-.9-14.5,1.6Z" fill="#8b997a"/>
  <path d="m326.5,682.4c2.4-1.9,6.3-.9,9.3-1.2,2.8.3,6.8-.6,8.5,2.3,1.1,2.6.5,6.3-2.5,7.3-4,1.5-8.6,2-12.8.8-3.7-1.4-4.3-6.2-2.5-9.3Z" fill="#f2aa14"/>
  <path d="m636.8,687.9c5.7-2.8,11.5-6.2,18-6,6,.1,12,1,17.9,2.4,7.1,2.7,13.4,7,19.6,11.3,3.9,2.8,7.7,5.9,10.8,9.6-1.8,0-3.6,0-5.4,0-7.6-1.4-15.2-3.3-23-3.7-7-.6-12.1-5.9-17.5-9.7,1.2,2.8,3.2,5.2,5.5,7.1-4.7-.4-9.3.1-14,.2-5.2.2-10.1-2-15.4-1.8,10.9,7.6,24.9,1.8,36.7,6.3-4.9,1.5-9.9,2.6-14.4,5,9.1,1,17.8-6.1,26.7-1.9-3.5,2.1-7.1,3.8-10.7,5.7,3.6,0,7.4-.3,10.5-2.2,2.1-1,3.9-3.3,6.5-2.6,5.4.8,10.8.8,16.1,2-.5.8-1,1.6-1.4,2.4-6.9,5.4-14.7,10-23.5,11.3-8.6,1.5-17,3.2-25.6,4.8.2-.3.6-.8.8-1.1.3-.3,1-1,1.4-1.3.3-2.8-1.6-5-3.7-6.6-5.1-3.8-10.7-7.3-17-8.7-8.2-1.8-16.6-3.2-24.2-6.8,8.9-4.4,16.3-11.4,25.3-15.6Z" fill="#fb5e45"/>
  <path d="m121.9,689.3c11.5-1.7,23.3-2,34.5-5.2-.9,1.1-1.8,2.2-2.8,3.2,9.9-.5,19.9-1.4,29.9-.3,2.1.6,4.2,1.2,6.3,1.7-2.8.2-5.5.5-8.3.7-8.9-.5-17.9,0-26.7.8-5.6.5-9,6.6-14.9,6.2,3.2-3.2,6.3-6.8,10.5-8.7-2.8.9-5.6,1.5-8.5,1.8-9.7,1.2-19.3,3.1-28.8,5.3,0,0-.2.1-.3.1-.7,1.1-1.4,2.3-2.1,3.5-1.3-.8-2.6-1.6-3.9-2.5,1.3-.7,2.6-1.3,3.8-2,0-.4-.2-1.2-.3-1.7-1.5-.3-2.9-.6-4.4-.9,2.1-.6,4.2-1.1,6.1-2.2,1.7-.9,3.3-1.9,4.9-2.9.2,1.2.4,2.4.5,3.6,1.5-.3,2.9-.5,4.4-.8Z" fill="#781a0b"/>
  <path d="m412.5,685.6c.6,0,2,0,2.6,0,5.4,0,10.8.1,16.1-.8,1.4,3.3,1.2,7.7-1.8,10-4.6,4.2-12,3.8-16.7.2-1.1-2.9-.2-6.3-.3-9.3Zm2.4,1.5c-2.5,1.8-1.3,6.3,1.1,7.8,5.3,4,14.6-.2,14.5-7-1.6-2.1-4.4-1.2-6.7-1.4-2.9.2-6.1-.5-8.9.6Z" fill="#f0b55a"/>
  <path d="m141.9,689.7c2.9-.4,5.8-.9,8.5-1.8-4.2,1.9-7.3,5.5-10.5,8.7,5.9.4,9.3-5.7,14.9-6.2,8.9-.9,17.8-1.4,26.7-.8,3.5.5,6.9,1,10.4,1.3-13.4,8.6-28.9,12.8-43.2,19.6-6-2.6-11.7-6-17.8-8.3-5.9-2.5-12.3-3.8-17.8-7.1,9.5-2.2,19.1-4.1,28.8-5.3Z" fill="#fc5d44"/>
  <path d="m414.9,687.1c2.8-1.1,5.9-.4,8.9-.6,2.3.2,5-.7,6.7,1.4.1,6.9-9.1,11.1-14.5,7-2.4-1.5-3.6-6-1.1-7.8Z" fill="#f9a90c"/>
  <path d="m619.3,689.7c.3,0,.8.3,1.1.4,1.1.4,2.2.8,3.3,1.2-3.2,2.2-6.6,4.1-9.8,6.4-2.5,1.5-5.2,2.6-8,3.4,3.7-4.8,10.3-6.1,13.4-11.3Z" fill="#c07e67"/>
  <path d="m74.6,699.9c10.4-2.8,20.7-6.1,31.3-8.3,1.5.2,2.9.6,4.4.9,0,.4.2,1.2.3,1.7-1.3.7-2.5,1.4-3.8,2-19.2,4.6-37.9,11.5-57.4,14.7-.5-1.2-.9-2.3-1.4-3.5,8.7-3.1,17.8-4.9,26.6-7.5Z" fill="#4d2711"/>
  <path d="m657.3,691.9c5.4,3.9,10.5,9.1,17.5,9.7,7.8.4,15.3,2.3,23,3.7,3.6.7,7.5,1.6,11-.3.4.5,1.3,1.5,1.7,2.1-1.1.9-2.1,1.8-3.2,2.7.4.5,1.1,1.4,1.5,1.9-3.8,5.2-9.2,9-14.9,11.9,3.2-3.7,8.9-6.1,9.5-11.5.4-.8.9-1.6,1.4-2.4-5.3-1.2-10.8-1.2-16.1-2-2.6-.6-4.4,1.6-6.5,2.6-3.1,2-6.9,2.3-10.5,2.2,3.6-1.9,7.2-3.6,10.7-5.7-8.9-4.2-17.6,2.9-26.7,1.9,4.5-2.3,9.6-3.4,14.4-5-11.7-4.5-25.8,1.3-36.7-6.3,5.2-.2,10.1,1.9,15.4,1.8,4.7,0,9.3-.6,14-.2-2.4-1.9-4.3-4.3-5.5-7.1Z" fill="#791309"/>
  <path d="m256.2,699.3c1.4-.9,2.8-1.9,4.6-1.8,6.3-.2,12.9-.7,18.9,1.8,3.8,1.5,7.3,4.9,6.8,9.3-5.8,3-12.6,2.1-18.8,1-3.9-.6-7.8-2.1-10.6-5-1.5-1.4-.7-3.6-1-5.4Zm3.3,2.6c2.6,4.3,7.9,5.1,12.4,6,3.7.6,8.3,1.7,11.1-1.6-2.3-3.9-6.9-5-11-6-4.2-1-9-1.5-12.5,1.6Z" fill="#ab9544"/>
  <path d="m605.8,701c2.8-.8,5.5-1.9,8-3.4-1.9,2.6-5.1,4.4-6.4,7.3,1.5,1.6,3.5,2.7,5.3,4l-1.2.2c-3-.9-5.7-2.4-8.5-3.7,0-2,1.3-3.4,2.8-4.4Z" fill="#7b2f19"/>
  <path d="m259.5,701.8c3.5-3,8.3-2.5,12.5-1.6,4.1,1,8.7,2.1,11,6-2.8,3.3-7.3,2.3-11.1,1.6-4.5-1-9.7-1.8-12.4-6Z" fill="#fabf0b"/>
  <path d="m423.6,706.7c2.3-1.8,4.2-4,5.8-6.4.7,1.6,1.4,3.3,2.1,4.9.2-.6.5-1.8.7-2.4,1.8,4.1,1.7,9.3-2.3,12.2-2.3-2.6-4.2-5.6-6.4-8.3Z" fill="#4b3121"/>
  <path d="m552.2,701.2c4.4-2.5,9.7-1.7,14.5-1.6,2.9-.2,6.1,3.6,3.6,6-2.3,3.5-7,2.7-10.5,3.3-4.7,1-9.9.6-13.9-2.1.3-3.3,3.9-4.2,6.4-5.5Zm-.1,2.3c-1.3.3-1.3,2-.7,2.9,5.2.9,10.6.2,15.7-1.1.5-.8,1-1.5,1.6-2.2-5.1-3.2-11.4-1.6-16.6.4Z" fill="#e0b23b"/>
  <path d="m552.1,703.5c5.2-2,11.5-3.5,16.6-.4-.5.7-1.1,1.5-1.6,2.2-5.1,1.3-10.5,1.9-15.7,1.1-.7-.9-.6-2.6.7-2.9Z" fill="#fbba0a"/>
  <path d="m710.4,707l.2-.2c21.2,3.7,42.1,8.6,62.8,14.4,0,1.2-.2,2.5-.3,3.8-12.7-1.6-24.9-6.1-37.5-8.6-8.9-1.7-17.7-4.2-26.8-4.8-.4-.5-1.1-1.4-1.5-1.9,1.1-.9,2.1-1.8,3.2-2.7Z" fill="#4c2714"/>
  <path d="m679.8,723.3c8.8-1.3,16.6-5.9,23.5-11.3-.5,5.4-6.3,7.8-9.5,11.5-1.9,1.6-4.3,2.4-6.6,3.3-1.7.6-3.4,1-5.1,1.3-2.5.2-4.9.3-7.3.6-6.6.9-13.1,2.6-19.7,4-1.2-1.3-2.5-2.7-3.7-4,.9-.2,1.9-.5,2.9-.6,8.5-1.5,17-3.3,25.6-4.8Z" fill="#a81e14"/>
  <path d="m133,719.5c.7-4.1,5.8-3.8,9-3.9,1.9.4,1.2,2.5,1.4,3.9-3.5.3-7,.7-10.4,0Z" fill="#ac2421"/>
  <path d="m636.8,715.3c7.1,1.8,13.6,6,18.3,11.6-.2.3-.6.8-.8,1.1-1,.2-1.9.4-2.9.6-3,.8-5.7,2.5-8,4.5,3.6,2.4,7.9,0,11.7-.5,6.5-1.4,13-3.1,19.7-4,1.3-.1,2.7-.2,4-.2,4.6,4.9,10.9,8.8,17.7,8.9-2.2-6.1-9.9-5.7-14.4-9.3,1.7-.4,3.5-.8,5.1-1.3,2.1,4,7.8,3.3,9.8,7.3.2,1.8,0,4.6-2.2,5.1-4.3.6-8-2.2-12-3.2-2.8-.7-3.8-4.5-7-4.5-5.2.3-9.8,3.4-15.1,3.8-5,.5-10,.8-14.8,2.4-2.2-1.4-5.5-4-3.5-6.9,2.2-2.1,5.2-2.9,7.7-4.6-2.4-2.2-5-4.2-8.1-5.4-2.3-1-5.5-2.3-5.3-5.4Z" fill="#f6af92"/>
  <path d="m256.1,722.4c5.3-2.4,11.4-1.3,17.1-1,9.6.2,17.9,6.8,27.6,6.6,2.9,0,5.8-.6,8.7-.5,1.7.4,2.8,1.7,4.2,2.7-1.2,4.3-3.6,8.1-5.6,12-1.6,3.5-5,5.7-7.1,9-2.9,4.2-7.7,6.6-10.1,11.1-4.6,1.3-8,4.9-12.5,6.3-12.5,6.5-27.2,5.1-40.6,2.7-8.1-2.4-16.7-.8-25-2.3-4.9-.9-9.8-.6-14.7-1.4-3.1-1.3-3.2-5.9-.6-7.8,3.2-1.8,7.2-1.7,10.3-3.8,7-5.3,14-10.6,20.3-16.7,3.8-3.8,8.5-6.2,12.8-9.2,4.6-3.4,10.5-4.4,15.2-7.7Zm.6,3.2c-14.8,5.2-26.9,15.7-38,26.3-4.4,3.6-9.1,7.5-14.8,8.4-2.5.6-5.2.9-7.2,2.6,1.5,1.8,3.8,2.5,6.1,2.5,12,.4,24.2.7,36,3.3,8.6,1.8,17.4,2.3,26.2,1.7,7.4-.8,14.2-4.2,20.4-8.1,10.5-6.8,18.2-17,24.2-27.7,1.1-1.6.8-3.6.8-5.4-2.9.2-5.8,1-8.7,1.5-4.5.5-8.9-1.1-13.1-2.4-.8.5-1.6,1.1-2.5,1.7l1.6-1.5c-9.8-3.3-20.7-6.1-31-2.9Z" fill="#f6b183"/>
  <path d="m562.5,723.7c3.5-.7,7.2-1.1,10.7,0,1.7.2,1.2,2.3,1.7,3.4-4.3.2-8.7,0-12.9-1.2.1-.6.4-1.7.5-2.3Z" fill="#b4221f"/>
  <path d="m107.2,724.6c3.3-.8,6.8-1,10,.1,0,.6-.2,1.8-.3,2.4-3.1.5-6.4.5-9.6.5,0-1-.1-2-.2-2.9Z" fill="#98241c"/>
  <path d="m256.7,725.6c10.3-3.2,21.1-.4,31,2.9l-1.6,1.5c.8-.6,1.6-1.1,2.5-1.7,4.2,1.3,8.6,2.9,13.1,2.4,2.9-.5,5.8-1.2,8.7-1.5,0,1.8.3,3.8-.8,5.4-6.1,10.7-13.8,21-24.2,27.7-6.2,3.9-13,7.3-20.4,8.1-8.8.6-17.6,0-26.2-1.7-11.8-2.6-24-2.9-36-3.3-2.3,0-4.5-.8-6.1-2.5,2-1.8,4.7-2.1,7.2-2.6,5.8-.9,10.5-4.8,14.8-8.4,11.2-10.7,23.2-21.1,38-26.3Zm-15.8,13.7c-7.1,4.7-12.4,11.6-19.5,16.3-2.7,2-5.9,3.1-8.8,4.9,4.4.9,8.8.8,13.2,1.4,13.7,1.6,27.4,6.2,41.2,3.5,11.9-1.9,21.7-9.9,29.2-19,2.4-3.1,5.9-5.9,6.4-10-1.7.2-3.4.4-5,.8-1.1-1-2.5-1.4-4.1-1.2.3-.3.8-1,1.1-1.3-10-3-20.1-6.6-30.7-5.9-8.7.7-16,5.9-23,10.6Z" fill="#cd6b19"/>
  <path d="m41.4,732.5c3.2-1.4,6.2-4,9.8-3.9,3.8,0,4.1,5.5,2,7.8-3.1,2.7-7.1,4-11,5.2-3.2.9-6,2.9-9.3,3.4-8.3,1.4-16.8,1.3-25-.6-2.9-.4-5.4-1.8-7.8-3.4.8-1.7.6-4.5,2.9-4.8,3.2-.7,6.6-.2,9.9-.1,9.6.4,19.6.3,28.5-3.6Zm-1.7,3.3c-11.4,4.4-23.8,2.7-35.6,2.5,0,.6,0,1.7.1,2.3,13,4.6,27.8,3.8,40.4-1.9,3.2-1.2,5.8-3.5,8-6,0-.6,0-1.8,0-2.4-4.7.6-8.3,4.2-12.8,5.5Z" fill="#f5b488"/>
  <path d="m524.1,728.5c5.9-1,11.8-.5,17.7.5,7-.1,13.2,3.4,19.6,5.5,3,1,4.6,3.9,7,5.6,7.2,3,12.4,9,17.2,14.9,2.2,2.5,4.9,4.7,6.5,7.6,1.4,2.4-.3,5.9-3.3,5.7-11.7.8-23.4,2.9-35.2,2.5-8.8-.2-17.9,1-26.5-1.5-4.5-2.1-8.8-4.9-12.8-7.8-4-2.6-6.9-6.6-10.2-9.9-3.8-4.6-8.3-8.6-11.3-13.8-1.9-2.3-4.3-5.7-1.7-8.5,3.5-1.6,7.3.2,11,0,7.3-.4,14.6-.3,22-.9Zm-32.5,4c1.8,1.5,4.2.9,6.3,1.1-.7,0-2,.2-2.7.3l-1.2-.3c0,2,1.3,3.4,2.5,4.8h.2c2.1,3.1,4.5,6,7.1,8.7,5.1,5.2,9.7,11,15.9,15,5.1,3.3,10.8,6.5,17.1,6.6,6,0,12,0,18-.1,11.7-.9,23.5-.8,35.1-3-.2-1-.5-1.9-.9-2.8-6.5-10.1-16.1-17.3-25.6-24.3-5.2-3.4-11.5-4.6-17.6-5.7l-.5.2c-8.3-1-16.7-1.3-25-.5-9.6.1-19.2-.3-28.8-.1Z" fill="#f3ad82"/>
  <path d="m674.8,728.7c2.4-.3,4.9-.4,7.3-.6,4.5,3.6,12.2,3.2,14.4,9.3-6.9-.1-13.1-4.1-17.7-8.9-1.3,0-2.7.1-4,.2Z" fill="#e07140"/>
  <path d="m240.9,739.3c7-4.7,14.3-9.9,23-10.6,10.6-.7,20.7,3,30.7,5.9-.3.3-.8,1-1.1,1.3-2.4.4-4.8,1-7.2,1.6-7.4,1.8-14.9,3.8-22.5,4.7-6.2.9-12.9-2.3-18.7,1.2-.6.2-1.2.3-1.8.5,1.5.9,2.9,1.8,4.4,2.7-4.8,1.2-9.7,2.2-14.4,3.9-.2,1.1-.4,2.1-.6,3.2.3-.1.8-.5,1.1-.6l1,.6c.5.3,1.6.9,2.1,1.2,4.3.2,8.6-1.4,12.8-2,0,.6-.2,1.7-.2,2.3-.6.9-1.2,1.7-1.8,2.6,2.3-.4,4.7-.8,6.8-1.9,4.8-1.6,6.5-7.5,11.5-8.8,1.8-1.1,3.1.6,4.6,1.4-.9,2.1-2.1,4.1-2.2,6.5,1.9-1,3.8-1.8,5.5-3.1,2.1-2,2.1-5.2,2.5-7.9,3.3-1,6.5-2,9.7-3.1,3.8-1.4,7.5-3,11.5-3.9,1.7-.3,3.4-.6,5-.8-.5,4.1-4,6.9-6.4,10-7.5,9.1-17.3,17.1-29.2,19-13.8,2.7-27.6-1.9-41.2-3.5-4.4-.6-8.8-.5-13.2-1.4,2.8-1.8,6.1-2.9,8.8-4.9,7.1-4.8,12.4-11.7,19.5-16.3Z" fill="#fab30b"/>
  <path d="m643.4,733.2c2.4-2,5-3.7,8-4.5,1.2,1.3,2.4,2.6,3.7,4-3.8.6-8.1,2.9-11.7.5Z" fill="#b03726"/>
  <path d="m39.7,735.8c4.5-1.3,8-4.9,12.8-5.5,0,.6,0,1.8,0,2.4-2.2,2.5-4.8,4.8-8,6-12.5,5.7-27.4,6.5-40.4,1.9,0-.6,0-1.7-.1-2.3,11.9.2,24.2,1.9,35.6-2.5Z" fill="#d46b29"/>
  <path d="m520.3,732.6c8.3-.8,16.7-.5,25,.5-3.6,2.1-7.9,2.2-12,2.5-6.4-.4-12.8.2-19.1-1,4.1-1.1,8.4-1.1,12.6-.9-2.1-.4-4.2-.8-6.4-1.1Z" fill="#b45513"/>
  <path d="m545.3,733.1l.5-.2c6.1,1,12.4,2.2,17.6,5.7,9.5,7,19.2,14.2,25.6,24.3.3.9.6,1.8.9,2.8-11.6,2.2-23.4,2.1-35.1,3-6,.1-12,.2-18,.1-6.3-.1-11.9-3.3-17.1-6.6-6.2-4-10.9-9.8-15.9-15-2.6-2.7-5.1-5.6-7.1-8.8,2.9-.8,5.8-.2,8.6.8-1.4,0-2.7.2-4.1.3,8.6,8.3,16.6,17.6,27.6,22.8,5.9,2.9,12.7,2.3,19,2.2,12.4-.7,24.8-.7,37.1-2.4-8.1-6.5-15.5-14.2-24.4-19.6-8.4-5.1-18.4-5.9-28-6.6h.8c4.1-.4,8.4-.5,12-2.7Z" fill="#d4721c"/>
  <path d="m496.5,738.3c-1.2-1.4-2.5-2.8-2.5-4.8l1.2.3c4.2,1.4,8.7,1.6,13.1,2.4.4,1.1.8,2.2,1.3,3.3-1.4-.2-2.9-.3-4.3-.5-2.8-1-5.7-1.6-8.6-.8h-.2Z" fill="#af5607"/>
  <path d="m495.2,733.9c.7,0,2-.2,2.7-.3,5.4.3,10.8,1,16.2,1,6.3,1.2,12.8.6,19.1,1h-.8c-3.5.9-7.1,1.1-10.7.9,11.6,5.8,24.9,6.1,36.5,12,3.2,1.7,7.7,2.7,8.9,6.7-7.4-4.7-15.4-8.9-24.2-10.2-11.7-2.2-22.7-7.3-34.5-8.7-4.4-.8-8.9-1-13.1-2.4Z" fill="#f5aa41"/>
  <path d="m286.2,737.5c2.4-.6,4.8-1.2,7.2-1.6,1.6-.2,2.9.2,4.1,1.2-3.9,1-7.7,2.6-11.5,3.9,0-1.2,0-2.4.1-3.6Z" fill="#924305"/>
  <path d="m521.8,736.5c3.6.2,7.2,0,10.7-.8,9.5.7,19.6,1.5,28,6.6,9,5.4,16.3,13.1,24.4,19.6-12.3,1.7-24.7,1.6-37.1,2.4-6.4.1-13.1.7-19-2.2-11-5.2-19-14.5-27.6-22.8,1.4-.1,2.7-.2,4.1-.3,1.4.2,2.9.3,4.3.5,5.4.8,10.6,2.6,15.8,4,3.7,1.2,7.9,2.1,10.6,5.2,2.9,3.3,5,7.5,9,9.7-1-2.1-2.1-4.2-3.4-6.2,1.9-1.6,4.2-2.5,6.7-2.8,3,.9,5.9,2.1,8.7,3.4,3.6,1.7,6.7,4.8,11,4.5-.2-.5-.6-1.7-.8-2.2-1.2-4-5.6-5-8.9-6.7-11.5-5.9-24.9-6.2-36.5-12Z" fill="#fbb109"/>
  <path d="m509.6,739.6c-.4-1.1-.9-2.2-1.3-3.3,11.9,1.4,22.9,6.4,34.5,8.7.1.4.3,1.3.4,1.8-.6.1-1.9.4-2.6.6-.6-.1-1.9-.4-2.5-.6,1.1,1.9,2.2,3.7,3.4,5.5,1.2,2,2.4,4,3.4,6.2-4-2.2-6.1-6.4-9-9.7-2.7-3-6.9-3.9-10.6-5.2-5.2-1.4-10.4-3.3-15.8-4Z" fill="#6d290a"/>
  <path d="m263.8,742.2c7.6-1,15-2.9,22.5-4.7,0,1.2,0,2.4-.1,3.6-3.2,1.1-6.5,2.1-9.7,3.1-.4,2.7-.4,5.8-2.5,7.9-1.6,1.3-3.6,2.1-5.5,3.1,3.2-2.4,4-6.4,4.7-10-3.6.4-7.3.4-10.6,1.8-2.6,2.1-4.4,5-6.6,7.5-1.4,0-2.7.1-4.1.2.6-.5,1.8-1.5,2.4-2,0-.5.1-1.6.2-2.2-.6.1-1.9.3-2.5.4-.2-1-.5-1.9-.7-2.9,2.6-.9,5.2-2,7.6-3.3-4.6-.2-9.3-.6-13.9-1.2,5.8-3.5,12.4-.3,18.7-1.2Z" fill="#672a09"/>
  <path d="m608.1,742.5c2.6-.7,5.2-1.2,7.9-.9,1.8.6,1.4,2.5,1.3,4-2.5,0-5.1.2-7.6-.1-1.9.3-1.5-1.9-1.7-2.9Z" fill="#d86f34"/>
  <path d="m243.3,744c.6-.2,1.2-.4,1.8-.5,4.6.5,9.2,1,13.9,1.2-2.5,1.2-5,2.4-7.6,3.3-5.8,2.1-12.3,1.9-17.6,5.3-.3.1-.8.5-1.1.6.2-1.1.4-2.2.6-3.2,4.7-1.7,9.6-2.6,14.4-3.9-1.5-.9-2.9-1.8-4.4-2.7Z" fill="#f7b429"/>
  <path d="m681,745.3c3.2-1.3,6.8-1.3,10.3-1.5,1.3,3.9-3.9,4-6.5,4.1-1.5-.3-4.8-.3-3.8-2.6Z" fill="#af3225"/>
  <path d="m262.6,746.9c3.3-1.4,7-1.4,10.6-1.8-.7,3.7-1.5,7.7-4.7,10,.1-2.3,1.2-4.4,2.2-6.5-1.4-.8-2.8-2.5-4.6-1.4-5,1.3-6.7,7.1-11.5,8.8.4-.4,1.1-1.2,1.4-1.6,2.2-2.5,4-5.4,6.6-7.5Z" fill="#f0c050"/>
  <path d="m542.9,745c8.8,1.3,16.8,5.5,24.2,10.2.2.6.6,1.7.8,2.2-4.3.3-7.4-2.8-11-4.5-2.8-1.4-5.7-2.5-8.7-3.4-2.5-.8-5-1.5-7.5-2.2.6-.1,1.9-.4,2.6-.6-.1-.4-.3-1.3-.4-1.8Z" fill="#8c3505"/>
  <path d="m538.2,746.7c.6.1,1.9.4,2.5.6,2.5.7,5,1.4,7.5,2.2-2.5.3-4.8,1.2-6.7,2.8-1.2-1.8-2.3-3.7-3.4-5.5Z" fill="#e5a93d"/>
  <path d="m233.7,753.1c5.3-3.4,11.8-3.2,17.6-5.3.2,1,.5,1.9.7,2.9-5.8,1-11.3,3.1-17.2,3l-1-.6Z" fill="#842d00"/>
  <path d="m252,750.8c.6,0,1.9-.3,2.5-.4,0,.5-.2,1.6-.2,2.2-.6.5-1.8,1.5-2.4,2-.8.2-1.6.4-2.4.7,0-.6.2-1.7.2-2.3-4.3.7-8.5,2.2-12.8,2-.5-.3-1.6-.9-2.1-1.2,5.9,0,11.5-2,17.2-3Z" fill="#e89c2f"/>
  <path d="m845.8,760c9.1-1.6,18-4.5,27-6.9,4.1.9,3,6.2.3,8.1-2.6,1.4-5.4,2.5-7.8,4.2-3.6,2.5-8.3,1.6-12.4,2.8-3.9,1.1-7.9.4-11.7-.4-.4-1.2-.7-2.3-1-3.5,1.6-1.7,3.1-4,5.7-4.2Zm21.4-2.6c-8,2.8-16.4,4.1-24.6,5.8,1,1.4,2.1,3.4,4.2,3.1,8.1-.5,16.4-2.1,23.6-5.7,2.2-.9,3.5-2.9,4.3-5.1-2.7-.1-5.1,1.1-7.6,1.9Z" fill="#f7b487"/>
  <path d="m249.5,755.3c.8-.3,1.6-.5,2.4-.7,1.3-.1,2.7-.2,4.1-.2-.4.4-1.1,1.2-1.4,1.6-2.2,1-4.5,1.4-6.8,1.9.6-.9,1.2-1.7,1.8-2.6Z" fill="#c26e08"/>
  <path d="m401.5,755.6c4.6-1.2,9.4-.9,14.1-.5-4.2,3.7-8.2,7.7-13,10.8-7.2,4.3-15.5,6.6-23.8,7.6-1.6.2-3.2,0-4.8-.2,1.8-4.1,5.6-6.5,8.8-9.3,5.2-4.7,12.1-6.6,18.7-8.4Z" fill="#f89754"/>
  <path d="m867.2,757.4c2.5-.9,4.9-2,7.6-1.9-.8,2.2-2.1,4.2-4.3,5.1-7.3,3.7-15.5,5.2-23.6,5.7-2.1.3-3.2-1.7-4.2-3.1,8.2-1.7,16.6-3.1,24.6-5.8Z" fill="#d46c2f"/>
  <path d="m492.8,782.9c3.2-1.8,7.1-2.2,10.6-1.2.5,3.9-4.1,3.2-6.6,3.2-1.7.2-2.9-1-4-2Z" fill="#a42022"/>
  <path d="m309.4,788.6c3.8-1.1,10.2-3.2,12.1,1.6-4,1.2-8.4,1.8-12.4.3,0-.5.2-1.5.2-2Z" fill="#a22423"/>
</svg>