<?xml version="1.0" encoding="UTF-8"?>
<svg id="Layer_1" data-name="Layer 1" xmlns="http://www.w3.org/2000/svg" viewBox="0 0 751.8 751.8">
  <rect width="30.1" height="180.4" fill="#231f20"/>
  <rect y="180.4" width="30.1" height="30.1" fill="#231f20"/>
  <rect y="240.6" width="30.1" height="60.1" fill="#231f20"/>
  <rect y="330.8" width="30.1" height="30.1" fill="#231f20"/>
  <rect y="390.9" width="30.1" height="120.3" fill="#231f20"/>
  <rect y="541.3" width="30.1" height="60.1" fill="#231f20"/>
  <rect y="601.5" width="30.1" height="90.2" fill="#231f20"/>
  <rect y="691.7" width="30.1" height="60.1" fill="#231f20"/>
  <rect x="30.1" width="30.1" height="30.1" fill="#231f20"/>
  <rect x="30.1" y="180.4" width="30.1" height="30.1" fill="#231f20"/>
  <rect x="30.1" y="330.8" width="30.1" height="30.1" fill="#231f20"/>
  <rect x="30.1" y="390.9" width="30.1" height="60.1" fill="#231f20"/>
  <rect x="30.1" y="541.3" width="30.1" height="30.1" fill="#231f20"/>
  <rect x="30.1" y="721.7" width="30.1" height="30.1" fill="#231f20"/>
  <rect x="60.1" width="30.1" height="30.1" fill="#231f20"/>
  <rect x="60.1" y="60.1" width="30.1" height="90.2" fill="#231f20"/>
  <rect x="60.1" y="180.4" width="30.1" height="30.1" fill="#231f20"/>
  <rect x="60.1" y="270.7" width="30.1" height="60.1" fill="#231f20"/>
  <rect x="60.1" y="360.9" width="30.1" height="60.1" fill="#231f20"/>
  <rect x="60.1" y="481.2" width="30.1" height="30.1" fill="#231f20"/>
  <rect x="60.1" y="541.3" width="30.1" height="30.1" fill="#231f20"/>
  <rect x="60.1" y="601.5" width="30.1" height="90.2" fill="#231f20"/>
  <rect x="60.1" y="721.7" width="30.1" height="30.1" fill="#231f20"/>
  <rect x="90.2" width="30.1" height="30.1" fill="#231f20"/>
  <rect x="90.2" y="60.1" width="30.1" height="90.2" fill="#231f20"/>
  <rect x="90.2" y="180.4" width="30.1" height="30.1" fill="#231f20"/>
  <rect x="90.2" y="240.6" width="30.1" height="30.1" fill="#231f20"/>
  <rect x="90.2" y="300.7" width="30.1" height="30.1" fill="#231f20"/>
  <rect x="90.2" y="451.1" width="30.1" height="60.1" fill="#231f20"/>
  <rect x="90.2" y="541.3" width="30.1" height="30.1" fill="#231f20"/>
  <rect x="90.2" y="601.5" width="30.1" height="90.2" fill="#231f20"/>
  <rect x="90.2" y="721.7" width="30.1" height="30.1" fill="#231f20"/>
  <rect x="120.3" width="30.1" height="30.1" fill="#231f20"/>
  <rect x="120.3" y="60.1" width="30.1" height="90.2" fill="#231f20"/>
  <rect x="120.3" y="180.4" width="30.1" height="30.1" fill="#231f20"/>
  <rect x="120.3" y="240.6" width="30.1" height="90.2" fill="#231f20"/>
  <rect x="120.3" y="360.9" width="30.1" height="120.3" fill="#231f20"/>
  <rect x="120.3" y="541.3" width="30.1" height="30.1" fill="#231f20"/>
  <rect x="120.3" y="601.5" width="30.1" height="90.2" fill="#231f20"/>
  <rect x="120.3" y="721.7" width="30.1" height="30.1" fill="#231f20"/>
  <rect x="150.4" width="30.1" height="30.1" fill="#231f20"/>
  <rect x="150.4" y="180.4" width="30.1" height="30.1" fill="#231f20"/>
  <rect x="150.4" y="240.6" width="30.1" height="30.1" fill="#231f20"/>
  <rect x="150.4" y="360.9" width="30.1" height="60.1" fill="#231f20"/>
  <rect x="150.4" y="451.1" width="30.1" height="30.1" fill="#231f20"/>
  <rect x="150.4" y="541.3" width="30.1" height="30.1" fill="#231f20"/>
  <rect x="150.4" y="721.7" width="30.1" height="30.1" fill="#231f20"/>
  <rect x="180.4" width="30.1" height="180.4" fill="#231f20"/>
  <rect x="180.4" y="180.4" width="30.1" height="30.1" fill="#231f20"/>
  <rect x="180.4" y="240.6" width="30.1" height="30.1" fill="#231f20"/>
  <rect x="180.4" y="300.7" width="30.1" height="30.1" fill="#231f20"/>
  <rect x="180.4" y="360.9" width="30.1" height="30.1" fill="#231f20"/>
  <rect x="180.4" y="421" width="30.1" height="30.1" fill="#231f20"/>
  <rect x="180.4" y="481.2" width="30.1" height="30.1" fill="#231f20"/>
  <rect x="180.4" y="541.3" width="30.1" height="60.1" fill="#231f20"/>
  <rect x="180.4" y="601.5" width="30.1" height="90.2" fill="#231f20"/>
  <rect x="180.4" y="691.7" width="30.1" height="60.1" fill="#231f20"/>
  <rect x="210.5" y="240.6" width="30.1" height="30.1" fill="#231f20"/>
  <rect x="210.5" y="300.7" width="30.1" height="30.1" fill="#231f20"/>
  <rect x="210.5" y="330.8" width="30.1" height="60.1" fill="#231f20"/>
  <rect x="210.5" y="451.1" width="30.1" height="60.1" fill="#231f20"/>
  <rect x="240.6" width="30.1" height="90.2" fill="#231f20"/>
  <rect x="240.6" y="120.3" width="30.1" height="30.1" fill="#231f20"/>
  <rect x="240.6" y="180.4" width="30.1" height="30.1" fill="#231f20"/>
  <rect x="240.6" y="240.6" width="30.1" height="90.2" fill="#231f20"/>
  <rect x="240.6" y="330.8" width="30.1" height="30.1" fill="#231f20"/>
  <rect x="240.6" y="421" width="30.1" height="30.1" fill="#231f20"/>
  <rect x="240.6" y="511.2" width="30.1" height="90.2" fill="#231f20"/>
  <rect x="240.6" y="601.5" width="30.1" height="60.1" fill="#231f20"/>
  <rect x="240.6" y="721.7" width="30.1" height="30.1" fill="#231f20"/>
  <rect x="270.7" y="30.1" width="30.1" height="30.1" fill="#231f20"/>
  <rect x="270.7" y="90.2" width="30.1" height="30.1" fill="#231f20"/>
  <rect x="270.7" y="150.4" width="30.1" height="30.1" fill="#231f20"/>
  <rect x="270.7" y="270.7" width="30.1" height="60.1" fill="#231f20"/>
  <rect x="270.7" y="390.9" width="30.1" height="30.1" fill="#231f20"/>
  <rect x="270.7" y="451.1" width="30.1" height="60.1" fill="#231f20"/>
  <rect x="270.7" y="541.3" width="30.1" height="60.1" fill="#231f20"/>
  <rect x="270.7" y="631.5" width="30.1" height="60.1" fill="#231f20"/>
  <rect x="270.7" y="721.7" width="30.1" height="30.1" fill="#231f20"/>
  <rect x="300.7" width="30.1" height="30.1" fill="#231f20"/>
  <rect x="300.7" y="180.4" width="30.1" height="60.1" fill="#231f20"/>
  <rect x="300.7" y="300.7" width="30.1" height="30.1" fill="#231f20"/>
  <rect x="300.7" y="511.2" width="30.1" height="60.1" fill="#231f20"/>
  <rect x="300.7" y="631.5" width="30.1" height="30.1" fill="#231f20"/>
  <rect x="330.8" width="30.1" height="90.2" fill="#231f20"/>
  <rect x="330.8" y="150.4" width="30.1" height="30.1" fill="#231f20"/>
  <rect x="330.8" y="300.7" width="30.1" height="30.1" fill="#231f20"/>
  <rect x="330.8" y="360.9" width="30.1" height="30.1" fill="#231f20"/>
  <rect x="330.8" y="421" width="30.1" height="60.1" fill="#231f20"/>
  <rect x="330.8" y="511.2" width="30.1" height="90.2" fill="#231f20"/>
  <rect x="330.8" y="601.5" width="30.1" height="90.2" fill="#231f20"/>
  <rect x="330.8" y="691.7" width="30.1" height="60.1" fill="#231f20"/>
  <rect x="360.9" y="90.2" width="30.1" height="30.1" fill="#231f20"/>
  <rect x="360.9" y="180.4" width="30.1" height="90.2" fill="#231f20"/>
  <rect x="360.9" y="300.7" width="30.1" height="30.1" fill="#231f20"/>
  <rect x="360.9" y="330.8" width="30.1" height="60.1" fill="#231f20"/>
  <rect x="360.9" y="421" width="30.1" height="30.1" fill="#231f20"/>
  <rect x="360.9" y="481.2" width="30.1" height="30.1" fill="#231f20"/>
  <rect x="360.9" y="511.2" width="30.1" height="30.1" fill="#231f20"/>
  <rect x="360.9" y="601.5" width="30.1" height="90.2" fill="#231f20"/>
  <rect x="390.9" y="30.1" width="30.1" height="90.2" fill="#231f20"/>
  <rect x="390.9" y="210.5" width="30.1" height="30.1" fill="#231f20"/>
  <rect x="390.9" y="270.7" width="30.1" height="30.1" fill="#231f20"/>
  <rect x="390.9" y="481.2" width="30.1" height="30.1" fill="#231f20"/>
  <rect x="390.9" y="511.2" width="30.1" height="30.1" fill="#231f20"/>
  <rect x="390.9" y="571.4" width="30.1" height="30.1" fill="#231f20"/>
  <rect x="421" width="30.1" height="30.1" fill="#231f20"/>
  <rect x="421" y="120.3" width="30.1" height="30.1" fill="#231f20"/>
  <rect x="421" y="180.4" width="30.1" height="30.1" fill="#231f20"/>
  <rect x="421" y="240.6" width="30.1" height="30.1" fill="#231f20"/>
  <rect x="421" y="300.7" width="30.1" height="30.1" fill="#231f20"/>
  <rect x="421" y="330.8" width="30.1" height="150.4" fill="#231f20"/>
  <rect x="421" y="571.4" width="30.1" height="30.1" fill="#231f20"/>
  <rect x="421" y="601.5" width="30.1" height="60.1" fill="#231f20"/>
  <rect x="421" y="691.7" width="30.1" height="30.1" fill="#231f20"/>
  <rect x="451.1" y="60.1" width="30.1" height="30.1" fill="#231f20"/>
  <rect x="451.1" y="270.7" width="30.1" height="60.1" fill="#231f20"/>
  <rect x="451.1" y="360.9" width="30.1" height="90.2" fill="#231f20"/>
  <rect x="451.1" y="481.2" width="30.1" height="30.1" fill="#231f20"/>
  <rect x="451.1" y="511.2" width="30.1" height="30.1" fill="#231f20"/>
  <rect x="451.1" y="571.4" width="30.1" height="30.1" fill="#231f20"/>
  <rect x="451.1" y="601.5" width="30.1" height="30.1" fill="#231f20"/>
  <rect x="481.2" y="60.1" width="30.1" height="30.1" fill="#231f20"/>
  <rect x="481.2" y="120.3" width="30.1" height="60.1" fill="#231f20"/>
  <rect x="481.2" y="180.4" width="30.1" height="90.2" fill="#231f20"/>
  <rect x="481.2" y="300.7" width="30.1" height="30.1" fill="#231f20"/>
  <rect x="481.2" y="330.8" width="30.1" height="120.3" fill="#231f20"/>
  <rect x="481.2" y="481.2" width="30.1" height="30.1" fill="#231f20"/>
  <rect x="481.2" y="511.2" width="30.1" height="90.2" fill="#231f20"/>
  <rect x="481.2" y="601.5" width="30.1" height="30.1" fill="#231f20"/>
  <rect x="481.2" y="661.6" width="30.1" height="30.1" fill="#231f20"/>
  <rect x="481.2" y="721.7" width="30.1" height="30.1" fill="#231f20"/>
  <rect x="511.2" y="240.6" width="30.1" height="30.1" fill="#231f20"/>
  <rect x="511.2" y="421" width="30.1" height="90.2" fill="#231f20"/>
  <rect x="511.2" y="601.5" width="30.1" height="90.2" fill="#231f20"/>
  <rect x="541.3" width="30.1" height="180.4" fill="#231f20"/>
  <rect x="541.3" y="180.4" width="30.1" height="30.1" fill="#231f20"/>
  <rect x="541.3" y="300.7" width="30.1" height="30.1" fill="#231f20"/>
  <rect x="541.3" y="330.8" width="30.1" height="60.1" fill="#231f20"/>
  <rect x="541.3" y="451.1" width="30.1" height="60.1" fill="#231f20"/>
  <rect x="541.3" y="541.3" width="30.1" height="30.1" fill="#231f20"/>
  <rect x="541.3" y="601.5" width="30.1" height="60.1" fill="#231f20"/>
  <rect x="541.3" y="691.7" width="30.1" height="60.1" fill="#231f20"/>
  <rect x="571.4" width="30.1" height="30.1" fill="#231f20"/>
  <rect x="571.4" y="180.4" width="30.1" height="30.1" fill="#231f20"/>
  <rect x="571.4" y="270.7" width="30.1" height="30.1" fill="#231f20"/>
  <rect x="571.4" y="330.8" width="30.1" height="60.1" fill="#231f20"/>
  <rect x="571.4" y="451.1" width="30.1" height="60.1" fill="#231f20"/>
  <rect x="571.4" y="601.5" width="30.1" height="30.1" fill="#231f20"/>
  <rect x="571.4" y="661.6" width="30.1" height="30.1" fill="#231f20"/>
  <rect x="571.4" y="691.7" width="30.1" height="30.1" fill="#231f20"/>
  <rect x="601.5" width="30.1" height="30.1" fill="#231f20"/>
  <rect x="601.5" y="60.1" width="30.1" height="90.2" fill="#231f20"/>
  <rect x="601.5" y="180.4" width="30.1" height="30.1" fill="#231f20"/>
  <rect x="601.5" y="240.6" width="30.1" height="90.2" fill="#231f20"/>
  <rect x="601.5" y="330.8" width="30.1" height="30.1" fill="#231f20"/>
  <rect x="601.5" y="390.9" width="30.1" height="30.1" fill="#231f20"/>
  <rect x="601.5" y="451.1" width="30.1" height="60.1" fill="#231f20"/>
  <rect x="601.5" y="511.2" width="30.1" height="90.2" fill="#231f20"/>
  <rect x="601.5" y="601.5" width="30.1" height="30.1" fill="#231f20"/>
  <rect x="601.5" y="661.6" width="30.1" height="30.1" fill="#231f20"/>
  <rect x="601.5" y="691.7" width="30.1" height="30.1" fill="#231f20"/>
  <rect x="631.5" width="30.1" height="30.1" fill="#231f20"/>
  <rect x="631.5" y="60.1" width="30.1" height="90.2" fill="#231f20"/>
  <rect x="631.5" y="180.4" width="30.1" height="30.1" fill="#231f20"/>
  <rect x="631.5" y="270.7" width="30.1" height="60.1" fill="#231f20"/>
  <rect x="631.5" y="330.8" width="30.1" height="30.1" fill="#231f20"/>
  <rect x="631.5" y="421" width="30.1" height="30.1" fill="#231f20"/>
  <rect x="631.5" y="541.3" width="30.1" height="30.1" fill="#231f20"/>
  <rect x="631.5" y="601.5" width="30.1" height="60.1" fill="#231f20"/>
  <rect x="631.5" y="721.7" width="30.1" height="30.1" fill="#231f20"/>
  <rect x="661.6" width="30.1" height="30.1" fill="#231f20"/>
  <rect x="661.6" y="60.1" width="30.1" height="90.2" fill="#231f20"/>
  <rect x="661.6" y="180.4" width="30.1" height="30.1" fill="#231f20"/>
  <rect x="661.6" y="240.6" width="30.1" height="60.1" fill="#231f20"/>
  <rect x="661.6" y="330.8" width="30.1" height="30.1" fill="#231f20"/>
  <rect x="661.6" y="421" width="30.1" height="90.2" fill="#231f20"/>
  <rect x="661.6" y="661.6" width="30.1" height="30.1" fill="#231f20"/>
  <rect x="661.6" y="691.7" width="30.1" height="30.1" fill="#231f20"/>
  <rect x="691.7" width="30.1" height="30.1" fill="#231f20"/>
  <rect x="691.7" y="180.4" width="30.1" height="30.1" fill="#231f20"/>
  <rect x="691.7" y="240.6" width="30.1" height="60.1" fill="#231f20"/>
  <rect x="691.7" y="330.8" width="30.1" height="30.1" fill="#231f20"/>
  <rect x="691.7" y="390.9" width="30.1" height="60.1" fill="#231f20"/>
  <rect x="691.7" y="481.2" width="30.1" height="30.1" fill="#231f20"/>
  <rect x="691.7" y="511.2" width="30.1" height="30.1" fill="#231f20"/>
  <rect x="691.7" y="571.4" width="30.1" height="30.1" fill="#231f20"/>
  <rect x="691.7" y="631.5" width="30.1" height="60.1" fill="#231f20"/>
  <rect x="691.7" y="691.7" width="30.1" height="30.1" fill="#231f20"/>
  <rect x="721.8" width="30.1" height="180.4" fill="#231f20"/>
  <rect x="721.8" y="180.4" width="30.1" height="30.1" fill="#231f20"/>
  <rect x="721.8" y="240.6" width="30.1" height="30.1" fill="#231f20"/>
  <rect x="721.8" y="300.7" width="30.1" height="30.1" fill="#231f20"/>
  <rect x="721.8" y="330.8" width="30.1" height="60.1" fill="#231f20"/>
  <rect x="721.8" y="421" width="30.1" height="60.1" fill="#231f20"/>
  <rect x="721.8" y="541.3" width="30.1" height="60.1" fill="#231f20"/>
  <rect x="721.8" y="631.5" width="30.1" height="60.1" fill="#231f20"/>
  <rect x="721.8" y="691.7" width="30.1" height="60.1" fill="#231f20"/>
</svg>